{"glyphs":{"0":{"ha":554,"x_min":0,"x_max":0,"o":"m 507 218 b 278 -14 507 14 467 -14 b 50 218 89 -14 50 14 l 50 881 b 278 1111 50 1083 89 1111 b 507 881 467 1111 507 1083 m 346 881 b 279 968 346 954 336 968 b 210 881 219 968 210 953 l 210 218 b 276 128 210 142 219 128 b 346 218 338 128 346 144 "},"1":{"ha":340,"x_min":0,"x_max":0,"o":"m 25 1097 l 282 1097 l 282 0 l 121 0 l 121 960 l 25 960 "},"2":{"ha":574,"x_min":0,"x_max":0,"o":"m 58 0 l 58 331 b 174 604 58 515 76 544 l 297 679 b 356 776 344 708 356 725 l 356 885 b 289 968 356 953 346 968 b 219 881 231 968 219 951 l 219 744 l 64 744 l 64 881 b 292 1111 64 1083 103 1111 b 517 885 481 1111 517 1083 l 517 769 b 407 565 517 654 497 618 l 274 486 b 219 381 228 458 219 440 l 219 142 l 354 142 l 354 407 l 517 407 l 517 0 "},"3":{"ha":543,"x_min":0,"x_max":0,"o":"m 199 428 l 199 215 b 264 129 199 146 213 129 b 333 215 322 129 333 150 l 333 403 b 268 522 333 496 331 522 l 176 522 l 176 667 l 268 667 b 333 739 326 667 333 685 l 333 882 b 267 968 333 954 321 968 b 199 882 200 968 199 947 l 199 753 l 46 753 l 46 882 b 268 1111 46 1083 86 1111 b 494 885 454 1111 494 1082 l 494 747 b 396 597 494 632 439 608 l 396 592 b 494 404 454 579 494 547 l 494 213 b 268 -14 494 15 454 -14 b 46 215 86 -14 46 14 l 46 428 "},"4":{"ha":581,"x_min":0,"x_max":0,"o":"m 551 450 l 551 314 l 486 314 l 486 0 l 324 0 l 324 314 l 54 314 l 58 1104 l 206 1104 l 201 450 l 324 450 l 324 931 l 486 931 l 486 450 "},"5":{"ha":560,"x_min":0,"x_max":0,"o":"m 346 746 l 346 978 l 213 978 l 211 660 l 333 660 b 507 440 463 660 507 606 l 507 218 b 278 -14 507 15 467 -14 b 58 217 99 -14 58 13 l 58 414 l 211 414 l 211 217 b 278 128 211 140 217 128 b 346 217 338 128 346 140 l 346 415 b 265 543 346 510 340 543 l 58 543 l 63 1097 l 507 1097 l 507 746 "},"6":{"ha":554,"x_min":0,"x_max":0,"o":"m 507 218 b 278 -14 507 14 467 -14 b 50 218 89 -14 50 14 l 50 881 b 278 1111 50 1082 89 1111 b 499 881 457 1111 499 1085 l 499 771 l 344 771 l 344 881 b 279 968 344 953 335 968 b 210 881 221 968 210 951 l 210 589 b 350 650 231 631 274 650 b 507 418 483 650 507 590 m 346 415 b 288 525 346 511 332 525 b 210 461 235 525 218 506 l 210 231 b 278 128 210 140 222 128 b 346 218 333 128 346 140 "},"7":{"ha":457,"x_min":0,"x_max":0,"o":"m 418 975 l 213 0 l 47 0 l 260 964 l 36 964 l 36 1097 l 418 1097 "},"8":{"ha":557,"x_min":0,"x_max":0,"o":"m 279 1111 b 508 888 468 1111 508 1082 l 508 747 b 406 597 508 632 454 608 l 406 592 b 508 404 469 579 508 547 l 508 211 b 279 -14 508 15 468 -14 b 50 211 90 -14 50 15 l 50 404 b 153 592 50 547 90 579 l 153 597 b 50 747 104 608 50 632 l 50 888 b 279 1111 50 1082 90 1111 m 347 435 b 276 531 347 517 336 531 b 211 414 221 531 211 518 l 211 213 b 279 128 211 142 222 128 b 347 213 338 128 347 142 l 347 435 m 281 968 b 211 871 218 968 211 951 l 211 735 b 279 658 211 676 221 658 b 347 735 340 658 347 678 l 347 871 b 281 968 347 953 340 968 "},"9":{"ha":554,"x_min":0,"x_max":0,"o":"m 50 879 b 278 1111 50 1083 89 1111 b 507 879 467 1111 507 1083 l 507 217 b 278 -14 507 15 467 -14 b 58 217 99 -14 58 13 l 58 301 l 211 301 l 211 217 b 278 128 211 142 224 128 b 346 217 338 128 346 146 l 346 475 b 207 415 325 435 282 415 b 50 647 75 415 50 475 m 210 679 b 271 539 210 565 210 539 b 346 603 319 539 339 556 l 346 879 b 278 968 346 957 338 968 b 210 879 218 968 210 957 "},"\u0000":{"ha":0,"x_min":0,"x_max":0,"o":""}," ":{"ha":235,"x_min":0,"x_max":0,"o":""},"!":{"ha":247,"x_min":0,"x_max":0,"o":"m 207 1097 l 181 263 l 71 263 l 43 1097 m 199 0 l 53 0 l 53 183 l 199 183 "},"\"":{"ha":403,"x_min":0,"x_max":0,"o":"m 165 1097 l 144 703 l 63 703 l 42 1097 m 390 1097 l 369 703 l 288 703 l 267 1097 "},"#":{"ha":601,"x_min":0,"x_max":0,"o":"m 131 450 l 151 644 l 56 644 l 72 781 l 168 781 l 206 1097 l 303 1097 l 265 781 l 392 781 l 428 1097 l 526 1097 l 489 781 l 572 781 l 554 644 l 474 644 l 451 450 l 546 450 l 531 313 l 435 313 l 399 0 l 300 0 l 336 313 l 211 313 l 175 0 l 78 0 l 114 313 l 31 313 l 49 450 m 228 450 l 353 450 l 375 644 l 250 644 "},"$":{"ha":554,"x_min":0,"x_max":0,"o":"m 340 1197 l 340 1108 b 501 878 472 1100 501 1058 l 501 742 l 346 742 l 346 878 b 279 968 346 956 335 968 b 210 878 219 968 210 954 l 210 776 b 299 664 210 708 222 700 b 507 388 489 572 507 561 l 507 218 b 340 -11 507 36 478 -3 l 340 -100 l 217 -100 l 217 -11 b 56 218 88 -3 56 38 l 56 436 l 211 436 l 211 218 b 279 128 211 142 221 128 b 346 218 338 128 346 142 l 346 368 b 269 508 346 457 343 474 b 50 778 71 603 50 614 l 50 878 b 217 1108 50 1058 81 1100 l 217 1197 "},"%":{"ha":839,"x_min":0,"x_max":0,"o":"m 706 1097 l 247 0 l 139 0 l 597 1097 m 821 124 b 668 -8 821 7 794 -8 b 517 124 542 -8 517 7 l 517 483 b 668 614 517 599 542 614 b 821 483 794 614 821 599 m 326 618 b 174 486 326 501 300 486 b 22 618 47 486 22 501 l 22 978 b 174 1108 22 1093 47 1108 b 326 978 300 1108 326 1093 m 710 483 b 669 525 710 519 704 525 b 626 483 632 525 626 518 l 626 124 b 667 81 626 86 632 81 b 710 124 706 81 710 88 m 215 978 b 175 1019 215 1014 210 1019 b 132 978 138 1019 132 1013 l 132 618 b 172 575 132 581 138 575 b 215 618 211 575 215 582 "},"&":{"ha":549,"x_min":0,"x_max":0,"o":"m 485 574 l 485 0 l 278 0 b 50 225 89 0 50 29 l 50 467 b 149 638 50 593 93 615 l 149 643 b 50 792 104 651 50 676 l 50 874 b 278 1097 50 1069 89 1097 l 301 1097 l 301 958 l 278 958 b 210 874 219 958 210 944 l 210 778 b 275 700 210 721 219 700 l 336 700 l 336 856 l 485 856 l 485 700 l 536 700 l 536 574 m 336 574 l 275 574 b 210 494 219 574 210 554 l 210 225 b 278 138 210 149 219 138 l 336 138 "},"'":{"ha":208,"x_min":0,"x_max":0,"o":"m 167 1097 l 146 703 l 64 703 l 43 1097 "},"(":{"ha":356,"x_min":0,"x_max":0,"o":"m 322 1174 l 297 1174 b 203 1026 218 1174 203 1149 l 203 -7 b 297 -154 203 -133 219 -154 l 322 -154 l 322 -257 l 297 -257 b 89 -7 126 -257 89 -187 l 89 1026 b 297 1276 89 1207 136 1276 l 322 1276 "},")":{"ha":356,"x_min":0,"x_max":0,"o":"m 35 1276 l 60 1276 b 268 1026 221 1276 268 1207 l 268 -7 b 60 -257 268 -187 231 -257 l 35 -257 l 35 -154 l 60 -154 b 154 -7 138 -154 154 -133 l 154 1026 b 60 1174 154 1149 139 1174 l 35 1174 "},"*":{"ha":607,"x_min":0,"x_max":0,"o":"m 125 983 l 274 875 l 257 1061 l 304 1111 l 350 1061 l 335 875 l 483 983 l 547 965 l 529 899 l 365 819 l 529 742 l 547 675 l 483 657 l 335 765 l 350 579 l 304 529 l 257 579 l 274 765 l 125 657 l 61 675 l 81 742 l 243 819 l 81 899 l 61 965 "},"+":{"ha":685,"x_min":0,"x_max":0,"o":"m 281 492 l 61 492 l 61 618 l 281 618 l 281 836 l 406 836 l 406 618 l 626 618 l 626 492 l 406 492 l 406 272 l 281 272 "},",":{"ha":265,"x_min":0,"x_max":0,"o":"m 207 -26 b 76 -147 207 -103 172 -147 l 61 -147 l 61 -82 l 79 -82 b 124 -31 108 -82 124 -69 l 124 0 l 61 0 l 61 183 l 207 183 "},"-":{"ha":285,"x_min":0,"x_max":0,"o":"m 256 400 l 29 400 l 29 525 l 256 525 "},"­":{"ha":285,"x_min":0,"x_max":0,"o":"m 256 525 l 29 525 l 29 400 l 256 400 "},".":{"ha":265,"x_min":0,"x_max":0,"o":"m 207 0 l 61 0 l 61 183 l 207 183 "},"/":{"ha":378,"x_min":0,"x_max":0,"o":"m 374 1200 l 122 -100 l 6 -100 l 256 1200 "},":":{"ha":265,"x_min":0,"x_max":0,"o":"m 207 0 l 61 0 l 61 183 l 207 183 m 207 551 l 61 551 l 61 735 l 207 735 "},";":{"ha":265,"x_min":0,"x_max":0,"o":"m 207 -26 b 76 -147 207 -103 172 -147 l 61 -147 l 61 -82 l 79 -82 b 124 -31 108 -82 124 -69 l 124 0 l 61 0 l 61 183 l 207 183 m 207 551 l 61 551 l 61 735 l 207 735 "},"<":{"ha":685,"x_min":0,"x_max":0,"o":"m 626 851 l 626 725 l 199 556 l 626 385 l 626 258 l 61 488 l 61 622 "},"=":{"ha":685,"x_min":0,"x_max":0,"o":"m 61 343 l 61 468 l 628 468 l 628 343 m 61 646 l 61 771 l 628 771 l 628 646 "},">":{"ha":685,"x_min":0,"x_max":0,"o":"m 628 622 l 628 488 l 63 258 l 63 385 l 490 556 l 63 725 l 63 851 "},"?":{"ha":535,"x_min":0,"x_max":0,"o":"m 328 0 l 182 0 l 182 182 l 328 182 m 185 351 b 229 533 185 444 196 479 l 306 654 b 332 769 328 689 332 713 l 332 881 b 264 968 332 954 322 968 b 196 881 203 968 196 953 l 196 742 l 40 742 l 40 881 b 267 1111 40 1083 82 1111 b 493 881 451 1111 493 1083 l 493 782 b 442 589 493 686 485 657 l 346 436 b 321 344 325 403 321 390 l 321 263 l 185 263 "},"@":{"ha":585,"x_min":0,"x_max":0,"o":"m 349 629 b 439 596 396 629 424 619 l 439 735 b 292 858 439 836 426 858 b 150 735 165 858 150 839 l 150 47 b 296 -67 150 -49 165 -67 b 439 47 425 -67 439 -49 l 439 86 l 538 86 l 538 57 b 293 -168 538 -140 494 -168 b 50 57 92 -168 50 -140 l 50 726 b 293 957 50 929 92 957 b 538 726 494 957 538 929 l 538 185 l 446 185 l 446 218 b 347 179 429 193 403 179 b 250 300 268 179 250 208 l 250 503 b 349 629 250 600 268 629 m 342 310 b 383 257 342 272 350 257 b 439 294 414 257 428 269 l 439 511 b 386 543 431 532 414 543 b 342 490 353 543 342 528 "},"A":{"ha":554,"x_min":0,"x_max":0,"o":"m 343 0 l 343 244 l 208 244 l 208 0 l 53 0 l 53 881 b 272 1111 53 1082 94 1111 b 503 881 458 1111 503 1079 l 503 0 m 275 968 b 208 881 218 968 208 956 l 208 375 l 343 375 l 343 881 b 275 968 343 956 332 968 "},"Α":{"ha":554,"x_min":0,"x_max":0,"o":"m 503 0 l 503 881 b 272 1111 503 1079 458 1111 b 53 881 94 1111 53 1082 l 53 0 l 208 0 l 208 244 l 343 244 l 343 0 m 275 968 b 343 881 332 968 343 956 l 343 375 l 208 375 l 208 881 b 275 968 208 956 218 968 "},"А":{"ha":554,"x_min":0,"x_max":0,"o":"m 343 0 l 343 244 l 208 244 l 208 0 l 53 0 l 53 881 b 272 1111 53 1082 94 1111 b 503 881 458 1111 503 1079 l 503 0 m 275 968 b 208 881 218 968 208 956 l 208 375 l 343 375 l 343 881 b 275 968 343 956 332 968 "},"B":{"ha":563,"x_min":0,"x_max":0,"o":"m 419 636 b 518 457 478 622 518 590 l 518 225 b 289 0 518 29 478 0 l 61 0 l 61 1097 l 289 1097 b 518 874 478 1097 518 1069 l 518 792 b 419 642 518 678 457 647 l 419 636 m 221 138 l 289 138 b 357 225 347 138 357 151 l 357 493 b 293 574 357 554 349 574 l 221 574 m 221 700 l 293 700 b 357 771 344 700 357 718 l 357 874 b 289 958 357 942 350 958 l 221 958 "},"Β":{"ha":563,"x_min":0,"x_max":0,"o":"m 419 636 l 419 642 b 518 792 457 647 518 678 l 518 874 b 289 1097 518 1069 478 1097 l 61 1097 l 61 0 l 289 0 b 518 225 478 0 518 29 l 518 457 b 419 636 518 590 478 622 m 221 574 l 293 574 b 357 493 349 574 357 554 l 357 225 b 289 138 357 151 347 138 l 221 138 m 221 958 l 289 958 b 357 874 350 958 357 942 l 357 771 b 293 700 357 718 344 700 l 221 700 "},"В":{"ha":563,"x_min":0,"x_max":0,"o":"m 419 636 b 518 457 478 622 518 590 l 518 225 b 289 0 518 29 478 0 l 61 0 l 61 1097 l 289 1097 b 518 874 478 1097 518 1069 l 518 792 b 419 642 518 678 457 647 l 419 636 m 221 138 l 289 138 b 357 225 347 138 357 151 l 357 493 b 293 574 357 554 349 574 l 221 574 m 221 700 l 293 700 b 357 771 344 700 357 718 l 357 874 b 289 958 357 942 350 958 l 221 958 "},"C":{"ha":547,"x_min":0,"x_max":0,"o":"m 344 632 l 344 881 b 278 968 344 954 335 968 b 210 881 219 968 210 953 l 210 218 b 278 128 210 142 219 128 b 344 218 335 128 344 142 l 344 472 l 499 472 l 499 218 b 278 -14 499 13 457 -14 b 50 218 89 -14 50 15 l 50 881 b 278 1111 50 1082 96 1111 b 499 881 457 1111 499 1083 l 499 632 "},"С":{"ha":547,"x_min":0,"x_max":0,"o":"m 499 632 l 499 881 b 278 1111 499 1083 457 1111 b 50 881 96 1111 50 1082 l 50 218 b 278 -14 50 15 89 -14 b 499 218 457 -14 499 13 l 499 472 l 344 472 l 344 218 b 278 128 344 142 335 128 b 210 218 219 128 210 142 l 210 881 b 278 968 210 953 219 968 b 344 881 335 968 344 954 l 344 632 "},"D":{"ha":565,"x_min":0,"x_max":0,"o":"m 518 225 b 289 0 518 29 478 0 l 61 0 l 61 1097 l 289 1097 b 518 874 478 1097 518 1069 m 357 874 b 289 958 357 946 347 958 l 221 958 l 221 138 l 289 138 b 357 225 347 138 357 151 "},"E":{"ha":407,"x_min":0,"x_max":0,"o":"m 375 0 l 61 0 l 61 1097 l 374 1097 l 374 965 l 221 965 l 221 806 l 369 806 l 369 679 l 221 679 l 221 138 l 375 138 "},"Ε":{"ha":407,"x_min":0,"x_max":0,"o":"m 375 138 l 221 138 l 221 679 l 369 679 l 369 806 l 221 806 l 221 965 l 374 965 l 374 1097 l 61 1097 l 61 0 l 375 0 "},"Е":{"ha":407,"x_min":0,"x_max":0,"o":"m 375 0 l 61 0 l 61 1097 l 374 1097 l 374 965 l 221 965 l 221 806 l 369 806 l 369 679 l 221 679 l 221 138 l 375 138 "},"F":{"ha":399,"x_min":0,"x_max":0,"o":"m 61 0 l 61 1097 l 381 1097 l 381 965 l 221 965 l 221 803 l 375 803 l 375 671 l 221 671 l 221 0 "},"G":{"ha":553,"x_min":0,"x_max":0,"o":"m 344 781 l 344 881 b 278 968 344 954 335 968 b 210 881 219 968 210 953 l 210 218 b 285 128 210 143 219 128 b 349 133 313 128 338 131 l 349 638 l 499 638 l 499 0 b 293 -14 472 -6 393 -14 b 50 218 89 -14 50 21 l 50 881 b 278 1111 50 1082 96 1111 b 499 881 457 1111 499 1083 l 499 781 "},"H":{"ha":579,"x_min":0,"x_max":0,"o":"m 521 0 l 360 0 l 360 600 l 221 600 l 221 0 l 61 0 l 61 1097 l 221 1097 l 221 735 l 360 735 l 360 1097 l 521 1097 "},"Η":{"ha":579,"x_min":0,"x_max":0,"o":"m 521 1097 l 360 1097 l 360 735 l 221 735 l 221 1097 l 61 1097 l 61 0 l 221 0 l 221 600 l 360 600 l 360 0 l 521 0 "},"Н":{"ha":579,"x_min":0,"x_max":0,"o":"m 521 0 l 360 0 l 360 600 l 221 600 l 221 0 l 61 0 l 61 1097 l 221 1097 l 221 735 l 360 735 l 360 1097 l 521 1097 "},"I":{"ha":285,"x_min":0,"x_max":0,"o":"m 224 0 l 64 0 l 64 1097 l 224 1097 "},"Ι":{"ha":285,"x_min":0,"x_max":0,"o":"m 224 1097 l 64 1097 l 64 0 l 224 0 "},"І":{"ha":285,"x_min":0,"x_max":0,"o":"m 224 0 l 64 0 l 64 1097 l 224 1097 "},"Ӏ":{"ha":285,"x_min":0,"x_max":0,"o":"m 224 1097 l 64 1097 l 64 0 l 224 0 "},"ӏ":{"ha":285,"x_min":0,"x_max":0,"o":"m 224 0 l 64 0 l 64 1097 l 224 1097 "},"J":{"ha":517,"x_min":0,"x_max":0,"o":"m 19 472 l 165 472 l 165 218 b 229 128 165 142 176 128 b 296 218 286 128 296 144 l 296 1097 l 457 1097 l 457 218 b 235 -14 457 15 418 -14 b 19 218 60 -14 19 13 "},"Ј":{"ha":517,"x_min":0,"x_max":0,"o":"m 19 218 b 235 -14 19 13 60 -14 b 457 218 418 -14 457 15 l 457 1097 l 296 1097 l 296 218 b 229 128 296 144 286 128 b 165 218 176 128 165 142 l 165 472 l 19 472 "},"K":{"ha":561,"x_min":0,"x_max":0,"o":"m 532 1097 l 368 642 l 554 0 l 381 0 l 229 576 l 222 576 l 222 0 l 61 0 l 61 1097 l 222 1097 l 222 682 l 229 682 l 364 1097 "},"Κ":{"ha":561,"x_min":0,"x_max":0,"o":"m 364 1097 l 229 682 l 222 682 l 222 1097 l 61 1097 l 61 0 l 222 0 l 222 576 l 229 576 l 381 0 l 554 0 l 368 642 l 532 1097 "},"К":{"ha":561,"x_min":0,"x_max":0,"o":"m 532 1097 l 368 642 l 554 0 l 381 0 l 229 576 l 222 576 l 222 0 l 61 0 l 61 1097 l 222 1097 l 222 682 l 229 682 l 364 1097 "},"L":{"ha":401,"x_min":0,"x_max":0,"o":"m 385 0 l 61 0 l 61 1097 l 221 1097 l 221 139 l 385 139 "},"M":{"ha":738,"x_min":0,"x_max":0,"o":"m 681 1097 l 681 0 l 550 0 l 550 775 l 544 775 l 443 0 l 300 0 l 199 781 l 193 781 l 193 0 l 61 0 l 61 1097 l 285 1097 l 368 360 l 374 360 l 458 1097 "},"Μ":{"ha":738,"x_min":0,"x_max":0,"o":"m 458 1097 l 374 360 l 368 360 l 285 1097 l 61 1097 l 61 0 l 193 0 l 193 781 l 199 781 l 300 0 l 443 0 l 544 775 l 550 775 l 550 0 l 681 0 l 681 1097 "},"М":{"ha":738,"x_min":0,"x_max":0,"o":"m 681 1097 l 681 0 l 550 0 l 550 775 l 544 775 l 443 0 l 300 0 l 199 781 l 193 781 l 193 0 l 61 0 l 61 1097 l 285 1097 l 368 360 l 374 360 l 458 1097 "},"N":{"ha":600,"x_min":0,"x_max":0,"o":"m 369 0 l 204 685 l 199 685 l 199 0 l 61 0 l 61 1097 l 238 1097 l 396 393 l 401 393 l 401 1097 l 540 1097 l 540 0 "},"Ν":{"ha":600,"x_min":0,"x_max":0,"o":"m 540 0 l 540 1097 l 401 1097 l 401 393 l 396 393 l 238 1097 l 61 1097 l 61 0 l 199 0 l 199 685 l 204 685 l 369 0 "},"O":{"ha":554,"x_min":0,"x_max":0,"o":"m 507 218 b 278 -14 507 14 467 -14 b 50 218 89 -14 50 14 l 50 881 b 278 1111 50 1083 89 1111 b 507 881 467 1111 507 1083 m 346 881 b 279 968 346 954 336 968 b 210 881 219 968 210 953 l 210 218 b 276 128 210 142 219 128 b 346 218 338 128 346 144 "},"Ο":{"ha":554,"x_min":0,"x_max":0,"o":"m 507 881 b 278 1111 507 1083 467 1111 b 50 881 89 1111 50 1083 l 50 218 b 278 -14 50 14 89 -14 b 507 218 467 -14 507 14 m 346 218 b 276 128 346 144 338 128 b 210 218 219 128 210 142 l 210 881 b 279 968 210 953 219 968 b 346 881 336 968 346 954 "},"О":{"ha":554,"x_min":0,"x_max":0,"o":"m 507 218 b 278 -14 507 14 467 -14 b 50 218 89 -14 50 14 l 50 881 b 278 1111 50 1083 89 1111 b 507 881 467 1111 507 1083 m 346 881 b 279 968 346 954 336 968 b 210 881 219 968 210 953 l 210 218 b 276 128 210 142 219 128 b 346 218 338 128 346 144 "},"P":{"ha":549,"x_min":0,"x_max":0,"o":"m 221 415 l 221 0 l 61 0 l 61 1097 l 289 1097 b 518 874 478 1097 518 1069 l 518 639 b 289 415 518 442 475 415 m 221 958 l 221 544 l 289 544 b 357 633 346 544 357 558 l 357 874 b 289 958 357 944 351 958 "},"Ρ":{"ha":549,"x_min":0,"x_max":0,"o":"m 289 415 b 518 639 475 415 518 442 l 518 874 b 289 1097 518 1069 478 1097 l 61 1097 l 61 0 l 221 0 l 221 415 m 289 958 b 357 874 351 958 357 944 l 357 633 b 289 544 357 558 346 544 l 221 544 l 221 958 "},"Р":{"ha":549,"x_min":0,"x_max":0,"o":"m 221 415 l 221 0 l 61 0 l 61 1097 l 289 1097 b 518 874 478 1097 518 1069 l 518 639 b 289 415 518 442 475 415 m 221 958 l 221 544 l 289 544 b 357 633 346 544 357 558 l 357 874 b 289 958 357 944 351 958 "},"Q":{"ha":554,"x_min":0,"x_max":0,"o":"m 368 -106 l 294 13 b 50 226 82 13 50 38 l 50 881 b 278 1111 50 1083 89 1111 b 507 881 467 1111 507 1083 l 507 226 b 425 25 507 100 490 46 l 507 -106 m 346 881 b 279 968 346 954 336 968 b 210 881 219 968 210 953 l 210 226 b 275 139 210 150 219 139 b 346 226 338 139 346 153 "},"R":{"ha":568,"x_min":0,"x_max":0,"o":"m 221 0 l 61 0 l 61 1097 l 289 1097 b 518 874 478 1097 518 1067 l 518 758 b 419 608 518 643 463 619 l 419 603 b 518 438 478 589 518 558 l 518 0 l 357 0 l 357 463 b 293 542 357 522 349 542 l 221 542 m 221 668 l 293 668 b 357 739 344 668 357 686 l 357 874 b 289 958 357 943 350 958 l 221 958 "},"S":{"ha":549,"x_min":0,"x_max":0,"o":"m 343 742 l 343 878 b 275 968 343 956 336 968 b 207 878 214 968 207 956 l 207 769 b 249 688 207 725 213 710 b 399 604 279 668 336 643 b 504 394 493 546 504 517 l 504 218 b 276 -14 504 15 465 -14 b 53 218 96 -14 53 13 l 53 436 l 208 436 l 208 218 b 275 128 208 142 217 128 b 343 218 335 128 343 142 l 343 383 b 306 485 343 442 340 461 b 135 585 268 511 188 550 b 47 772 57 636 47 669 l 47 878 b 272 1111 47 1082 85 1111 b 499 878 460 1111 499 1082 l 499 742 "},"Ѕ":{"ha":549,"x_min":0,"x_max":0,"o":"m 499 742 l 499 878 b 272 1111 499 1082 460 1111 b 47 878 85 1111 47 1082 l 47 772 b 135 585 47 669 57 636 b 306 485 188 550 268 511 b 343 383 340 461 343 442 l 343 218 b 275 128 343 142 335 128 b 208 218 217 128 208 142 l 208 436 l 53 436 l 53 218 b 276 -14 53 13 96 -14 b 504 218 465 -14 504 15 l 504 394 b 399 604 504 517 493 546 b 249 688 336 643 279 668 b 207 769 213 710 207 725 l 207 878 b 275 968 207 956 214 968 b 343 878 336 968 343 956 l 343 742 "},"T":{"ha":432,"x_min":0,"x_max":0,"o":"m 417 964 l 297 964 l 297 0 l 138 0 l 138 964 l 17 964 l 17 1097 l 417 1097 "},"Τ":{"ha":432,"x_min":0,"x_max":0,"o":"m 417 1097 l 17 1097 l 17 964 l 138 964 l 138 0 l 297 0 l 297 964 l 417 964 "},"Т":{"ha":432,"x_min":0,"x_max":0,"o":"m 417 964 l 297 964 l 297 0 l 138 0 l 138 964 l 17 964 l 17 1097 l 417 1097 "},"U":{"ha":560,"x_min":0,"x_max":0,"o":"m 282 -14 b 56 218 99 -14 56 14 l 56 1097 l 215 1097 l 215 218 b 283 129 215 142 226 129 b 351 218 340 129 351 142 l 351 1097 l 507 1097 l 507 218 b 282 -14 507 14 465 -14 "},"V":{"ha":515,"x_min":0,"x_max":0,"o":"m 135 0 l 11 1097 l 175 1097 l 251 199 l 257 199 l 342 1097 l 507 1097 l 368 0 "},"W":{"ha":797,"x_min":0,"x_max":0,"o":"m 172 1097 l 218 235 l 224 235 l 297 1097 l 501 1097 l 564 235 l 569 235 l 629 1097 l 790 1097 l 663 0 l 460 0 l 401 871 l 396 871 l 319 0 l 114 0 l 13 1097 "},"X":{"ha":521,"x_min":0,"x_max":0,"o":"m 494 1097 l 383 575 l 514 0 l 349 0 l 257 490 l 168 0 l 8 0 l 133 575 l 17 1097 l 181 1097 l 268 676 l 346 1097 "},"Χ":{"ha":521,"x_min":0,"x_max":0,"o":"m 346 1097 l 268 676 l 181 1097 l 17 1097 l 133 575 l 8 0 l 168 0 l 257 490 l 349 0 l 514 0 l 383 575 l 494 1097 "},"Х":{"ha":521,"x_min":0,"x_max":0,"o":"m 494 1097 l 383 575 l 514 0 l 349 0 l 257 490 l 168 0 l 8 0 l 133 575 l 17 1097 l 181 1097 l 268 676 l 346 1097 "},"Y":{"ha":489,"x_min":0,"x_max":0,"o":"m 486 1097 l 322 388 l 322 0 l 163 0 l 163 388 l 4 1097 l 163 1097 l 242 601 l 247 601 l 331 1097 "},"Υ":{"ha":489,"x_min":0,"x_max":0,"o":"m 331 1097 l 247 601 l 242 601 l 163 1097 l 4 1097 l 163 388 l 163 0 l 322 0 l 322 388 l 486 1097 "},"Ү":{"ha":489,"x_min":0,"x_max":0,"o":"m 486 1097 l 322 388 l 322 0 l 163 0 l 163 388 l 4 1097 l 163 1097 l 242 601 l 247 601 l 331 1097 "},"Z":{"ha":435,"x_min":0,"x_max":0,"o":"m 410 0 l 25 0 l 25 139 l 246 964 l 47 964 l 47 1097 l 407 1097 l 407 989 l 192 138 l 410 138 "},"Ζ":{"ha":435,"x_min":0,"x_max":0,"o":"m 410 138 l 192 138 l 407 989 l 407 1097 l 47 1097 l 47 964 l 246 964 l 25 139 l 25 0 l 410 0 "},"[":{"ha":356,"x_min":0,"x_max":0,"o":"m 336 1174 l 215 1174 l 215 -154 l 336 -154 l 336 -257 l 101 -257 l 101 1276 l 336 1276 "},"\\":{"ha":378,"x_min":0,"x_max":0,"o":"m 122 1200 l 374 -100 l 256 -100 l 6 1200 "},"]":{"ha":356,"x_min":0,"x_max":0,"o":"m 21 1276 l 256 1276 l 256 -257 l 21 -257 l 21 -154 l 142 -154 l 142 1174 l 21 1174 "},"^":{"ha":628,"x_min":0,"x_max":0,"o":"m 594 474 l 469 474 l 314 949 l 161 474 l 36 474 l 249 1097 l 382 1097 "},"_":{"ha":558,"x_min":0,"x_max":0,"o":"m 553 -189 l -1 -189 l -1 -64 l 553 -64 "},"`":{"ha":279,"x_min":0,"x_max":0,"o":"m 260 888 l 153 888 l 19 1118 l 172 1118 "},"a":{"ha":490,"x_min":0,"x_max":0,"o":"m 239 -14 b 50 147 83 -14 50 3 l 50 349 b 176 493 50 449 85 493 l 203 493 b 299 481 265 493 286 488 l 299 653 b 240 725 299 713 289 725 b 179 653 186 725 179 710 l 179 571 l 50 571 l 50 669 b 238 846 50 826 83 846 b 436 669 401 846 436 824 l 436 0 b 239 -14 403 -8 329 -14 m 247 103 b 299 106 272 103 293 104 l 299 378 b 246 386 286 385 267 386 b 179 313 183 386 179 374 l 179 182 b 247 103 179 113 183 103 "},"а":{"ha":490,"x_min":0,"x_max":0,"o":"m 239 -14 b 436 0 329 -14 403 -8 l 436 669 b 238 846 436 824 401 846 b 50 669 83 846 50 826 l 50 571 l 179 571 l 179 653 b 240 725 179 710 186 725 b 299 653 289 725 299 713 l 299 481 b 203 493 286 488 265 493 l 176 493 b 50 349 85 493 50 449 l 50 147 b 239 -14 50 3 83 -14 m 247 103 b 179 182 183 103 179 113 l 179 313 b 246 386 179 374 183 386 b 299 378 267 386 286 385 l 299 106 b 247 103 293 104 272 103 "},"b":{"ha":508,"x_min":0,"x_max":0,"o":"m 458 163 b 326 -7 458 32 433 -7 b 193 60 254 -7 217 11 l 193 0 l 61 0 l 61 1097 l 203 1097 l 203 781 b 328 839 225 818 258 839 b 458 669 432 839 458 792 m 199 163 b 267 119 213 132 231 119 b 321 189 308 119 321 136 l 321 642 b 267 711 321 694 308 711 b 199 668 231 711 213 699 "},"c":{"ha":482,"x_min":0,"x_max":0,"o":"m 307 524 l 307 654 b 249 713 307 703 297 713 b 188 654 194 713 188 701 l 188 176 b 246 117 188 129 197 117 b 307 176 297 117 307 131 l 307 392 l 436 392 l 436 163 b 249 -14 436 6 397 -14 b 50 163 83 -14 50 10 l 50 669 b 242 846 50 822 86 846 b 436 669 407 846 436 819 l 436 524 "},"с":{"ha":482,"x_min":0,"x_max":0,"o":"m 436 524 l 436 669 b 242 846 436 819 407 846 b 50 669 86 846 50 822 l 50 163 b 249 -14 50 10 83 -14 b 436 163 397 -14 436 6 l 436 392 l 307 392 l 307 176 b 246 117 307 131 297 117 b 188 176 197 117 188 129 l 188 654 b 249 713 188 701 194 713 b 307 654 297 713 307 703 l 307 524 "},"d":{"ha":508,"x_min":0,"x_max":0,"o":"m 50 669 b 178 839 50 796 75 839 b 304 781 253 839 282 817 l 304 1097 l 447 1097 l 447 0 l 315 0 l 315 60 b 182 -7 290 11 254 -7 b 50 163 75 -7 50 32 m 308 668 b 240 711 294 699 276 711 b 188 642 199 711 188 694 l 188 189 b 240 119 188 136 199 119 b 308 163 276 119 294 132 "},"e":{"ha":485,"x_min":0,"x_max":0,"o":"m 189 367 l 189 171 b 249 107 189 118 197 107 b 308 171 299 107 308 118 l 308 283 l 436 283 l 436 163 b 247 -14 436 6 401 -14 b 50 163 83 -14 50 8 l 50 669 b 247 846 50 824 83 846 b 436 669 401 846 436 826 l 436 367 m 189 481 l 308 481 l 308 658 b 249 721 308 711 299 721 b 189 658 197 721 189 711 "},"е":{"ha":485,"x_min":0,"x_max":0,"o":"m 436 367 l 436 669 b 247 846 436 826 401 846 b 50 669 83 846 50 824 l 50 163 b 247 -14 50 8 83 -14 b 436 163 401 -14 436 6 l 436 283 l 308 283 l 308 171 b 249 107 308 118 299 107 b 189 171 197 107 189 118 l 189 367 m 189 658 b 249 721 189 711 197 721 b 308 658 299 721 308 711 l 308 481 l 189 481 "},"f":{"ha":335,"x_min":0,"x_max":0,"o":"m 317 717 l 211 717 l 211 0 l 69 0 l 69 717 l 18 717 l 18 832 l 69 832 l 69 921 b 271 1097 69 1043 125 1097 l 315 1097 l 315 992 l 281 992 b 211 914 232 992 211 967 l 211 832 l 317 832 "},"g":{"ha":508,"x_min":0,"x_max":0,"o":"m 221 -93 b 304 -14 283 -93 304 -76 l 304 93 b 179 36 282 56 249 36 b 50 206 72 36 50 82 l 50 669 b 183 839 50 797 75 839 b 315 771 246 839 288 825 l 315 832 l 447 832 l 447 -14 b 254 -212 447 -149 394 -212 l 72 -212 l 72 -93 l 221 -93 m 308 668 b 240 711 294 699 276 711 b 188 642 199 711 188 694 l 188 232 b 240 163 188 179 199 163 b 308 206 276 163 294 175 "},"h":{"ha":521,"x_min":0,"x_max":0,"o":"m 203 0 l 61 0 l 61 1097 l 203 1097 l 203 779 b 331 839 225 821 261 839 b 471 669 436 839 471 797 l 471 0 l 329 0 l 329 654 b 274 711 329 696 315 711 b 203 668 228 711 214 693 "},"һ":{"ha":521,"x_min":0,"x_max":0,"o":"m 203 668 b 274 711 214 693 228 711 b 329 654 315 711 329 696 l 329 0 l 471 0 l 471 669 b 331 839 471 797 436 839 b 203 779 261 839 225 821 l 203 1097 l 61 1097 l 61 0 l 203 0 "},"i":{"ha":267,"x_min":0,"x_max":0,"o":"m 204 953 l 64 953 l 64 1097 l 204 1097 m 204 0 l 64 0 l 64 832 l 204 832 "},"і":{"ha":267,"x_min":0,"x_max":0,"o":"m 204 1097 l 64 1097 l 64 953 l 204 953 m 204 832 l 64 832 l 64 0 l 204 0 "},"j":{"ha":267,"x_min":0,"x_max":0,"o":"m 67 832 l 208 832 l 208 -14 b 11 -212 208 -147 153 -212 l -67 -212 l -67 -93 l 0 -93 b 67 -14 47 -93 67 -72 m 208 953 l 67 953 l 67 1097 l 208 1097 "},"ј":{"ha":267,"x_min":0,"x_max":0,"o":"m 67 -14 b 0 -93 67 -72 47 -93 l -67 -93 l -67 -212 l 11 -212 b 208 -14 153 -212 208 -147 l 208 832 l 67 832 m 208 1097 l 67 1097 l 67 953 l 208 953 "},"k":{"ha":506,"x_min":0,"x_max":0,"o":"m 338 0 l 207 428 l 201 428 l 201 0 l 61 0 l 61 1097 l 201 1097 l 201 525 l 207 525 l 324 832 l 478 832 l 326 485 l 496 0 "},"l":{"ha":261,"x_min":0,"x_max":0,"o":"m 203 0 l 61 0 l 61 1097 l 203 1097 "},"m":{"ha":794,"x_min":0,"x_max":0,"o":"m 203 0 l 61 0 l 61 832 l 193 832 l 193 776 b 328 839 214 817 253 839 b 457 771 396 839 438 821 b 596 839 485 822 528 839 b 738 669 703 839 738 797 l 738 0 l 596 0 l 596 654 b 540 711 596 696 583 711 b 471 669 496 711 483 696 l 471 0 l 329 0 l 329 654 b 274 711 329 696 315 711 b 203 668 228 711 214 693 "},"n":{"ha":525,"x_min":0,"x_max":0,"o":"m 203 0 l 61 0 l 61 832 l 193 832 l 193 776 b 329 839 215 818 253 839 b 471 669 436 839 471 797 l 471 0 l 329 0 l 329 654 b 274 711 329 696 315 711 b 203 668 228 711 214 693 "},"o":{"ha":497,"x_min":0,"x_max":0,"o":"m 447 163 b 249 -14 447 7 411 -14 b 50 163 85 -14 50 7 l 50 669 b 249 846 50 825 85 846 b 447 669 411 846 447 825 m 310 654 b 251 713 310 703 300 713 b 188 654 199 713 188 701 l 188 176 b 249 117 188 129 197 117 b 310 176 301 117 310 131 "},"ο":{"ha":497,"x_min":0,"x_max":0,"o":"m 447 669 b 249 846 447 825 411 846 b 50 669 85 846 50 825 l 50 163 b 249 -14 50 7 85 -14 b 447 163 411 -14 447 7 m 310 176 b 249 117 310 131 301 117 b 188 176 197 117 188 129 l 188 654 b 251 713 188 701 199 713 b 310 654 300 713 310 703 "},"о":{"ha":497,"x_min":0,"x_max":0,"o":"m 447 163 b 249 -14 447 7 411 -14 b 50 163 85 -14 50 7 l 50 669 b 249 846 50 825 85 846 b 447 669 411 846 447 825 m 310 654 b 251 713 310 703 300 713 b 188 654 199 713 188 701 l 188 176 b 249 117 188 129 197 117 b 310 176 301 117 310 131 "},"p":{"ha":508,"x_min":0,"x_max":0,"o":"m 458 163 b 329 -7 458 33 433 -7 b 203 50 268 -7 228 7 l 203 -212 l 61 -212 l 61 832 l 193 832 l 193 771 b 325 839 219 825 263 839 b 458 669 433 839 458 797 m 199 163 b 267 119 213 132 231 119 b 321 189 308 119 321 136 l 321 642 b 267 711 321 694 308 711 b 199 668 231 711 213 699 "},"р":{"ha":508,"x_min":0,"x_max":0,"o":"m 458 669 b 325 839 458 797 433 839 b 193 771 263 839 219 825 l 193 832 l 61 832 l 61 -212 l 203 -212 l 203 50 b 329 -7 228 7 268 -7 b 458 163 433 -7 458 33 m 199 668 b 267 711 213 699 231 711 b 321 642 308 711 321 694 l 321 189 b 267 119 321 136 308 119 b 199 163 231 119 213 132 "},"q":{"ha":508,"x_min":0,"x_max":0,"o":"m 50 669 b 183 839 50 797 75 839 b 315 771 246 839 288 825 l 315 832 l 447 832 l 447 -212 l 304 -212 l 304 50 b 179 -7 282 13 249 -7 b 50 163 75 -7 50 38 m 308 668 b 240 711 294 699 276 711 b 188 642 199 711 188 694 l 188 189 b 240 119 188 136 199 119 b 308 163 276 119 294 132 "},"r":{"ha":468,"x_min":0,"x_max":0,"o":"m 203 0 l 61 0 l 61 832 l 193 832 l 193 776 b 326 839 213 814 253 839 b 451 669 419 839 451 799 l 451 463 l 324 463 l 324 653 b 272 711 324 693 314 711 b 203 665 233 711 214 696 "},"s":{"ha":492,"x_min":0,"x_max":0,"o":"m 307 592 l 307 654 b 246 714 307 703 299 714 b 186 654 193 714 186 703 l 186 588 b 257 503 186 538 196 531 b 361 454 269 497 335 468 b 444 318 435 415 444 381 l 444 164 b 247 -14 444 7 413 -14 b 47 164 83 -14 47 7 l 47 292 l 186 292 l 186 179 b 247 118 186 129 196 118 b 307 179 301 118 307 131 l 307 281 b 249 360 307 325 300 336 b 133 411 204 381 178 386 b 47 567 64 449 47 478 l 47 668 b 247 846 47 825 82 846 b 444 668 411 846 444 825 l 444 592 "},"ѕ":{"ha":492,"x_min":0,"x_max":0,"o":"m 444 592 l 444 668 b 247 846 444 825 411 846 b 47 668 82 846 47 825 l 47 567 b 133 411 47 478 64 449 b 249 360 178 386 204 381 b 307 281 300 336 307 325 l 307 179 b 247 118 307 131 301 118 b 186 179 196 118 186 129 l 186 292 l 47 292 l 47 164 b 247 -14 47 7 83 -14 b 444 164 413 -14 444 7 l 444 318 b 361 454 444 381 435 415 b 257 503 335 468 269 497 b 186 588 196 531 186 538 l 186 654 b 246 714 186 703 193 714 b 307 654 299 714 307 703 l 307 592 "},"t":{"ha":333,"x_min":0,"x_max":0,"o":"m 303 717 l 206 717 l 206 194 b 275 121 206 138 219 121 l 301 121 l 301 0 l 265 0 b 64 176 113 0 64 54 l 64 717 l 13 717 l 13 832 l 64 832 l 64 1085 l 206 1085 l 206 832 l 303 832 "},"u":{"ha":522,"x_min":0,"x_max":0,"o":"m 319 832 l 463 832 l 463 0 l 329 0 l 329 54 b 196 -7 307 13 271 -7 b 56 163 89 -7 56 33 l 56 832 l 197 832 l 197 176 b 251 119 197 138 208 119 b 319 163 293 119 308 136 "},"v":{"ha":450,"x_min":0,"x_max":0,"o":"m 108 0 l 8 832 l 157 832 l 221 200 l 226 200 l 296 832 l 443 832 l 331 0 "},"ν":{"ha":450,"x_min":0,"x_max":0,"o":"m 331 0 l 443 832 l 296 832 l 226 200 l 221 200 l 157 832 l 8 832 l 108 0 "},"w":{"ha":739,"x_min":0,"x_max":0,"o":"m 158 832 l 201 210 l 207 210 l 278 832 l 463 832 l 526 210 l 532 210 l 583 832 l 735 832 l 619 0 l 428 0 l 372 632 l 367 632 l 296 0 l 103 0 l 7 832 "},"x":{"ha":468,"x_min":0,"x_max":0,"o":"m 443 832 l 344 436 l 460 0 l 311 0 l 231 369 l 151 0 l 8 0 l 124 439 l 15 832 l 163 832 l 239 514 l 310 832 "},"х":{"ha":468,"x_min":0,"x_max":0,"o":"m 310 832 l 239 514 l 163 832 l 15 832 l 124 439 l 8 0 l 151 0 l 231 369 l 311 0 l 460 0 l 344 436 l 443 832 "},"y":{"ha":525,"x_min":0,"x_max":0,"o":"m 324 832 l 465 832 l 465 -14 b 271 -212 465 -149 411 -212 l 85 -212 l 85 -93 l 236 -93 b 321 -14 299 -93 321 -76 l 321 93 b 193 36 296 51 257 36 b 56 206 89 36 56 76 l 56 832 l 197 832 l 197 232 b 257 163 197 179 214 163 b 324 206 293 163 308 175 "},"у":{"ha":525,"x_min":0,"x_max":0,"o":"m 324 206 b 257 163 308 175 293 163 b 197 232 214 163 197 179 l 197 832 l 56 832 l 56 206 b 193 36 56 76 89 36 b 321 93 257 36 296 51 l 321 -14 b 236 -93 321 -76 299 -93 l 85 -93 l 85 -212 l 271 -212 b 465 -14 411 -212 465 -149 l 465 832 l 324 832 "},"z":{"ha":415,"x_min":0,"x_max":0,"o":"m 394 0 l 21 0 l 21 121 l 250 717 l 46 717 l 46 832 l 390 832 l 390 725 l 168 119 l 394 119 "},"{":{"ha":368,"x_min":0,"x_max":0,"o":"m 242 628 b 188 497 242 560 219 517 b 242 367 219 476 242 433 l 242 -54 b 335 -182 242 -153 260 -182 l 350 -182 l 350 -282 l 335 -282 b 129 -54 169 -282 129 -224 l 129 374 b 58 450 129 424 107 450 l 38 450 l 38 544 l 58 544 b 129 621 107 544 129 571 l 129 1047 b 335 1276 129 1217 169 1276 l 350 1276 l 350 1175 l 335 1175 b 242 1047 260 1175 242 1146 l 242 628 "},"|":{"ha":314,"x_min":0,"x_max":0,"o":"m 214 -257 l 100 -257 l 100 1276 l 214 1276 "},"}":{"ha":368,"x_min":0,"x_max":0,"o":"m 129 1047 b 36 1175 129 1146 111 1175 l 21 1175 l 21 1276 l 36 1276 b 242 1047 201 1276 242 1217 l 242 621 b 313 544 242 571 264 544 l 333 544 l 333 450 l 313 450 b 242 374 264 450 242 424 l 242 -54 b 36 -282 242 -224 201 -282 l 21 -282 l 21 -182 l 36 -182 b 129 -54 111 -182 129 -153 l 129 367 b 183 497 129 433 151 476 b 129 628 151 517 129 560 "},"~":{"ha":707,"x_min":0,"x_max":0,"o":"m 61 560 b 203 646 75 610 135 646 b 489 564 307 646 388 564 b 626 661 560 564 603 603 l 626 542 b 481 457 614 493 553 457 b 197 538 375 457 294 538 b 61 442 121 538 83 488 "}," ":{"ha":235,"x_min":0,"x_max":0,"o":""},"¡":{"ha":247,"x_min":0,"x_max":0,"o":"m 39 0 l 65 835 l 175 835 l 203 0 m 47 1097 l 193 1097 l 193 914 l 47 914 "},"¢":{"ha":492,"x_min":0,"x_max":0,"o":"m 307 1125 l 307 990 b 439 817 413 983 439 951 l 439 649 l 310 649 l 310 801 b 250 861 310 851 301 861 b 190 801 197 861 190 851 l 190 294 b 251 236 190 247 200 236 b 310 294 301 236 310 247 l 310 517 l 439 517 l 439 281 b 307 106 439 144 413 111 l 307 -28 l 183 -28 l 183 106 b 53 281 76 114 53 149 l 53 817 b 183 990 53 947 76 983 l 183 1125 "},"£":{"ha":553,"x_min":0,"x_max":0,"o":"m 29 0 l 29 133 l 76 133 l 76 397 l 29 397 l 29 513 l 76 513 l 76 881 b 299 1111 76 1082 114 1111 b 514 881 474 1111 514 1085 l 514 608 l 368 608 l 368 881 b 303 969 368 956 358 969 b 236 881 246 969 236 956 l 236 513 l 483 513 l 483 397 l 236 397 l 236 133 l 517 133 l 517 0 "},"¤":{"ha":715,"x_min":0,"x_max":0,"o":"m 482 354 b 360 339 456 342 418 339 b 238 356 301 339 264 342 l 106 224 l 35 294 l 153 413 b 144 500 146 433 144 463 l 144 596 b 153 685 144 631 146 663 l 36 801 l 107 872 l 238 740 b 361 757 265 753 303 757 b 481 740 418 757 456 753 l 613 872 l 683 801 l 568 688 b 578 596 575 665 578 632 l 578 500 b 568 410 578 461 575 432 l 683 294 l 613 224 l 482 354 m 239 500 b 361 424 239 439 250 424 b 483 500 472 424 483 439 l 483 597 b 361 674 483 656 472 674 b 239 597 250 674 239 656 "},"¥":{"ha":547,"x_min":0,"x_max":0,"o":"m 46 489 l 183 489 l 33 1097 l 189 1097 l 271 643 l 276 643 l 358 1097 l 515 1097 l 368 489 l 490 489 l 490 392 l 360 392 l 360 276 l 490 276 l 490 178 l 360 178 l 360 0 l 192 0 l 192 178 l 46 178 l 46 276 l 192 276 l 192 392 l 46 392 "},"¦":{"ha":314,"x_min":0,"x_max":0,"o":"m 100 -257 l 100 360 l 214 360 l 214 -257 m 214 696 l 100 696 l 100 1276 l 214 1276 "},"§":{"ha":492,"x_min":0,"x_max":0,"o":"m 307 867 l 307 922 b 247 982 307 971 299 982 b 185 922 193 982 185 969 l 185 869 b 260 776 185 815 197 807 b 444 563 418 700 444 686 l 444 458 b 399 326 444 383 431 349 b 444 174 439 297 444 249 l 444 88 b 249 -92 444 -71 413 -92 b 47 88 83 -92 47 -71 l 47 192 l 185 192 l 185 103 b 244 39 185 49 196 39 b 307 103 299 39 307 51 l 307 175 b 217 276 307 235 296 243 b 47 458 83 332 47 350 l 47 563 b 108 711 47 654 58 692 b 47 844 58 739 47 767 l 47 936 b 246 1114 47 1093 82 1114 b 444 936 410 1114 444 1093 l 444 867 m 307 544 b 246 632 307 599 294 624 b 185 521 188 625 185 606 l 185 479 b 274 399 185 429 196 418 b 307 483 304 404 307 436 l 307 544 "},"¨":{"ha":514,"x_min":0,"x_max":0,"o":"m 456 953 l 314 953 l 314 1097 l 456 1097 m 204 953 l 64 953 l 64 1097 l 204 1097 "},"©":{"ha":825,"x_min":0,"x_max":0,"o":"m 414 1111 b 779 844 710 1111 779 1079 l 779 253 b 413 -14 779 18 713 -14 b 50 253 114 -14 50 18 l 50 844 b 414 1111 50 1079 118 1111 m 411 1014 b 165 844 196 1014 165 982 l 165 254 b 415 85 165 115 192 85 b 663 254 633 85 663 114 l 663 844 b 411 1014 663 979 635 1014 m 458 628 l 458 711 b 418 749 458 740 449 749 b 376 711 386 749 376 740 l 376 403 b 418 364 376 372 383 364 b 458 403 451 364 458 372 l 458 535 l 540 535 l 540 393 b 419 276 540 288 514 276 b 289 393 313 276 289 290 l 289 722 b 414 836 289 822 313 836 b 540 722 519 836 540 821 l 540 628 "},"ª":{"ha":374,"x_min":0,"x_max":0,"o":"m 181 540 b 56 633 78 540 56 551 l 56 743 b 142 826 56 801 81 826 l 157 826 b 218 821 196 826 210 825 l 218 907 b 182 942 218 936 211 942 b 144 907 150 942 144 935 l 144 858 l 56 858 l 56 917 b 185 1018 56 1007 78 1018 b 314 917 290 1018 314 1007 l 314 549 b 181 540 290 544 244 540 m 181 615 b 218 617 201 615 213 615 l 218 754 b 182 758 210 757 197 758 b 144 724 149 758 144 751 l 144 653 b 181 615 144 622 149 615 "},"«":{"ha":525,"x_min":0,"x_max":0,"o":"m 32 415 l 190 832 l 279 832 l 143 415 l 279 0 l 190 0 m 242 415 l 400 832 l 489 832 l 353 415 l 489 0 l 400 0 "},"¬":{"ha":685,"x_min":0,"x_max":0,"o":"m 503 31 l 503 501 l 61 501 l 61 626 l 628 626 l 628 31 "},"®":{"ha":825,"x_min":0,"x_max":0,"o":"m 414 1111 b 779 844 710 1111 779 1079 l 779 253 b 413 -14 779 18 713 -14 b 50 253 114 -14 50 18 l 50 844 b 414 1111 50 1079 118 1111 m 411 1014 b 165 844 196 1014 165 982 l 165 254 b 415 85 165 115 192 85 b 663 254 633 85 663 114 l 663 844 b 411 1014 663 979 635 1014 m 460 265 l 460 471 b 431 525 460 519 454 525 l 372 525 l 372 265 l 276 265 l 276 864 l 415 864 b 557 726 533 864 557 846 l 557 649 b 501 568 557 588 524 574 l 501 563 b 557 463 536 556 557 532 l 557 265 m 372 603 l 431 603 b 460 640 456 603 460 614 l 460 726 b 419 776 460 769 454 776 l 372 776 "},"¯":{"ha":532,"x_min":0,"x_max":0,"o":"m 469 983 l 64 983 l 64 1068 l 469 1068 "},"°":{"ha":467,"x_min":0,"x_max":0,"o":"m 438 894 b 235 681 438 776 349 681 b 31 894 119 681 31 776 b 235 1111 31 1014 121 1111 b 438 894 347 1111 438 1014 m 361 894 b 235 1031 361 969 304 1031 b 106 894 164 1031 106 969 b 235 760 106 821 163 760 b 361 894 306 760 361 821 "},"±":{"ha":685,"x_min":0,"x_max":0,"o":"m 281 492 l 61 492 l 61 618 l 281 618 l 281 836 l 406 836 l 406 618 l 626 618 l 626 492 l 406 492 l 406 272 l 281 272 m 61 -3 l 61 124 l 626 124 l 626 -3 "},"²":{"ha":429,"x_min":0,"x_max":0,"o":"m 61 492 l 61 703 b 139 831 61 779 72 797 l 219 871 b 256 918 247 885 256 896 l 256 976 b 217 1017 256 1011 249 1017 b 171 975 178 1017 171 1008 l 171 896 l 64 896 l 64 975 b 215 1106 64 1090 90 1106 b 367 976 342 1106 367 1090 l 367 915 b 292 799 367 847 351 829 l 206 756 b 171 704 178 742 171 732 l 171 579 l 254 579 l 254 724 l 367 724 l 367 492 "},"³":{"ha":408,"x_min":0,"x_max":0,"o":"m 158 735 l 158 614 b 200 572 158 581 167 572 b 240 614 235 572 240 582 l 240 715 b 200 775 240 761 239 775 l 139 775 l 139 864 l 200 864 b 240 899 236 864 240 872 l 240 975 b 200 1017 240 1011 232 1017 b 158 975 158 1017 158 1007 l 158 900 l 53 900 l 53 975 b 197 1106 53 1090 79 1106 b 351 976 325 1106 351 1088 l 351 903 b 304 818 351 847 329 828 b 351 717 335 808 351 785 l 351 613 b 197 483 351 501 325 483 b 53 614 79 483 53 499 l 53 735 "},"´":{"ha":279,"x_min":0,"x_max":0,"o":"m 107 1118 l 260 1118 l 128 888 l 19 888 "},"¶":{"ha":811,"x_min":0,"x_max":0,"o":"m 322 -212 l 322 444 l 274 444 b 46 668 85 444 46 472 l 46 874 b 274 1097 46 1069 85 1097 l 751 1097 l 751 -212 l 592 -212 l 592 964 l 482 964 l 482 -212 m 206 661 b 274 574 206 588 215 574 l 322 574 l 322 958 l 274 958 b 206 872 215 958 206 943 l 206 661 "},"·":{"ha":265,"x_min":0,"x_max":0,"o":"m 207 458 l 61 458 l 61 642 l 207 642 "},"¸":{"ha":247,"x_min":0,"x_max":0,"o":"m 88 -28 l 229 -28 l 115 -257 l 17 -257 "},"¹":{"ha":274,"x_min":0,"x_max":0,"o":"m 39 1099 l 213 1099 l 213 492 l 103 492 l 103 1013 l 39 1013 "},"º":{"ha":378,"x_min":0,"x_max":0,"o":"m 319 642 b 188 540 319 554 297 540 b 56 642 79 540 56 554 l 56 917 b 188 1018 56 1007 79 1018 b 319 917 297 1018 319 1007 m 226 908 b 190 935 226 931 219 935 b 150 908 157 935 150 929 l 150 650 b 188 622 150 628 157 622 b 226 650 219 622 226 629 "},"»":{"ha":525,"x_min":0,"x_max":0,"o":"m 115 0 l 25 0 l 163 415 l 25 832 l 115 832 l 274 415 m 335 0 l 244 0 l 382 415 l 244 832 l 335 832 l 493 415 "},"¼":{"ha":864,"x_min":0,"x_max":0,"o":"m 638 1097 l 179 0 l 71 0 l 529 1097 m 39 1099 l 213 1099 l 213 492 l 103 492 l 103 1013 l 39 1013 m 818 256 l 818 169 l 778 169 l 778 0 l 665 0 l 665 169 l 492 169 l 492 610 l 592 610 l 592 256 l 665 256 l 665 517 l 778 517 l 778 256 "},"½":{"ha":860,"x_min":0,"x_max":0,"o":"m 492 0 l 492 211 b 569 339 492 288 503 306 l 650 379 b 686 426 678 393 686 404 l 686 485 b 647 525 686 519 679 525 b 601 483 608 525 601 517 l 601 404 l 494 404 l 494 483 b 646 614 494 599 521 614 b 797 485 772 614 797 599 l 797 424 b 722 307 797 356 782 338 l 636 264 b 601 213 608 250 601 240 l 601 88 l 685 88 l 685 232 l 797 232 l 797 0 m 39 1099 l 213 1099 l 213 492 l 103 492 l 103 1013 l 39 1013 m 638 1097 l 179 0 l 71 0 l 529 1097 "},"¾":{"ha":999,"x_min":0,"x_max":0,"o":"m 158 735 l 158 614 b 200 572 158 581 167 572 b 240 614 235 572 240 582 l 240 715 b 200 775 240 761 239 775 l 139 775 l 139 864 l 200 864 b 240 899 236 864 240 872 l 240 975 b 200 1017 240 1011 232 1017 b 158 975 158 1017 158 1007 l 158 900 l 53 900 l 53 975 b 197 1106 53 1090 79 1106 b 351 976 325 1106 351 1088 l 351 903 b 304 818 351 847 329 828 b 351 717 335 808 351 785 l 351 613 b 197 483 351 501 325 483 b 53 614 79 483 53 499 l 53 735 m 772 1097 l 314 0 l 206 0 l 664 1097 m 953 256 l 953 169 l 913 169 l 913 0 l 800 0 l 800 169 l 626 169 l 626 610 l 726 610 l 726 256 l 800 256 l 800 517 l 913 517 l 913 256 "},"¿":{"ha":535,"x_min":0,"x_max":0,"o":"m 204 1097 l 350 1097 l 350 915 l 204 915 m 347 746 b 303 564 347 653 336 618 l 226 443 b 200 328 204 408 200 385 l 200 217 b 268 129 200 143 210 129 b 336 217 329 129 336 144 l 336 356 l 492 356 l 492 217 b 265 -14 492 14 450 -14 b 39 217 81 -14 39 14 l 39 315 b 90 508 39 411 47 440 l 186 661 b 211 753 207 694 211 707 l 211 835 l 347 835 "},"À":{"ha":554,"x_min":0,"x_max":0,"o":"m 343 0 l 343 244 l 208 244 l 208 0 l 53 0 l 53 881 b 272 1111 53 1082 94 1111 b 503 881 458 1111 503 1079 l 503 0 m 275 968 b 208 881 218 968 208 956 l 208 375 l 343 375 l 343 881 b 275 968 343 956 332 968 m 354 1153 l 247 1153 l 114 1383 l 267 1383 "},"Á":{"ha":554,"x_min":0,"x_max":0,"o":"m 343 0 l 343 244 l 208 244 l 208 0 l 53 0 l 53 881 b 272 1111 53 1082 94 1111 b 503 881 458 1111 503 1079 l 503 0 m 275 968 b 208 881 218 968 208 956 l 208 375 l 343 375 l 343 881 b 275 968 343 956 332 968 m 285 1383 l 438 1383 l 306 1153 l 197 1153 "},"Â":{"ha":554,"x_min":0,"x_max":0,"o":"m 343 0 l 343 244 l 208 244 l 208 0 l 53 0 l 53 881 b 272 1111 53 1082 94 1111 b 503 881 458 1111 503 1079 l 503 0 m 275 968 b 208 881 218 968 208 956 l 208 375 l 343 375 l 343 881 b 275 968 343 956 332 968 m 479 1153 l 379 1153 l 278 1304 l 176 1153 l 76 1153 l 218 1383 l 339 1383 "},"Ã":{"ha":554,"x_min":0,"x_max":0,"o":"m 343 0 l 343 244 l 208 244 l 208 0 l 53 0 l 53 881 b 272 1111 53 1082 94 1111 b 503 881 458 1111 503 1079 l 503 0 m 275 968 b 208 881 218 968 208 956 l 208 375 l 343 375 l 343 881 b 275 968 343 956 332 968 m 171 1269 b 75 1219 121 1269 94 1249 l 75 1321 b 172 1357 96 1340 129 1357 b 383 1314 243 1357 310 1314 b 481 1364 431 1314 460 1332 l 481 1264 b 382 1224 460 1240 426 1224 b 171 1269 307 1224 244 1269 "},"Ä":{"ha":554,"x_min":0,"x_max":0,"o":"m 343 0 l 343 244 l 208 244 l 208 0 l 53 0 l 53 881 b 272 1111 53 1082 94 1111 b 503 881 458 1111 503 1079 l 503 0 m 275 968 b 208 881 218 968 208 956 l 208 375 l 343 375 l 343 881 b 275 968 343 956 332 968 m 475 1218 l 333 1218 l 333 1363 l 475 1363 m 224 1218 l 83 1218 l 83 1363 l 224 1363 "},"Å":{"ha":554,"x_min":0,"x_max":0,"o":"m 343 0 l 343 244 l 208 244 l 208 0 l 53 0 l 53 881 b 272 1111 53 1082 94 1111 b 503 881 458 1111 503 1079 l 503 0 m 275 968 b 208 881 218 968 208 956 l 208 375 l 343 375 l 343 881 b 275 968 343 956 332 968 m 389 1233 b 275 1139 389 1150 368 1139 b 163 1233 183 1139 163 1150 l 163 1289 b 275 1383 163 1372 183 1383 b 389 1289 368 1383 389 1372 m 331 1283 b 275 1324 331 1319 321 1324 b 221 1283 231 1324 221 1319 l 221 1239 b 275 1199 221 1203 231 1199 b 331 1239 321 1199 331 1203 "},"Æ":{"ha":675,"x_min":0,"x_max":0,"o":"m 308 0 l 308 244 l 208 244 l 208 0 l 53 0 l 53 874 b 276 1097 53 1078 94 1097 l 613 1097 l 613 964 l 464 964 l 464 806 l 608 806 l 608 678 l 464 678 l 464 136 l 614 136 l 614 0 m 208 375 l 308 375 l 308 964 l 275 964 b 208 879 218 964 208 954 "},"Ç":{"ha":547,"x_min":0,"x_max":0,"o":"m 344 632 l 344 881 b 278 968 344 954 335 968 b 210 881 219 968 210 953 l 210 218 b 278 128 210 142 219 128 b 344 218 335 128 344 142 l 344 472 l 499 472 l 499 218 b 278 -14 499 13 457 -14 b 50 218 89 -14 50 15 l 50 881 b 278 1111 50 1082 96 1111 b 499 881 457 1111 499 1083 l 499 632 m 199 -28 l 340 -28 l 226 -257 l 128 -257 "},"È":{"ha":407,"x_min":0,"x_max":0,"o":"m 375 0 l 61 0 l 61 1097 l 374 1097 l 374 965 l 221 965 l 221 806 l 369 806 l 369 679 l 221 679 l 221 138 l 375 138 m 296 1153 l 189 1153 l 56 1383 l 208 1383 "},"Ѐ":{"ha":407,"x_min":0,"x_max":0,"o":"m 375 138 l 221 138 l 221 679 l 369 679 l 369 806 l 221 806 l 221 965 l 374 965 l 374 1097 l 61 1097 l 61 0 l 375 0 m 208 1383 l 56 1383 l 189 1153 l 296 1153 "},"É":{"ha":407,"x_min":0,"x_max":0,"o":"m 375 0 l 61 0 l 61 1097 l 374 1097 l 374 965 l 221 965 l 221 806 l 369 806 l 369 679 l 221 679 l 221 138 l 375 138 m 226 1383 l 379 1383 l 247 1153 l 139 1153 "},"Ê":{"ha":407,"x_min":0,"x_max":0,"o":"m 375 0 l 61 0 l 61 1097 l 374 1097 l 374 965 l 221 965 l 221 806 l 369 806 l 369 679 l 221 679 l 221 138 l 375 138 m 419 1153 l 319 1153 l 218 1304 l 117 1153 l 17 1153 l 158 1383 l 279 1383 "},"Ë":{"ha":407,"x_min":0,"x_max":0,"o":"m 375 0 l 61 0 l 61 1097 l 374 1097 l 374 965 l 221 965 l 221 806 l 369 806 l 369 679 l 221 679 l 221 138 l 375 138 m 415 1218 l 274 1218 l 274 1363 l 415 1363 m 164 1218 l 24 1218 l 24 1363 l 164 1363 "},"Ё":{"ha":407,"x_min":0,"x_max":0,"o":"m 375 138 l 221 138 l 221 679 l 369 679 l 369 806 l 221 806 l 221 965 l 374 965 l 374 1097 l 61 1097 l 61 0 l 375 0 m 415 1363 l 274 1363 l 274 1218 l 415 1218 m 164 1363 l 24 1363 l 24 1218 l 164 1218 "},"Ì":{"ha":285,"x_min":0,"x_max":0,"o":"m 224 0 l 64 0 l 64 1097 l 224 1097 m 221 1153 l 114 1153 l -19 1383 l 133 1383 "},"Í":{"ha":285,"x_min":0,"x_max":0,"o":"m 224 0 l 64 0 l 64 1097 l 224 1097 m 151 1383 l 304 1383 l 172 1153 l 64 1153 "},"Î":{"ha":285,"x_min":0,"x_max":0,"o":"m 224 0 l 64 0 l 64 1097 l 224 1097 m 346 1153 l 246 1153 l 144 1304 l 43 1153 l -57 1153 l 85 1383 l 206 1383 "},"Ï":{"ha":285,"x_min":0,"x_max":0,"o":"m 224 0 l 64 0 l 64 1097 l 224 1097 m 342 1218 l 200 1218 l 200 1363 l 342 1363 m 90 1218 l -50 1218 l -50 1363 l 90 1363 "},"Ϊ":{"ha":285,"x_min":0,"x_max":0,"o":"m 224 1097 l 64 1097 l 64 0 l 224 0 m 342 1363 l 200 1363 l 200 1218 l 342 1218 m 90 1363 l -50 1363 l -50 1218 l 90 1218 "},"Ї":{"ha":285,"x_min":0,"x_max":0,"o":"m 224 0 l 64 0 l 64 1097 l 224 1097 m 342 1218 l 200 1218 l 200 1363 l 342 1363 m 90 1218 l -50 1218 l -50 1363 l 90 1363 "},"Ð":{"ha":594,"x_min":0,"x_max":0,"o":"m 53 806 l 90 806 l 90 1097 l 319 1097 b 547 874 508 1097 547 1069 l 547 225 b 319 0 547 29 508 0 l 90 0 l 90 679 l 53 679 m 246 806 l 321 806 l 321 679 l 246 679 l 246 139 l 324 139 b 393 225 382 139 393 151 l 393 874 b 324 960 393 946 382 960 l 246 960 "},"Đ":{"ha":594,"x_min":0,"x_max":0,"o":"m 53 679 l 90 679 l 90 0 l 319 0 b 547 225 508 0 547 29 l 547 874 b 319 1097 547 1069 508 1097 l 90 1097 l 90 806 l 53 806 m 246 960 l 324 960 b 393 874 382 960 393 946 l 393 225 b 324 139 393 151 382 139 l 246 139 l 246 679 l 321 679 l 321 806 l 246 806 "},"Ñ":{"ha":600,"x_min":0,"x_max":0,"o":"m 369 0 l 204 685 l 199 685 l 199 0 l 61 0 l 61 1097 l 238 1097 l 396 393 l 401 393 l 401 1097 l 540 1097 l 540 0 m 193 1269 b 97 1219 143 1269 117 1249 l 97 1321 b 194 1357 118 1340 151 1357 b 406 1314 265 1357 332 1314 b 503 1364 453 1314 482 1332 l 503 1264 b 404 1224 482 1240 449 1224 b 193 1269 329 1224 267 1269 "},"Ò":{"ha":554,"x_min":0,"x_max":0,"o":"m 507 218 b 278 -14 507 14 467 -14 b 50 218 89 -14 50 14 l 50 881 b 278 1111 50 1083 89 1111 b 507 881 467 1111 507 1083 m 346 881 b 279 968 346 954 336 968 b 210 881 219 968 210 953 l 210 218 b 276 128 210 142 219 128 b 346 218 338 128 346 144 m 356 1153 l 249 1153 l 115 1383 l 268 1383 "},"Ó":{"ha":554,"x_min":0,"x_max":0,"o":"m 507 218 b 278 -14 507 14 467 -14 b 50 218 89 -14 50 14 l 50 881 b 278 1111 50 1083 89 1111 b 507 881 467 1111 507 1083 m 346 881 b 279 968 346 954 336 968 b 210 881 219 968 210 953 l 210 218 b 276 128 210 142 219 128 b 346 218 338 128 346 144 m 286 1383 l 439 1383 l 307 1153 l 199 1153 "},"Ô":{"ha":554,"x_min":0,"x_max":0,"o":"m 507 218 b 278 -14 507 14 467 -14 b 50 218 89 -14 50 14 l 50 881 b 278 1111 50 1083 89 1111 b 507 881 467 1111 507 1083 m 346 881 b 279 968 346 954 336 968 b 210 881 219 968 210 953 l 210 218 b 276 128 210 142 219 128 b 346 218 338 128 346 144 m 479 1153 l 379 1153 l 278 1304 l 176 1153 l 76 1153 l 218 1383 l 339 1383 "},"Õ":{"ha":554,"x_min":0,"x_max":0,"o":"m 507 218 b 278 -14 507 14 467 -14 b 50 218 89 -14 50 14 l 50 881 b 278 1111 50 1083 89 1111 b 507 881 467 1111 507 1083 m 346 881 b 279 968 346 954 336 968 b 210 881 219 968 210 953 l 210 218 b 276 128 210 142 219 128 b 346 218 338 128 346 144 m 171 1269 b 75 1219 121 1269 94 1249 l 75 1321 b 172 1357 96 1340 129 1357 b 383 1314 243 1357 310 1314 b 481 1364 431 1314 460 1332 l 481 1264 b 382 1224 460 1240 426 1224 b 171 1269 307 1224 244 1269 "},"Ö":{"ha":554,"x_min":0,"x_max":0,"o":"m 507 218 b 278 -14 507 14 467 -14 b 50 218 89 -14 50 14 l 50 881 b 278 1111 50 1083 89 1111 b 507 881 467 1111 507 1083 m 346 881 b 279 968 346 954 336 968 b 210 881 219 968 210 953 l 210 218 b 276 128 210 142 219 128 b 346 218 338 128 346 144 m 475 1218 l 333 1218 l 333 1363 l 475 1363 m 224 1218 l 83 1218 l 83 1363 l 224 1363 "},"×":{"ha":665,"x_min":0,"x_max":0,"o":"m 336 467 l 179 310 l 90 399 l 247 556 l 92 710 l 179 799 l 336 643 l 490 799 l 579 710 l 424 556 l 579 399 l 490 310 "},"Ø":{"ha":554,"x_min":0,"x_max":0,"o":"m 507 218 b 286 -14 507 17 467 -14 b 171 -7 232 -14 200 -11 l 147 -96 l 50 -96 l 86 33 b 50 218 58 67 50 124 l 50 881 b 278 1111 50 1083 89 1111 b 385 1106 321 1111 356 1110 l 410 1194 l 507 1194 l 471 1064 b 507 881 499 1031 507 974 m 210 476 l 339 942 b 279 968 331 963 314 968 b 210 881 219 968 210 951 m 346 617 l 217 153 b 275 128 225 132 243 128 b 346 218 338 128 346 143 "},"Ù":{"ha":560,"x_min":0,"x_max":0,"o":"m 282 -14 b 56 218 99 -14 56 14 l 56 1097 l 215 1097 l 215 218 b 283 129 215 142 226 129 b 351 218 340 129 351 142 l 351 1097 l 507 1097 l 507 218 b 282 -14 507 14 465 -14 m 358 1153 l 251 1153 l 118 1383 l 271 1383 "},"Ú":{"ha":560,"x_min":0,"x_max":0,"o":"m 282 -14 b 56 218 99 -14 56 14 l 56 1097 l 215 1097 l 215 218 b 283 129 215 142 226 129 b 351 218 340 129 351 142 l 351 1097 l 507 1097 l 507 218 b 282 -14 507 14 465 -14 m 289 1383 l 442 1383 l 310 1153 l 201 1153 "},"Û":{"ha":560,"x_min":0,"x_max":0,"o":"m 282 -14 b 56 218 99 -14 56 14 l 56 1097 l 215 1097 l 215 218 b 283 129 215 142 226 129 b 351 218 340 129 351 142 l 351 1097 l 507 1097 l 507 218 b 282 -14 507 14 465 -14 m 482 1153 l 382 1153 l 281 1304 l 179 1153 l 79 1153 l 221 1383 l 342 1383 "},"Ü":{"ha":560,"x_min":0,"x_max":0,"o":"m 282 -14 b 56 218 99 -14 56 14 l 56 1097 l 215 1097 l 215 218 b 283 129 215 142 226 129 b 351 218 340 129 351 142 l 351 1097 l 507 1097 l 507 218 b 282 -14 507 14 465 -14 m 478 1218 l 336 1218 l 336 1363 l 478 1363 m 226 1218 l 86 1218 l 86 1363 l 226 1363 "},"Ý":{"ha":489,"x_min":0,"x_max":0,"o":"m 486 1097 l 322 388 l 322 0 l 163 0 l 163 388 l 4 1097 l 163 1097 l 242 601 l 247 601 l 331 1097 m 253 1383 l 406 1383 l 274 1153 l 165 1153 "},"Þ":{"ha":549,"x_min":0,"x_max":0,"o":"m 61 1097 l 221 1097 l 221 938 l 289 938 b 518 714 478 938 518 910 l 518 479 b 289 256 518 283 478 256 l 221 256 l 221 0 l 61 0 m 221 799 l 221 385 l 289 385 b 357 474 347 385 357 396 l 357 714 b 289 799 357 789 346 799 "},"ß":{"ha":546,"x_min":0,"x_max":0,"o":"m 486 747 b 396 597 486 632 440 608 l 396 592 b 501 421 456 579 501 547 l 501 215 b 301 0 501 39 465 0 l 229 0 l 229 142 l 283 142 b 346 215 328 142 346 158 l 346 449 b 275 524 346 510 331 524 l 224 524 l 224 665 l 264 665 b 331 733 319 665 331 685 l 331 922 b 264 992 331 978 321 992 b 194 922 206 992 194 978 l 194 0 l 53 0 l 53 929 b 268 1111 53 1078 118 1111 b 486 929 422 1111 486 1076 "},"à":{"ha":490,"x_min":0,"x_max":0,"o":"m 239 -14 b 50 147 83 -14 50 3 l 50 349 b 176 493 50 449 85 493 l 203 493 b 299 481 265 493 286 488 l 299 653 b 240 725 299 713 289 725 b 179 653 186 725 179 710 l 179 571 l 50 571 l 50 669 b 238 846 50 826 83 846 b 436 669 401 846 436 824 l 436 0 b 239 -14 403 -8 329 -14 m 247 103 b 299 106 272 103 293 104 l 299 378 b 246 386 286 385 267 386 b 179 313 183 386 179 374 l 179 182 b 247 103 179 113 183 103 m 324 888 l 217 888 l 83 1118 l 236 1118 "},"á":{"ha":490,"x_min":0,"x_max":0,"o":"m 239 -14 b 50 147 83 -14 50 3 l 50 349 b 176 493 50 449 85 493 l 203 493 b 299 481 265 493 286 488 l 299 653 b 240 725 299 713 289 725 b 179 653 186 725 179 710 l 179 571 l 50 571 l 50 669 b 238 846 50 826 83 846 b 436 669 401 846 436 824 l 436 0 b 239 -14 403 -8 329 -14 m 247 103 b 299 106 272 103 293 104 l 299 378 b 246 386 286 385 267 386 b 179 313 183 386 179 374 l 179 182 b 247 103 179 113 183 103 m 254 1118 l 407 1118 l 275 888 l 167 888 "},"â":{"ha":490,"x_min":0,"x_max":0,"o":"m 239 -14 b 50 147 83 -14 50 3 l 50 349 b 176 493 50 449 85 493 l 203 493 b 299 481 265 493 286 488 l 299 653 b 240 725 299 713 289 725 b 179 653 186 725 179 710 l 179 571 l 50 571 l 50 669 b 238 846 50 826 83 846 b 436 669 401 846 436 824 l 436 0 b 239 -14 403 -8 329 -14 m 247 103 b 299 106 272 103 293 104 l 299 378 b 246 386 286 385 267 386 b 179 313 183 386 179 374 l 179 182 b 247 103 179 113 183 103 m 447 888 l 347 888 l 246 1039 l 144 888 l 44 888 l 186 1118 l 307 1118 "},"ã":{"ha":490,"x_min":0,"x_max":0,"o":"m 239 -14 b 50 147 83 -14 50 3 l 50 349 b 176 493 50 449 85 493 l 203 493 b 299 481 265 493 286 488 l 299 653 b 240 725 299 713 289 725 b 179 653 186 725 179 710 l 179 571 l 50 571 l 50 669 b 238 846 50 826 83 846 b 436 669 401 846 436 824 l 436 0 b 239 -14 403 -8 329 -14 m 247 103 b 299 106 272 103 293 104 l 299 378 b 246 386 286 385 267 386 b 179 313 183 386 179 374 l 179 182 b 247 103 179 113 183 103 m 140 1004 b 44 954 90 1004 64 983 l 44 1056 b 142 1092 65 1075 99 1092 b 353 1049 213 1092 279 1049 b 450 1099 400 1049 429 1067 l 450 999 b 351 958 429 975 396 958 b 140 1004 276 958 214 1004 "},"ä":{"ha":490,"x_min":0,"x_max":0,"o":"m 239 -14 b 50 147 83 -14 50 3 l 50 349 b 176 493 50 449 85 493 l 203 493 b 299 481 265 493 286 488 l 299 653 b 240 725 299 713 289 725 b 179 653 186 725 179 710 l 179 571 l 50 571 l 50 669 b 238 846 50 826 83 846 b 436 669 401 846 436 824 l 436 0 b 239 -14 403 -8 329 -14 m 247 103 b 299 106 272 103 293 104 l 299 378 b 246 386 286 385 267 386 b 179 313 183 386 179 374 l 179 182 b 247 103 179 113 183 103 m 444 953 l 303 953 l 303 1097 l 444 1097 m 193 953 l 53 953 l 53 1097 l 193 1097 "},"å":{"ha":490,"x_min":0,"x_max":0,"o":"m 239 -14 b 50 147 83 -14 50 3 l 50 349 b 176 493 50 449 85 493 l 203 493 b 299 481 265 493 286 488 l 299 653 b 240 725 299 713 289 725 b 179 653 186 725 179 710 l 179 571 l 50 571 l 50 669 b 238 846 50 826 83 846 b 436 669 401 846 436 824 l 436 0 b 239 -14 403 -8 329 -14 m 247 103 b 299 106 272 103 293 104 l 299 378 b 246 386 286 385 267 386 b 179 313 183 386 179 374 l 179 182 b 247 103 179 113 183 103 m 357 968 b 243 874 357 885 336 874 b 131 968 151 874 131 885 l 131 1024 b 243 1118 131 1107 151 1118 b 357 1024 336 1118 357 1107 m 299 1018 b 243 1058 299 1054 289 1058 b 189 1018 199 1058 189 1054 l 189 974 b 243 933 189 938 199 933 b 299 974 289 933 299 938 "},"æ":{"ha":736,"x_min":0,"x_max":0,"o":"m 497 -14 b 365 28 421 -11 383 4 b 215 -14 338 -4 297 -14 b 50 147 83 -14 50 11 l 50 349 b 176 493 50 449 85 493 l 203 493 b 299 481 265 493 286 488 l 299 653 b 240 725 299 713 289 725 b 179 653 186 725 179 710 l 179 571 l 50 571 l 50 669 b 221 846 50 818 83 846 b 367 803 303 846 338 836 b 514 846 396 835 426 846 b 685 669 651 846 685 818 l 685 367 l 436 367 l 436 167 b 499 107 436 124 444 107 b 556 171 549 107 556 121 l 556 283 l 685 283 l 685 163 b 497 -14 685 7 651 -14 m 299 378 b 246 386 286 385 267 386 b 179 313 183 386 179 374 l 179 182 b 238 103 179 118 183 103 b 299 163 290 103 299 118 m 436 479 l 556 479 l 556 658 b 496 721 556 710 546 721 b 436 658 444 721 436 710 "},"ç":{"ha":482,"x_min":0,"x_max":0,"o":"m 307 524 l 307 654 b 249 713 307 703 297 713 b 188 654 194 713 188 701 l 188 176 b 246 117 188 129 197 117 b 307 176 297 117 307 131 l 307 392 l 436 392 l 436 163 b 249 -14 436 6 397 -14 b 50 163 83 -14 50 10 l 50 669 b 242 846 50 822 86 846 b 436 669 407 846 436 819 l 436 524 m 169 -28 l 311 -28 l 197 -257 l 99 -257 "},"è":{"ha":485,"x_min":0,"x_max":0,"o":"m 189 367 l 189 171 b 249 107 189 118 197 107 b 308 171 299 107 308 118 l 308 283 l 436 283 l 436 163 b 247 -14 436 6 401 -14 b 50 163 83 -14 50 8 l 50 669 b 247 846 50 824 83 846 b 436 669 401 846 436 826 l 436 367 m 189 481 l 308 481 l 308 658 b 249 721 308 711 299 721 b 189 658 197 721 189 711 m 321 888 l 214 888 l 81 1118 l 233 1118 "},"ѐ":{"ha":485,"x_min":0,"x_max":0,"o":"m 436 367 l 436 669 b 247 846 436 826 401 846 b 50 669 83 846 50 824 l 50 163 b 247 -14 50 8 83 -14 b 436 163 401 -14 436 6 l 436 283 l 308 283 l 308 171 b 249 107 308 118 299 107 b 189 171 197 107 189 118 l 189 367 m 189 658 b 249 721 189 711 197 721 b 308 658 299 721 308 711 l 308 481 l 189 481 m 233 1118 l 81 1118 l 214 888 l 321 888 "},"é":{"ha":485,"x_min":0,"x_max":0,"o":"m 189 367 l 189 171 b 249 107 189 118 197 107 b 308 171 299 107 308 118 l 308 283 l 436 283 l 436 163 b 247 -14 436 6 401 -14 b 50 163 83 -14 50 8 l 50 669 b 247 846 50 824 83 846 b 436 669 401 846 436 826 l 436 367 m 189 481 l 308 481 l 308 658 b 249 721 308 711 299 721 b 189 658 197 721 189 711 m 251 1118 l 404 1118 l 272 888 l 164 888 "},"ê":{"ha":485,"x_min":0,"x_max":0,"o":"m 189 367 l 189 171 b 249 107 189 118 197 107 b 308 171 299 107 308 118 l 308 283 l 436 283 l 436 163 b 247 -14 436 6 401 -14 b 50 163 83 -14 50 8 l 50 669 b 247 846 50 824 83 846 b 436 669 401 846 436 826 l 436 367 m 189 481 l 308 481 l 308 658 b 249 721 308 711 299 721 b 189 658 197 721 189 711 m 444 888 l 344 888 l 243 1039 l 142 888 l 42 888 l 183 1118 l 304 1118 "},"ë":{"ha":485,"x_min":0,"x_max":0,"o":"m 189 367 l 189 171 b 249 107 189 118 197 107 b 308 171 299 107 308 118 l 308 283 l 436 283 l 436 163 b 247 -14 436 6 401 -14 b 50 163 83 -14 50 8 l 50 669 b 247 846 50 824 83 846 b 436 669 401 846 436 826 l 436 367 m 189 481 l 308 481 l 308 658 b 249 721 308 711 299 721 b 189 658 197 721 189 711 m 442 953 l 300 953 l 300 1097 l 442 1097 m 190 953 l 50 953 l 50 1097 l 190 1097 "},"ё":{"ha":485,"x_min":0,"x_max":0,"o":"m 436 367 l 436 669 b 247 846 436 826 401 846 b 50 669 83 846 50 824 l 50 163 b 247 -14 50 8 83 -14 b 436 163 401 -14 436 6 l 436 283 l 308 283 l 308 171 b 249 107 308 118 299 107 b 189 171 197 107 189 118 l 189 367 m 189 658 b 249 721 189 711 197 721 b 308 658 299 721 308 711 l 308 481 l 189 481 m 442 1097 l 300 1097 l 300 953 l 442 953 m 190 1097 l 50 1097 l 50 953 l 190 953 "},"ì":{"ha":285,"x_min":0,"x_max":0,"o":"m 231 888 l 124 888 l -10 1118 l 143 1118 m 224 0 l 83 0 l 83 832 l 224 832 "},"í":{"ha":296,"x_min":0,"x_max":0,"o":"m 142 1118 l 294 1118 l 163 888 l 54 888 m 204 0 l 64 0 l 64 832 l 204 832 "},"î":{"ha":354,"x_min":0,"x_max":0,"o":"m 247 0 l 107 0 l 107 832 l 247 832 m 379 888 l 279 888 l 178 1039 l 76 888 l -24 888 l 118 1118 l 239 1118 "},"ï":{"ha":376,"x_min":0,"x_max":0,"o":"m 386 953 l 244 953 l 244 1097 l 386 1097 m 135 953 l -6 953 l -6 1097 l 135 1097 m 258 0 l 118 0 l 118 832 l 258 832 "},"ї":{"ha":376,"x_min":0,"x_max":0,"o":"m 386 1097 l 244 1097 l 244 953 l 386 953 m 135 1097 l -6 1097 l -6 953 l 135 953 m 258 832 l 118 832 l 118 0 l 258 0 "},"ð":{"ha":497,"x_min":0,"x_max":0,"o":"m 58 865 l 157 919 l 56 1097 l 211 1097 l 274 985 l 368 1038 l 403 972 l 310 921 l 360 833 b 449 532 439 694 449 638 l 449 163 b 250 -14 449 7 414 -14 b 51 163 86 -14 51 7 l 51 581 b 167 740 51 694 78 740 b 283 690 213 740 240 728 b 236 782 275 711 269 724 l 194 856 l 93 799 m 242 635 b 190 540 190 635 190 604 l 190 217 b 247 117 190 136 190 117 b 311 215 303 117 311 135 l 311 561 b 242 635 299 608 289 635 "},"ñ":{"ha":525,"x_min":0,"x_max":0,"o":"m 203 0 l 61 0 l 61 832 l 193 832 l 193 776 b 329 839 215 818 253 839 b 471 669 436 839 471 797 l 471 0 l 329 0 l 329 654 b 274 711 329 696 315 711 b 203 668 228 711 214 693 m 157 1004 b 61 954 107 1004 81 983 l 61 1056 b 158 1092 82 1075 115 1092 b 369 1049 229 1092 296 1049 b 467 1099 417 1049 446 1067 l 467 999 b 368 958 446 975 413 958 b 157 1004 293 958 231 1004 "},"ò":{"ha":497,"x_min":0,"x_max":0,"o":"m 447 163 b 249 -14 447 7 411 -14 b 50 163 85 -14 50 7 l 50 669 b 249 846 50 825 85 846 b 447 669 411 846 447 825 m 310 654 b 251 713 310 703 300 713 b 188 654 199 713 188 701 l 188 176 b 249 117 188 129 197 117 b 310 176 301 117 310 131 m 326 888 l 219 888 l 86 1118 l 239 1118 "},"ó":{"ha":497,"x_min":0,"x_max":0,"o":"m 447 163 b 249 -14 447 7 411 -14 b 50 163 85 -14 50 7 l 50 669 b 249 846 50 825 85 846 b 447 669 411 846 447 825 m 310 654 b 251 713 310 703 300 713 b 188 654 199 713 188 701 l 188 176 b 249 117 188 129 197 117 b 310 176 301 117 310 131 m 257 1118 l 410 1118 l 278 888 l 169 888 "},"ô":{"ha":497,"x_min":0,"x_max":0,"o":"m 447 163 b 249 -14 447 7 411 -14 b 50 163 85 -14 50 7 l 50 669 b 249 846 50 825 85 846 b 447 669 411 846 447 825 m 310 654 b 251 713 310 703 300 713 b 188 654 199 713 188 701 l 188 176 b 249 117 188 129 197 117 b 310 176 301 117 310 131 m 450 888 l 350 888 l 249 1039 l 147 888 l 47 888 l 189 1118 l 310 1118 "},"õ":{"ha":497,"x_min":0,"x_max":0,"o":"m 447 163 b 249 -14 447 7 411 -14 b 50 163 85 -14 50 7 l 50 669 b 249 846 50 825 85 846 b 447 669 411 846 447 825 m 310 654 b 251 713 310 703 300 713 b 188 654 199 713 188 701 l 188 176 b 249 117 188 129 197 117 b 310 176 301 117 310 131 m 142 1004 b 46 954 92 1004 65 983 l 46 1056 b 143 1092 67 1075 100 1092 b 354 1049 214 1092 281 1049 b 451 1099 401 1049 431 1067 l 451 999 b 353 958 431 975 397 958 b 142 1004 278 958 215 1004 "},"ö":{"ha":497,"x_min":0,"x_max":0,"o":"m 447 163 b 249 -14 447 7 411 -14 b 50 163 85 -14 50 7 l 50 669 b 249 846 50 825 85 846 b 447 669 411 846 447 825 m 310 654 b 251 713 310 703 300 713 b 188 654 199 713 188 701 l 188 176 b 249 117 188 129 197 117 b 310 176 301 117 310 131 m 446 953 l 304 953 l 304 1097 l 446 1097 m 194 953 l 54 953 l 54 1097 l 194 1097 "},"÷":{"ha":685,"x_min":0,"x_max":0,"o":"m 61 492 l 61 618 l 626 618 l 626 492 m 417 756 l 271 756 l 271 939 l 417 939 m 417 174 l 271 174 l 271 357 l 417 357 "},"ø":{"ha":497,"x_min":0,"x_max":0,"o":"m 447 163 b 272 -14 447 10 411 -14 b 174 -11 239 -14 176 -12 l 149 -96 l 50 -96 l 83 19 b 50 163 57 44 50 88 l 50 669 b 240 846 50 824 85 846 b 324 843 279 846 301 844 l 349 928 l 447 928 l 413 811 b 447 669 439 786 447 743 m 310 456 l 211 119 b 249 117 221 117 232 117 b 310 176 301 117 310 132 m 188 375 l 285 708 b 247 713 275 711 264 713 b 188 654 197 713 188 700 "},"ù":{"ha":522,"x_min":0,"x_max":0,"o":"m 319 832 l 463 832 l 463 0 l 329 0 l 329 54 b 196 -7 307 13 271 -7 b 56 163 89 -7 56 33 l 56 832 l 197 832 l 197 176 b 251 119 197 138 208 119 b 319 163 293 119 308 136 m 339 888 l 232 888 l 99 1118 l 251 1118 "},"ú":{"ha":522,"x_min":0,"x_max":0,"o":"m 319 832 l 463 832 l 463 0 l 329 0 l 329 54 b 196 -7 307 13 271 -7 b 56 163 89 -7 56 33 l 56 832 l 197 832 l 197 176 b 251 119 197 138 208 119 b 319 163 293 119 308 136 m 269 1118 l 422 1118 l 290 888 l 182 888 "},"û":{"ha":522,"x_min":0,"x_max":0,"o":"m 319 832 l 463 832 l 463 0 l 329 0 l 329 54 b 196 -7 307 13 271 -7 b 56 163 89 -7 56 33 l 56 832 l 197 832 l 197 176 b 251 119 197 138 208 119 b 319 163 293 119 308 136 m 463 888 l 363 888 l 261 1039 l 160 888 l 60 888 l 201 1118 l 322 1118 "},"ü":{"ha":522,"x_min":0,"x_max":0,"o":"m 319 832 l 463 832 l 463 0 l 329 0 l 329 54 b 196 -7 307 13 271 -7 b 56 163 89 -7 56 33 l 56 832 l 197 832 l 197 176 b 251 119 197 138 208 119 b 319 163 293 119 308 136 m 458 953 l 317 953 l 317 1097 l 458 1097 m 207 953 l 67 953 l 67 1097 l 207 1097 "},"ý":{"ha":525,"x_min":0,"x_max":0,"o":"m 324 832 l 465 832 l 465 -14 b 271 -212 465 -149 411 -212 l 85 -212 l 85 -93 l 236 -93 b 321 -14 299 -93 321 -76 l 321 93 b 193 36 296 51 257 36 b 56 206 89 36 56 76 l 56 832 l 197 832 l 197 232 b 257 163 197 179 214 163 b 324 206 293 163 308 175 m 271 1118 l 424 1118 l 292 888 l 183 888 "},"þ":{"ha":508,"x_min":0,"x_max":0,"o":"m 458 163 b 329 -7 458 33 433 -7 b 203 50 268 -7 228 7 l 203 -212 l 61 -212 l 61 1097 l 203 1097 l 203 781 b 329 839 228 822 264 839 b 458 669 433 839 458 796 m 199 163 b 267 119 213 132 231 119 b 321 189 308 119 321 136 l 321 642 b 267 711 321 694 308 711 b 199 668 231 711 213 699 "},"ÿ":{"ha":525,"x_min":0,"x_max":0,"o":"m 324 832 l 465 832 l 465 -14 b 271 -212 465 -149 411 -212 l 85 -212 l 85 -93 l 236 -93 b 321 -14 299 -93 321 -76 l 321 93 b 193 36 296 51 257 36 b 56 206 89 36 56 76 l 56 832 l 197 832 l 197 232 b 257 163 197 179 214 163 b 324 206 293 163 308 175 m 460 953 l 318 953 l 318 1097 l 460 1097 m 208 953 l 68 953 l 68 1097 l 208 1097 "},"Ā":{"ha":554,"x_min":0,"x_max":0,"o":"m 343 0 l 343 244 l 208 244 l 208 0 l 53 0 l 53 881 b 272 1111 53 1082 94 1111 b 503 881 458 1111 503 1079 l 503 0 m 275 968 b 208 881 218 968 208 956 l 208 375 l 343 375 l 343 881 b 275 968 343 956 332 968 m 481 1249 l 75 1249 l 75 1333 l 481 1333 "},"ā":{"ha":490,"x_min":0,"x_max":0,"o":"m 239 -14 b 50 147 83 -14 50 3 l 50 349 b 176 493 50 449 85 493 l 203 493 b 299 481 265 493 286 488 l 299 653 b 240 725 299 713 289 725 b 179 653 186 725 179 710 l 179 571 l 50 571 l 50 669 b 238 846 50 826 83 846 b 436 669 401 846 436 824 l 436 0 b 239 -14 403 -8 329 -14 m 247 103 b 299 106 272 103 293 104 l 299 378 b 246 386 286 385 267 386 b 179 313 183 386 179 374 l 179 182 b 247 103 179 113 183 103 m 450 983 l 44 983 l 44 1068 l 450 1068 "},"Ă":{"ha":554,"x_min":0,"x_max":0,"o":"m 343 0 l 343 244 l 208 244 l 208 0 l 53 0 l 53 881 b 272 1111 53 1082 94 1111 b 503 881 458 1111 503 1079 l 503 0 m 275 968 b 208 881 218 968 208 956 l 208 375 l 343 375 l 343 881 b 275 968 343 956 332 968 m 278 1157 b 74 1383 157 1157 74 1222 l 163 1383 b 278 1240 165 1265 213 1240 b 393 1383 344 1240 389 1265 l 482 1383 b 278 1157 482 1222 399 1157 "},"ă":{"ha":490,"x_min":0,"x_max":0,"o":"m 239 -14 b 50 147 83 -14 50 3 l 50 349 b 176 493 50 449 85 493 l 203 493 b 299 481 265 493 286 488 l 299 653 b 240 725 299 713 289 725 b 179 653 186 725 179 710 l 179 571 l 50 571 l 50 669 b 238 846 50 826 83 846 b 436 669 401 846 436 824 l 436 0 b 239 -14 403 -8 329 -14 m 247 103 b 299 106 272 103 293 104 l 299 378 b 246 386 286 385 267 386 b 179 313 183 386 179 374 l 179 182 b 247 103 179 113 183 103 m 246 892 b 42 1118 125 892 42 957 l 131 1118 b 246 975 133 1000 181 975 b 361 1118 313 975 357 1000 l 450 1118 b 246 892 450 957 367 892 "},"Ą":{"ha":554,"x_min":0,"x_max":0,"o":"m 503 0 b 418 -97 440 -29 418 -53 b 472 -144 418 -132 432 -144 l 522 -144 l 522 -257 l 414 -257 b 296 -143 319 -257 296 -204 b 343 -40 296 -94 310 -64 l 343 244 l 208 244 l 208 0 l 53 0 l 53 881 b 272 1111 53 1082 94 1111 b 503 881 458 1111 503 1079 l 503 0 m 275 968 b 208 881 218 968 208 956 l 208 375 l 343 375 l 343 881 b 275 968 343 956 332 968 "},"ą":{"ha":490,"x_min":0,"x_max":0,"o":"m 228 -14 b 50 147 85 -14 50 6 l 50 349 b 176 493 50 449 85 493 l 203 493 b 299 481 265 493 286 488 l 299 653 b 240 725 299 713 289 725 b 179 653 186 725 179 710 l 179 571 l 50 571 l 50 669 b 238 846 50 826 83 846 b 436 669 401 846 436 824 l 436 0 b 351 -97 374 -29 351 -53 b 406 -144 351 -132 365 -144 l 456 -144 l 456 -257 l 347 -257 b 229 -143 253 -257 229 -204 b 333 -11 229 -74 260 -40 b 228 -14 303 -12 265 -14 m 247 103 b 299 106 272 103 293 104 l 299 378 b 246 386 286 385 267 386 b 179 313 183 386 179 374 l 179 182 b 247 103 179 113 183 103 "},"Ć":{"ha":547,"x_min":0,"x_max":0,"o":"m 344 632 l 344 881 b 278 968 344 954 335 968 b 210 881 219 968 210 953 l 210 218 b 278 128 210 142 219 128 b 344 218 335 128 344 142 l 344 472 l 499 472 l 499 218 b 278 -14 499 13 457 -14 b 50 218 89 -14 50 15 l 50 881 b 278 1111 50 1082 96 1111 b 499 881 457 1111 499 1083 l 499 632 m 282 1383 l 435 1383 l 303 1153 l 194 1153 "},"ć":{"ha":482,"x_min":0,"x_max":0,"o":"m 307 524 l 307 654 b 249 713 307 703 297 713 b 188 654 194 713 188 701 l 188 176 b 246 117 188 129 197 117 b 307 176 297 117 307 131 l 307 392 l 436 392 l 436 163 b 249 -14 436 6 397 -14 b 50 163 83 -14 50 10 l 50 669 b 242 846 50 822 86 846 b 436 669 407 846 436 819 l 436 524 m 250 1118 l 403 1118 l 271 888 l 163 888 "},"Ċ":{"ha":547,"x_min":0,"x_max":0,"o":"m 344 632 l 344 881 b 278 968 344 954 335 968 b 210 881 219 968 210 953 l 210 218 b 278 128 210 142 219 128 b 344 218 335 128 344 142 l 344 472 l 499 472 l 499 218 b 278 -14 499 13 457 -14 b 50 218 89 -14 50 15 l 50 881 b 278 1111 50 1082 96 1111 b 499 881 457 1111 499 1083 l 499 632 m 343 1218 l 203 1218 l 203 1363 l 343 1363 "},"ċ":{"ha":482,"x_min":0,"x_max":0,"o":"m 307 524 l 307 654 b 249 713 307 703 297 713 b 188 654 194 713 188 701 l 188 176 b 246 117 188 129 197 117 b 307 176 297 117 307 131 l 307 392 l 436 392 l 436 163 b 249 -14 436 6 397 -14 b 50 163 83 -14 50 10 l 50 669 b 242 846 50 822 86 846 b 436 669 407 846 436 819 l 436 524 m 313 953 l 172 953 l 172 1097 l 313 1097 "},"Č":{"ha":547,"x_min":0,"x_max":0,"o":"m 344 632 l 344 881 b 278 968 344 954 335 968 b 210 881 219 968 210 953 l 210 218 b 278 128 210 142 219 128 b 344 218 335 128 344 142 l 344 472 l 499 472 l 499 218 b 278 -14 499 13 457 -14 b 50 218 89 -14 50 15 l 50 881 b 278 1111 50 1082 96 1111 b 499 881 457 1111 499 1083 l 499 632 m 72 1383 l 172 1383 l 274 1232 l 375 1383 l 475 1383 l 333 1153 l 214 1153 "},"č":{"ha":482,"x_min":0,"x_max":0,"o":"m 307 524 l 307 654 b 249 713 307 703 297 713 b 188 654 194 713 188 701 l 188 176 b 246 117 188 129 197 117 b 307 176 297 117 307 131 l 307 392 l 436 392 l 436 163 b 249 -14 436 6 397 -14 b 50 163 83 -14 50 10 l 50 669 b 242 846 50 822 86 846 b 436 669 407 846 436 819 l 436 524 m 40 1118 l 140 1118 l 242 967 l 343 1118 l 443 1118 l 301 888 l 182 888 "},"Ď":{"ha":565,"x_min":0,"x_max":0,"o":"m 518 225 b 289 0 518 29 478 0 l 61 0 l 61 1097 l 289 1097 b 518 874 478 1097 518 1069 m 357 874 b 289 958 357 946 347 958 l 221 958 l 221 138 l 289 138 b 357 225 347 138 357 151 m 72 1383 l 172 1383 l 274 1232 l 375 1383 l 475 1383 l 333 1153 l 214 1153 "},"ď":{"ha":671,"x_min":0,"x_max":0,"o":"m 50 669 b 178 839 50 796 75 839 b 304 781 253 839 282 817 l 304 1097 l 447 1097 l 447 0 l 315 0 l 315 60 b 182 -7 290 11 254 -7 b 50 163 75 -7 50 32 m 308 668 b 240 711 294 699 276 711 b 188 642 199 711 188 694 l 188 189 b 240 119 188 136 199 119 b 308 163 276 119 294 132 m 565 1097 l 707 1097 l 593 868 l 494 868 "},"đ":{"ha":508,"x_min":0,"x_max":0,"o":"m 510 956 l 447 956 l 447 0 l 315 0 l 315 60 b 182 -7 290 11 254 -7 b 50 163 75 -7 50 32 l 50 669 b 178 839 50 796 75 839 b 304 781 253 839 282 817 l 304 956 l 104 956 l 104 1040 l 304 1040 l 304 1097 l 447 1097 l 447 1040 l 510 1040 m 308 668 b 240 711 294 699 276 711 b 188 642 199 711 188 694 l 188 189 b 240 119 188 136 199 119 b 308 163 276 119 294 132 "},"Ē":{"ha":407,"x_min":0,"x_max":0,"o":"m 375 0 l 61 0 l 61 1097 l 374 1097 l 374 965 l 221 965 l 221 806 l 369 806 l 369 679 l 221 679 l 221 138 l 375 138 m 421 1249 l 15 1249 l 15 1333 l 421 1333 "},"ē":{"ha":485,"x_min":0,"x_max":0,"o":"m 189 367 l 189 171 b 249 107 189 118 197 107 b 308 171 299 107 308 118 l 308 283 l 436 283 l 436 163 b 247 -14 436 6 401 -14 b 50 163 83 -14 50 8 l 50 669 b 247 846 50 824 83 846 b 436 669 401 846 436 826 l 436 367 m 189 481 l 308 481 l 308 658 b 249 721 308 711 299 721 b 189 658 197 721 189 711 m 447 983 l 42 983 l 42 1068 l 447 1068 "},"Ĕ":{"ha":407,"x_min":0,"x_max":0,"o":"m 375 0 l 61 0 l 61 1097 l 374 1097 l 374 965 l 221 965 l 221 806 l 369 806 l 369 679 l 221 679 l 221 138 l 375 138 m 218 1157 b 14 1383 97 1157 14 1222 l 103 1383 b 218 1240 106 1265 153 1240 b 333 1383 285 1240 329 1265 l 422 1383 b 218 1157 422 1222 339 1157 "},"ĕ":{"ha":485,"x_min":0,"x_max":0,"o":"m 189 367 l 189 171 b 249 107 189 118 197 107 b 308 171 299 107 308 118 l 308 283 l 436 283 l 436 163 b 247 -14 436 6 401 -14 b 50 163 83 -14 50 8 l 50 669 b 247 846 50 824 83 846 b 436 669 401 846 436 826 l 436 367 m 189 481 l 308 481 l 308 658 b 249 721 308 711 299 721 b 189 658 197 721 189 711 m 243 892 b 39 1118 122 892 39 957 l 128 1118 b 243 975 131 1000 178 975 b 358 1118 310 975 354 1000 l 447 1118 b 243 892 447 957 364 892 "},"Ė":{"ha":407,"x_min":0,"x_max":0,"o":"m 375 0 l 61 0 l 61 1097 l 374 1097 l 374 965 l 221 965 l 221 806 l 369 806 l 369 679 l 221 679 l 221 138 l 375 138 m 288 1218 l 147 1218 l 147 1363 l 288 1363 "},"ė":{"ha":485,"x_min":0,"x_max":0,"o":"m 189 367 l 189 171 b 249 107 189 118 197 107 b 308 171 299 107 308 118 l 308 283 l 436 283 l 436 163 b 247 -14 436 6 401 -14 b 50 163 83 -14 50 8 l 50 669 b 247 846 50 824 83 846 b 436 669 401 846 436 826 l 436 367 m 189 481 l 308 481 l 308 658 b 249 721 308 711 299 721 b 189 658 197 721 189 711 m 314 953 l 174 953 l 174 1097 l 314 1097 "},"Ę":{"ha":407,"x_min":0,"x_max":0,"o":"m 61 0 l 61 1097 l 374 1097 l 374 965 l 221 965 l 221 806 l 369 806 l 369 679 l 221 679 l 221 138 l 375 138 l 375 0 b 290 -97 313 -29 290 -53 b 344 -144 290 -132 304 -144 l 394 -144 l 394 -257 l 286 -257 b 168 -143 192 -257 168 -204 b 307 0 168 -64 208 -32 "},"ę":{"ha":485,"x_min":0,"x_max":0,"o":"m 189 367 l 189 171 b 249 107 189 118 197 107 b 308 171 299 107 308 118 l 308 283 l 436 283 l 436 163 b 374 0 436 51 419 24 b 289 -94 317 -28 289 -43 b 343 -144 289 -132 303 -144 l 393 -144 l 393 -257 l 285 -257 b 167 -143 190 -257 167 -204 b 267 -14 167 -75 196 -42 l 249 -14 b 50 163 85 -14 50 7 l 50 669 b 247 846 50 824 83 846 b 436 669 401 846 436 826 l 436 367 m 189 481 l 308 481 l 308 658 b 249 721 308 711 299 721 b 189 658 197 721 189 711 "},"Ě":{"ha":407,"x_min":0,"x_max":0,"o":"m 375 0 l 61 0 l 61 1097 l 374 1097 l 374 965 l 221 965 l 221 806 l 369 806 l 369 679 l 221 679 l 221 138 l 375 138 m 17 1383 l 117 1383 l 218 1232 l 319 1383 l 419 1383 l 278 1153 l 158 1153 "},"ě":{"ha":485,"x_min":0,"x_max":0,"o":"m 189 367 l 189 171 b 249 107 189 118 197 107 b 308 171 299 107 308 118 l 308 283 l 436 283 l 436 163 b 247 -14 436 6 401 -14 b 50 163 83 -14 50 8 l 50 669 b 247 846 50 824 83 846 b 436 669 401 846 436 826 l 436 367 m 189 481 l 308 481 l 308 658 b 249 721 308 711 299 721 b 189 658 197 721 189 711 m 42 1118 l 142 1118 l 243 967 l 344 1118 l 444 1118 l 303 888 l 183 888 "},"Ğ":{"ha":553,"x_min":0,"x_max":0,"o":"m 344 781 l 344 881 b 278 968 344 954 335 968 b 210 881 219 968 210 953 l 210 218 b 285 128 210 143 219 128 b 349 133 313 128 338 131 l 349 638 l 499 638 l 499 0 b 293 -14 472 -6 393 -14 b 50 218 89 -14 50 21 l 50 881 b 278 1111 50 1082 96 1111 b 499 881 457 1111 499 1083 l 499 781 m 275 1157 b 71 1383 154 1157 71 1222 l 160 1383 b 275 1240 163 1265 210 1240 b 390 1383 342 1240 386 1265 l 479 1383 b 275 1157 479 1222 396 1157 "},"ğ":{"ha":508,"x_min":0,"x_max":0,"o":"m 221 -93 b 304 -14 283 -93 304 -76 l 304 93 b 179 36 282 56 249 36 b 50 206 72 36 50 82 l 50 669 b 183 839 50 797 75 839 b 315 771 246 839 288 825 l 315 832 l 447 832 l 447 -14 b 254 -212 447 -149 394 -212 l 72 -212 l 72 -93 l 221 -93 m 308 668 b 240 711 294 699 276 711 b 188 642 199 711 188 694 l 188 232 b 240 163 188 179 199 163 b 308 206 276 163 294 175 m 254 892 b 50 1118 133 892 50 957 l 139 1118 b 254 975 142 1000 189 975 b 369 1118 321 975 365 1000 l 458 1118 b 254 892 458 957 375 892 "},"Ġ":{"ha":553,"x_min":0,"x_max":0,"o":"m 344 781 l 344 881 b 278 968 344 954 335 968 b 210 881 219 968 210 953 l 210 218 b 285 128 210 143 219 128 b 349 133 313 128 338 131 l 349 638 l 499 638 l 499 0 b 293 -14 472 -6 393 -14 b 50 218 89 -14 50 21 l 50 881 b 278 1111 50 1082 96 1111 b 499 881 457 1111 499 1083 l 499 781 m 344 1218 l 204 1218 l 204 1363 l 344 1363 "},"ġ":{"ha":508,"x_min":0,"x_max":0,"o":"m 221 -93 b 304 -14 283 -93 304 -76 l 304 93 b 179 36 282 56 249 36 b 50 206 72 36 50 82 l 50 669 b 183 839 50 797 75 839 b 315 771 246 839 288 825 l 315 832 l 447 832 l 447 -14 b 254 -212 447 -149 394 -212 l 72 -212 l 72 -93 l 221 -93 m 308 668 b 240 711 294 699 276 711 b 188 642 199 711 188 694 l 188 232 b 240 163 188 179 199 163 b 308 206 276 163 294 175 m 324 953 l 183 953 l 183 1097 l 324 1097 "},"Ģ":{"ha":553,"x_min":0,"x_max":0,"o":"m 344 781 l 344 881 b 278 968 344 954 335 968 b 210 881 219 968 210 953 l 210 218 b 285 128 210 143 219 128 b 349 133 313 128 338 131 l 349 638 l 499 638 l 499 0 b 293 -14 472 -6 393 -14 b 50 218 89 -14 50 21 l 50 881 b 278 1111 50 1082 96 1111 b 499 881 457 1111 499 1083 l 499 781 m 208 -28 l 350 -28 l 236 -257 l 138 -257 "},"ģ":{"ha":508,"x_min":0,"x_max":0,"o":"m 221 -93 b 304 -14 283 -93 304 -76 l 304 93 b 179 36 282 56 249 36 b 50 206 72 36 50 82 l 50 669 b 183 839 50 797 75 839 b 315 771 246 839 288 825 l 315 832 l 447 832 l 447 -14 b 254 -212 447 -149 394 -212 l 72 -212 l 72 -93 l 221 -93 m 308 668 b 240 711 294 699 276 711 b 188 642 199 711 188 694 l 188 232 b 240 163 188 179 199 163 b 308 206 276 163 294 175 m 315 868 l 174 868 l 288 1097 l 386 1097 "},"Ħ":{"ha":579,"x_min":0,"x_max":0,"o":"m 521 0 l 360 0 l 360 600 l 221 600 l 221 0 l 61 0 l 61 1097 l 221 1097 l 221 965 l 360 965 l 360 1097 l 521 1097 m 360 735 l 360 881 l 221 881 l 221 735 "},"ħ":{"ha":525,"x_min":0,"x_max":0,"o":"m 406 956 l 203 956 l 203 779 b 331 839 225 821 261 839 b 471 669 436 839 471 797 l 471 0 l 329 0 l 329 654 b 274 711 329 696 315 711 b 203 668 228 711 214 693 l 203 0 l 61 0 l 61 956 l 0 956 l 0 1040 l 61 1040 l 61 1097 l 203 1097 l 203 1040 l 406 1040 "},"ћ":{"ha":525,"x_min":0,"x_max":0,"o":"m 406 1040 l 203 1040 l 203 1097 l 61 1097 l 61 1040 l 0 1040 l 0 956 l 61 956 l 61 0 l 203 0 l 203 668 b 274 711 214 693 228 711 b 329 654 315 711 329 696 l 329 0 l 471 0 l 471 669 b 331 839 471 797 436 839 b 203 779 261 839 225 821 l 203 956 l 406 956 "},"Ĩ":{"ha":371,"x_min":0,"x_max":0,"o":"m 265 0 l 106 0 l 106 1097 l 265 1097 m 79 1269 b -17 1219 29 1269 3 1249 l -17 1321 b 81 1357 4 1340 38 1357 b 292 1314 151 1357 218 1314 b 389 1364 339 1314 368 1332 l 389 1264 b 290 1224 368 1240 335 1224 b 79 1269 215 1224 153 1269 "},"ĩ":{"ha":364,"x_min":0,"x_max":0,"o":"m 76 1004 b -19 954 26 1004 0 983 l -19 1056 b 78 1092 1 1075 35 1092 b 289 1049 149 1092 215 1049 b 386 1099 336 1049 365 1067 l 386 999 b 288 958 365 975 332 958 b 76 1004 213 958 150 1004 m 253 0 l 113 0 l 113 832 l 253 832 "},"Ī":{"ha":285,"x_min":0,"x_max":0,"o":"m 224 0 l 64 0 l 64 1097 l 224 1097 m 347 1249 l -58 1249 l -58 1333 l 347 1333 "},"ī":{"ha":367,"x_min":0,"x_max":0,"o":"m 388 983 l -18 983 l -18 1068 l 388 1068 m 254 0 l 114 0 l 114 832 l 254 832 "},"Ĭ":{"ha":285,"x_min":0,"x_max":0,"o":"m 224 0 l 64 0 l 64 1097 l 224 1097 m 144 1157 b -60 1383 24 1157 -60 1222 l 29 1383 b 144 1240 32 1265 79 1240 b 260 1383 211 1240 256 1265 l 349 1383 b 144 1157 349 1222 265 1157 "},"ĭ":{"ha":363,"x_min":0,"x_max":0,"o":"m 182 892 b -22 1118 61 892 -22 957 l 67 1118 b 182 975 69 1000 117 975 b 297 1118 249 975 293 1000 l 386 1118 b 182 892 386 957 303 892 m 251 0 l 111 0 l 111 832 l 251 832 "},"Į":{"ha":285,"x_min":0,"x_max":0,"o":"m 17 -143 b 64 -42 17 -96 31 -65 l 64 1097 l 224 1097 l 224 0 b 139 -97 161 -29 139 -53 b 193 -144 139 -132 153 -144 l 243 -144 l 243 -257 l 135 -257 b 17 -143 40 -257 17 -204 "},"į":{"ha":267,"x_min":0,"x_max":0,"o":"m 204 0 b 119 -97 142 -29 119 -53 b 174 -144 119 -132 133 -144 l 224 -144 l 224 -257 l 115 -257 b -3 -143 21 -257 -3 -204 b 64 -29 -3 -86 17 -54 l 64 832 l 204 832 m 204 953 l 64 953 l 64 1097 l 204 1097 "},"İ":{"ha":285,"x_min":0,"x_max":0,"o":"m 224 0 l 64 0 l 64 1097 l 224 1097 m 214 1218 l 74 1218 l 74 1363 l 214 1363 "},"ı":{"ha":267,"x_min":0,"x_max":0,"o":"m 204 0 l 64 0 l 64 832 l 204 832 "},"Ĳ":{"ha":801,"x_min":0,"x_max":0,"o":"m 224 0 l 64 0 l 64 1097 l 224 1097 m 304 472 l 450 472 l 450 218 b 514 128 450 142 461 128 b 581 218 571 128 581 144 l 581 1097 l 742 1097 l 742 218 b 519 -14 742 15 703 -14 b 304 218 344 -14 304 13 "},"ĳ":{"ha":533,"x_min":0,"x_max":0,"o":"m 204 953 l 64 953 l 64 1097 l 204 1097 m 204 0 l 64 0 l 64 832 l 204 832 m 333 832 l 475 832 l 475 -14 b 278 -212 475 -147 419 -212 l 200 -212 l 200 -93 l 267 -93 b 333 -14 314 -93 333 -72 m 475 953 l 333 953 l 333 1097 l 475 1097 "},"Ķ":{"ha":561,"x_min":0,"x_max":0,"o":"m 532 1097 l 368 642 l 554 0 l 381 0 l 229 576 l 222 576 l 222 0 l 61 0 l 61 1097 l 222 1097 l 222 682 l 229 682 l 364 1097 m 229 -28 l 371 -28 l 257 -257 l 158 -257 "},"ķ":{"ha":506,"x_min":0,"x_max":0,"o":"m 338 0 l 207 428 l 201 428 l 201 0 l 61 0 l 61 1097 l 201 1097 l 201 525 l 207 525 l 324 832 l 478 832 l 326 485 l 496 0 m 203 -28 l 344 -28 l 231 -257 l 132 -257 "},"Ĺ":{"ha":401,"x_min":0,"x_max":0,"o":"m 385 0 l 61 0 l 61 1097 l 221 1097 l 221 139 l 385 139 m 161 1383 l 314 1383 l 182 1153 l 74 1153 "},"ĺ":{"ha":261,"x_min":0,"x_max":0,"o":"m 203 0 l 61 0 l 61 1097 l 203 1097 m 139 1383 l 292 1383 l 160 1153 l 51 1153 "},"Ļ":{"ha":401,"x_min":0,"x_max":0,"o":"m 385 0 l 61 0 l 61 1097 l 221 1097 l 221 139 l 385 139 m 150 -28 l 292 -28 l 178 -257 l 79 -257 "},"ļ":{"ha":261,"x_min":0,"x_max":0,"o":"m 203 0 l 61 0 l 61 1097 l 203 1097 m 61 -28 l 203 -28 l 89 -257 l -10 -257 "},"Ľ":{"ha":483,"x_min":0,"x_max":0,"o":"m 385 0 l 61 0 l 61 1097 l 221 1097 l 221 139 l 385 139 m 335 1097 l 476 1097 l 363 868 l 264 868 "},"ľ":{"ha":435,"x_min":0,"x_max":0,"o":"m 203 0 l 61 0 l 61 1097 l 203 1097 m 321 1097 l 463 1097 l 349 868 l 250 868 "},"Ł":{"ha":400,"x_min":0,"x_max":0,"o":"m 335 747 l 219 694 l 219 139 l 383 139 l 383 0 l 61 0 l 61 631 l 10 610 l 10 736 l 61 757 l 61 1097 l 219 1097 l 219 821 l 335 874 "},"ł":{"ha":317,"x_min":0,"x_max":0,"o":"m 313 732 l 231 696 l 231 0 l 89 0 l 89 643 l 6 608 l 6 735 l 89 769 l 89 1097 l 231 1097 l 231 822 l 313 858 "},"Ń":{"ha":600,"x_min":0,"x_max":0,"o":"m 369 0 l 204 685 l 199 685 l 199 0 l 61 0 l 61 1097 l 238 1097 l 396 393 l 401 393 l 401 1097 l 540 1097 l 540 0 m 310 1383 l 463 1383 l 331 1153 l 222 1153 "},"ń":{"ha":525,"x_min":0,"x_max":0,"o":"m 203 0 l 61 0 l 61 832 l 193 832 l 193 776 b 329 839 215 818 253 839 b 471 669 436 839 471 797 l 471 0 l 329 0 l 329 654 b 274 711 329 696 315 711 b 203 668 228 711 214 693 m 271 1118 l 424 1118 l 292 888 l 183 888 "},"Ņ":{"ha":600,"x_min":0,"x_max":0,"o":"m 369 0 l 204 685 l 199 685 l 199 0 l 61 0 l 61 1097 l 238 1097 l 396 393 l 401 393 l 401 1097 l 540 1097 l 540 0 m 222 -28 l 364 -28 l 250 -257 l 151 -257 "},"ņ":{"ha":525,"x_min":0,"x_max":0,"o":"m 203 0 l 61 0 l 61 832 l 193 832 l 193 776 b 329 839 215 818 253 839 b 471 669 436 839 471 797 l 471 0 l 329 0 l 329 654 b 274 711 329 696 315 711 b 203 668 228 711 214 693 m 197 -28 l 339 -28 l 225 -257 l 126 -257 "},"Ň":{"ha":600,"x_min":0,"x_max":0,"o":"m 369 0 l 204 685 l 199 685 l 199 0 l 61 0 l 61 1097 l 238 1097 l 396 393 l 401 393 l 401 1097 l 540 1097 l 540 0 m 99 1383 l 199 1383 l 300 1232 l 401 1383 l 501 1383 l 360 1153 l 240 1153 "},"ň":{"ha":525,"x_min":0,"x_max":0,"o":"m 203 0 l 61 0 l 61 832 l 193 832 l 193 776 b 329 839 215 818 253 839 b 471 669 436 839 471 797 l 471 0 l 329 0 l 329 654 b 274 711 329 696 315 711 b 203 668 228 711 214 693 m 61 1118 l 161 1118 l 263 967 l 364 1118 l 464 1118 l 322 888 l 203 888 "},"Ŋ":{"ha":600,"x_min":0,"x_max":0,"o":"m 540 -14 b 343 -212 540 -147 485 -212 l 265 -212 l 265 -93 l 332 -93 b 399 -42 371 -93 392 -79 l 204 685 l 199 685 l 199 0 l 61 0 l 61 1097 l 238 1097 l 396 393 l 401 393 l 401 1097 l 540 1097 "},"ŋ":{"ha":525,"x_min":0,"x_max":0,"o":"m 329 654 b 274 711 329 696 315 711 b 203 668 228 711 214 693 l 203 0 l 61 0 l 61 832 l 193 832 l 193 776 b 329 839 215 818 253 839 b 471 669 436 839 471 797 l 471 -14 b 274 -212 471 -147 415 -212 l 196 -212 l 196 -93 l 263 -93 b 329 -14 310 -93 329 -72 "},"Ō":{"ha":554,"x_min":0,"x_max":0,"o":"m 507 218 b 278 -14 507 14 467 -14 b 50 218 89 -14 50 14 l 50 881 b 278 1111 50 1083 89 1111 b 507 881 467 1111 507 1083 m 346 881 b 279 968 346 954 336 968 b 210 881 219 968 210 953 l 210 218 b 276 128 210 142 219 128 b 346 218 338 128 346 144 m 481 1249 l 75 1249 l 75 1333 l 481 1333 "},"ō":{"ha":497,"x_min":0,"x_max":0,"o":"m 447 163 b 249 -14 447 7 411 -14 b 50 163 85 -14 50 7 l 50 669 b 249 846 50 825 85 846 b 447 669 411 846 447 825 m 310 654 b 251 713 310 703 300 713 b 188 654 199 713 188 701 l 188 176 b 249 117 188 129 197 117 b 310 176 301 117 310 131 m 451 983 l 46 983 l 46 1068 l 451 1068 "},"Ŏ":{"ha":554,"x_min":0,"x_max":0,"o":"m 507 218 b 278 -14 507 14 467 -14 b 50 218 89 -14 50 14 l 50 881 b 278 1111 50 1083 89 1111 b 507 881 467 1111 507 1083 m 346 881 b 279 968 346 954 336 968 b 210 881 219 968 210 953 l 210 218 b 276 128 210 142 219 128 b 346 218 338 128 346 144 m 278 1157 b 74 1383 157 1157 74 1222 l 163 1383 b 278 1240 165 1265 213 1240 b 393 1383 344 1240 389 1265 l 482 1383 b 278 1157 482 1222 399 1157 "},"ŏ":{"ha":497,"x_min":0,"x_max":0,"o":"m 447 163 b 249 -14 447 7 411 -14 b 50 163 85 -14 50 7 l 50 669 b 249 846 50 825 85 846 b 447 669 411 846 447 825 m 310 654 b 251 713 310 703 300 713 b 188 654 199 713 188 701 l 188 176 b 249 117 188 129 197 117 b 310 176 301 117 310 131 m 249 892 b 44 1118 128 892 44 957 l 133 1118 b 249 975 136 1000 183 975 b 364 1118 315 975 360 1000 l 453 1118 b 249 892 453 957 369 892 "},"Ő":{"ha":554,"x_min":0,"x_max":0,"o":"m 507 218 b 278 -14 507 14 467 -14 b 50 218 89 -14 50 14 l 50 881 b 278 1111 50 1083 89 1111 b 507 881 467 1111 507 1083 m 346 881 b 279 968 346 954 336 968 b 210 881 219 968 210 953 l 210 218 b 276 128 210 142 219 128 b 346 218 338 128 346 144 m 425 1383 l 578 1383 l 443 1153 l 336 1153 m 175 1383 l 328 1383 l 196 1153 l 88 1153 "},"ő":{"ha":497,"x_min":0,"x_max":0,"o":"m 447 163 b 249 -14 447 7 411 -14 b 50 163 85 -14 50 7 l 50 669 b 249 846 50 825 85 846 b 447 669 411 846 447 825 m 310 654 b 251 713 310 703 300 713 b 188 654 199 713 188 701 l 188 176 b 249 117 188 129 197 117 b 310 176 301 117 310 131 m 396 1118 l 549 1118 l 414 888 l 307 888 m 146 1118 l 299 1118 l 167 888 l 58 888 "},"Œ":{"ha":700,"x_min":0,"x_max":0,"o":"m 638 0 l 278 0 b 50 225 89 0 50 29 l 50 874 b 278 1097 50 1069 89 1097 l 638 1097 l 638 964 l 485 964 l 485 806 l 632 806 l 632 678 l 485 678 l 485 136 l 638 136 m 210 225 b 278 138 210 151 219 138 l 329 138 l 329 958 l 278 958 b 210 874 219 958 210 946 "},"œ":{"ha":746,"x_min":0,"x_max":0,"o":"m 447 367 l 447 167 b 508 107 447 117 458 107 b 568 171 558 107 568 117 l 568 283 l 696 283 l 696 163 b 525 -14 696 14 663 -14 b 376 28 433 -14 403 -1 b 231 -14 346 -6 311 -14 b 50 163 85 -14 50 14 l 50 669 b 225 846 50 817 85 846 b 378 801 317 846 349 833 b 526 846 407 833 436 846 b 696 669 663 846 696 818 l 696 367 m 447 479 l 568 479 l 568 658 b 511 721 568 710 558 721 b 447 663 460 721 447 708 m 310 654 b 251 713 310 703 300 713 b 188 654 199 713 188 701 l 188 176 b 249 117 188 129 197 117 b 310 176 301 117 310 131 "},"Ŕ":{"ha":568,"x_min":0,"x_max":0,"o":"m 221 0 l 61 0 l 61 1097 l 289 1097 b 518 874 478 1097 518 1067 l 518 758 b 419 608 518 643 463 619 l 419 603 b 518 438 478 589 518 558 l 518 0 l 357 0 l 357 463 b 293 542 357 522 349 542 l 221 542 m 221 668 l 293 668 b 357 739 344 668 357 686 l 357 874 b 289 958 357 943 350 958 l 221 958 m 279 1383 l 432 1383 l 300 1153 l 192 1153 "},"ŕ":{"ha":468,"x_min":0,"x_max":0,"o":"m 203 0 l 61 0 l 61 832 l 193 832 l 193 776 b 326 839 213 814 253 839 b 451 669 419 839 451 799 l 451 463 l 324 463 l 324 653 b 272 711 324 693 314 711 b 203 665 233 711 214 696 m 271 1118 l 424 1118 l 292 888 l 183 888 "},"Ŗ":{"ha":568,"x_min":0,"x_max":0,"o":"m 221 0 l 61 0 l 61 1097 l 289 1097 b 518 874 478 1097 518 1067 l 518 758 b 419 608 518 643 463 619 l 419 603 b 518 438 478 589 518 558 l 518 0 l 357 0 l 357 463 b 293 542 357 522 349 542 l 221 542 m 221 668 l 293 668 b 357 739 344 668 357 686 l 357 874 b 289 958 357 943 350 958 l 221 958 m 217 -28 l 358 -28 l 244 -257 l 146 -257 "},"ŗ":{"ha":468,"x_min":0,"x_max":0,"o":"m 203 0 l 61 0 l 61 832 l 193 832 l 193 776 b 326 839 213 814 253 839 b 451 669 419 839 451 799 l 451 463 l 324 463 l 324 653 b 272 711 324 693 314 711 b 203 665 233 711 214 696 m 58 -28 l 200 -28 l 86 -257 l -12 -257 "},"Ř":{"ha":568,"x_min":0,"x_max":0,"o":"m 221 0 l 61 0 l 61 1097 l 289 1097 b 518 874 478 1097 518 1067 l 518 758 b 419 608 518 643 463 619 l 419 603 b 518 438 478 589 518 558 l 518 0 l 357 0 l 357 463 b 293 542 357 522 349 542 l 221 542 m 221 668 l 293 668 b 357 739 344 668 357 686 l 357 874 b 289 958 357 943 350 958 l 221 958 m 69 1383 l 169 1383 l 271 1232 l 372 1383 l 472 1383 l 331 1153 l 211 1153 "},"ř":{"ha":468,"x_min":0,"x_max":0,"o":"m 203 0 l 61 0 l 61 832 l 193 832 l 193 776 b 326 839 213 814 253 839 b 451 669 419 839 451 799 l 451 463 l 324 463 l 324 653 b 272 711 324 693 314 711 b 203 665 233 711 214 696 m 60 1118 l 160 1118 l 261 967 l 363 1118 l 463 1118 l 321 888 l 201 888 "},"Ś":{"ha":549,"x_min":0,"x_max":0,"o":"m 343 742 l 343 878 b 275 968 343 956 336 968 b 207 878 214 968 207 956 l 207 769 b 249 688 207 725 213 710 b 399 604 279 668 336 643 b 504 394 493 546 504 517 l 504 218 b 276 -14 504 15 465 -14 b 53 218 96 -14 53 13 l 53 436 l 208 436 l 208 218 b 275 128 208 142 217 128 b 343 218 335 128 343 142 l 343 383 b 306 485 343 442 340 461 b 135 585 268 511 188 550 b 47 772 57 636 47 669 l 47 878 b 272 1111 47 1082 85 1111 b 499 878 460 1111 499 1082 l 499 742 m 283 1383 l 436 1383 l 304 1153 l 196 1153 "},"ś":{"ha":492,"x_min":0,"x_max":0,"o":"m 307 592 l 307 654 b 246 714 307 703 299 714 b 186 654 193 714 186 703 l 186 588 b 257 503 186 538 196 531 b 361 454 269 497 335 468 b 444 318 435 415 444 381 l 444 164 b 247 -14 444 7 413 -14 b 47 164 83 -14 47 7 l 47 292 l 186 292 l 186 179 b 247 118 186 129 196 118 b 307 179 301 118 307 131 l 307 281 b 249 360 307 325 300 336 b 133 411 204 381 178 386 b 47 567 64 449 47 478 l 47 668 b 247 846 47 825 82 846 b 444 668 411 846 444 825 l 444 592 m 254 1118 l 407 1118 l 275 888 l 167 888 "},"Ş":{"ha":549,"x_min":0,"x_max":0,"o":"m 343 742 l 343 878 b 275 968 343 956 336 968 b 207 878 214 968 207 956 l 207 769 b 249 688 207 725 213 710 b 399 604 279 668 336 643 b 504 394 493 546 504 517 l 504 218 b 276 -14 504 15 465 -14 b 53 218 96 -14 53 13 l 53 436 l 208 436 l 208 218 b 275 128 208 142 217 128 b 343 218 335 128 343 142 l 343 383 b 306 485 343 442 340 461 b 135 585 268 511 188 550 b 47 772 57 636 47 669 l 47 878 b 272 1111 47 1082 85 1111 b 499 878 460 1111 499 1082 l 499 742 m 204 -28 l 346 -28 l 232 -257 l 133 -257 "},"Ș":{"ha":549,"x_min":0,"x_max":0,"o":"m 499 742 l 499 878 b 272 1111 499 1082 460 1111 b 47 878 85 1111 47 1082 l 47 772 b 135 585 47 669 57 636 b 306 485 188 550 268 511 b 343 383 340 461 343 442 l 343 218 b 275 128 343 142 335 128 b 208 218 217 128 208 142 l 208 436 l 53 436 l 53 218 b 276 -14 53 13 96 -14 b 504 218 465 -14 504 15 l 504 394 b 399 604 504 517 493 546 b 249 688 336 643 279 668 b 207 769 213 710 207 725 l 207 878 b 275 968 207 956 214 968 b 343 878 336 968 343 956 l 343 742 m 133 -257 l 232 -257 l 346 -28 l 204 -28 "},"ş":{"ha":492,"x_min":0,"x_max":0,"o":"m 307 592 l 307 654 b 246 714 307 703 299 714 b 186 654 193 714 186 703 l 186 588 b 257 503 186 538 196 531 b 361 454 269 497 335 468 b 444 318 435 415 444 381 l 444 164 b 247 -14 444 7 413 -14 b 47 164 83 -14 47 7 l 47 292 l 186 292 l 186 179 b 247 118 186 129 196 118 b 307 179 301 118 307 131 l 307 281 b 249 360 307 325 300 336 b 133 411 204 381 178 386 b 47 567 64 449 47 478 l 47 668 b 247 846 47 825 82 846 b 444 668 411 846 444 825 l 444 592 m 169 -28 l 311 -28 l 197 -257 l 99 -257 "},"ș":{"ha":492,"x_min":0,"x_max":0,"o":"m 444 592 l 444 668 b 247 846 444 825 411 846 b 47 668 82 846 47 825 l 47 567 b 133 411 47 478 64 449 b 249 360 178 386 204 381 b 307 281 300 336 307 325 l 307 179 b 247 118 307 131 301 118 b 186 179 196 118 186 129 l 186 292 l 47 292 l 47 164 b 247 -14 47 7 83 -14 b 444 164 413 -14 444 7 l 444 318 b 361 454 444 381 435 415 b 257 503 335 468 269 497 b 186 588 196 531 186 538 l 186 654 b 246 714 186 703 193 714 b 307 654 299 714 307 703 l 307 592 m 99 -257 l 197 -257 l 311 -28 l 169 -28 "},"Š":{"ha":549,"x_min":0,"x_max":0,"o":"m 343 742 l 343 878 b 275 968 343 956 336 968 b 207 878 214 968 207 956 l 207 769 b 249 688 207 725 213 710 b 399 604 279 668 336 643 b 504 394 493 546 504 517 l 504 218 b 276 -14 504 15 465 -14 b 53 218 96 -14 53 13 l 53 436 l 208 436 l 208 218 b 275 128 208 142 217 128 b 343 218 335 128 343 142 l 343 383 b 306 485 343 442 340 461 b 135 585 268 511 188 550 b 47 772 57 636 47 669 l 47 878 b 272 1111 47 1082 85 1111 b 499 878 460 1111 499 1082 l 499 742 m 74 1383 l 174 1383 l 275 1232 l 376 1383 l 476 1383 l 335 1153 l 215 1153 "},"š":{"ha":492,"x_min":0,"x_max":0,"o":"m 307 592 l 307 654 b 246 714 307 703 299 714 b 186 654 193 714 186 703 l 186 588 b 257 503 186 538 196 531 b 361 454 269 497 335 468 b 444 318 435 415 444 381 l 444 164 b 247 -14 444 7 413 -14 b 47 164 83 -14 47 7 l 47 292 l 186 292 l 186 179 b 247 118 186 129 196 118 b 307 179 301 118 307 131 l 307 281 b 249 360 307 325 300 336 b 133 411 204 381 178 386 b 47 567 64 449 47 478 l 47 668 b 247 846 47 825 82 846 b 444 668 411 846 444 825 l 444 592 m 44 1118 l 144 1118 l 246 967 l 347 1118 l 447 1118 l 306 888 l 186 888 "},"Ť":{"ha":432,"x_min":0,"x_max":0,"o":"m 417 964 l 297 964 l 297 0 l 138 0 l 138 964 l 17 964 l 17 1097 l 417 1097 m 15 1383 l 115 1383 l 217 1232 l 318 1383 l 418 1383 l 276 1153 l 157 1153 "},"ť":{"ha":457,"x_min":0,"x_max":0,"o":"m 303 717 l 206 717 l 206 194 b 275 121 206 138 219 121 l 301 121 l 301 0 l 265 0 b 64 176 113 0 64 54 l 64 717 l 13 717 l 13 832 l 64 832 l 64 1085 l 206 1085 l 206 832 l 303 832 m 311 1097 l 453 1097 l 339 868 l 240 868 "},"Ŧ":{"ha":432,"x_min":0,"x_max":0,"o":"m 365 650 l 297 650 l 297 0 l 138 0 l 138 650 l 69 650 l 69 775 l 138 775 l 138 964 l 17 964 l 17 1097 l 417 1097 l 417 964 l 297 964 l 297 775 l 365 775 "},"ŧ":{"ha":333,"x_min":0,"x_max":0,"o":"m 296 400 l 206 400 l 206 194 b 275 121 206 138 219 121 l 301 121 l 301 0 l 265 0 b 64 176 113 0 64 54 l 64 400 l 21 400 l 21 525 l 64 525 l 64 717 l 13 717 l 13 832 l 64 832 l 64 1085 l 206 1085 l 206 832 l 303 832 l 303 717 l 206 717 l 206 525 l 296 525 "},"Ũ":{"ha":560,"x_min":0,"x_max":0,"o":"m 282 -14 b 56 218 99 -14 56 14 l 56 1097 l 215 1097 l 215 218 b 283 129 215 142 226 129 b 351 218 340 129 351 142 l 351 1097 l 507 1097 l 507 218 b 282 -14 507 14 465 -14 m 174 1269 b 78 1219 124 1269 97 1249 l 78 1321 b 175 1357 99 1340 132 1357 b 386 1314 246 1357 313 1314 b 483 1364 433 1314 463 1332 l 483 1264 b 385 1224 463 1240 429 1224 b 174 1269 310 1224 247 1269 "},"ũ":{"ha":522,"x_min":0,"x_max":0,"o":"m 319 832 l 463 832 l 463 0 l 329 0 l 329 54 b 196 -7 307 13 271 -7 b 56 163 89 -7 56 33 l 56 832 l 197 832 l 197 176 b 251 119 197 138 208 119 b 319 163 293 119 308 136 m 156 1004 b 60 954 106 1004 79 983 l 60 1056 b 157 1092 81 1075 114 1092 b 368 1049 228 1092 294 1049 b 465 1099 415 1049 444 1067 l 465 999 b 367 958 444 975 411 958 b 156 1004 292 958 229 1004 "},"Ū":{"ha":560,"x_min":0,"x_max":0,"o":"m 282 -14 b 56 218 99 -14 56 14 l 56 1097 l 215 1097 l 215 218 b 283 129 215 142 226 129 b 351 218 340 129 351 142 l 351 1097 l 507 1097 l 507 218 b 282 -14 507 14 465 -14 m 483 1249 l 78 1249 l 78 1333 l 483 1333 "},"ū":{"ha":522,"x_min":0,"x_max":0,"o":"m 319 832 l 463 832 l 463 0 l 329 0 l 329 54 b 196 -7 307 13 271 -7 b 56 163 89 -7 56 33 l 56 832 l 197 832 l 197 176 b 251 119 197 138 208 119 b 319 163 293 119 308 136 m 465 983 l 60 983 l 60 1068 l 465 1068 "},"Ŭ":{"ha":560,"x_min":0,"x_max":0,"o":"m 282 -14 b 56 218 99 -14 56 14 l 56 1097 l 215 1097 l 215 218 b 283 129 215 142 226 129 b 351 218 340 129 351 142 l 351 1097 l 507 1097 l 507 218 b 282 -14 507 14 465 -14 m 281 1157 b 76 1383 160 1157 76 1222 l 165 1383 b 281 1240 168 1265 215 1240 b 396 1383 347 1240 392 1265 l 485 1383 b 281 1157 485 1222 401 1157 "},"ŭ":{"ha":522,"x_min":0,"x_max":0,"o":"m 319 832 l 463 832 l 463 0 l 329 0 l 329 54 b 196 -7 307 13 271 -7 b 56 163 89 -7 56 33 l 56 832 l 197 832 l 197 176 b 251 119 197 138 208 119 b 319 163 293 119 308 136 m 263 892 b 58 1118 142 892 58 957 l 147 1118 b 263 975 150 1000 197 975 b 378 1118 329 975 374 1000 l 467 1118 b 263 892 467 957 383 892 "},"Ů":{"ha":560,"x_min":0,"x_max":0,"o":"m 282 -14 b 56 218 99 -14 56 14 l 56 1097 l 215 1097 l 215 218 b 283 129 215 142 226 129 b 351 218 340 129 351 142 l 351 1097 l 507 1097 l 507 218 b 282 -14 507 14 465 -14 m 392 1233 b 278 1139 392 1150 371 1139 b 165 1233 186 1139 165 1150 l 165 1289 b 278 1383 165 1372 186 1383 b 392 1289 371 1383 392 1372 m 333 1283 b 278 1324 333 1319 324 1324 b 224 1283 233 1324 224 1319 l 224 1239 b 278 1199 224 1203 233 1199 b 333 1239 324 1199 333 1203 "},"ů":{"ha":522,"x_min":0,"x_max":0,"o":"m 319 832 l 463 832 l 463 0 l 329 0 l 329 54 b 196 -7 307 13 271 -7 b 56 163 89 -7 56 33 l 56 832 l 197 832 l 197 176 b 251 119 197 138 208 119 b 319 163 293 119 308 136 m 374 968 b 260 874 374 885 353 874 b 147 968 168 874 147 885 l 147 1024 b 260 1118 147 1107 168 1118 b 374 1024 353 1118 374 1107 m 315 1018 b 260 1058 315 1054 306 1058 b 206 1018 215 1058 206 1054 l 206 974 b 260 933 206 938 215 933 b 315 974 306 933 315 938 "},"Ű":{"ha":560,"x_min":0,"x_max":0,"o":"m 282 -14 b 56 218 99 -14 56 14 l 56 1097 l 215 1097 l 215 218 b 283 129 215 142 226 129 b 351 218 340 129 351 142 l 351 1097 l 507 1097 l 507 218 b 282 -14 507 14 465 -14 m 429 1383 l 582 1383 l 447 1153 l 340 1153 m 179 1383 l 332 1383 l 200 1153 l 92 1153 "},"ű":{"ha":522,"x_min":0,"x_max":0,"o":"m 319 832 l 463 832 l 463 0 l 329 0 l 329 54 b 196 -7 307 13 271 -7 b 56 163 89 -7 56 33 l 56 832 l 197 832 l 197 176 b 251 119 197 138 208 119 b 319 163 293 119 308 136 m 407 1118 l 560 1118 l 425 888 l 318 888 m 157 1118 l 310 1118 l 178 888 l 69 888 "},"Ų":{"ha":560,"x_min":0,"x_max":0,"o":"m 282 -14 b 56 218 99 -14 56 14 l 56 1097 l 215 1097 l 215 218 b 283 129 215 142 226 129 b 351 218 340 129 351 142 l 351 1097 l 507 1097 l 507 218 b 415 0 507 71 486 31 b 333 -96 372 -18 333 -35 b 388 -144 333 -132 347 -144 l 438 -144 l 438 -257 l 329 -257 b 211 -143 235 -257 211 -204 b 311 -14 211 -75 240 -42 l 282 -14 "},"ų":{"ha":522,"x_min":0,"x_max":0,"o":"m 319 832 l 463 832 l 463 0 b 378 -97 400 -29 378 -53 b 432 -144 378 -132 392 -144 l 482 -144 l 482 -257 l 374 -257 b 256 -143 279 -257 256 -204 b 329 -25 256 -85 278 -51 l 329 54 b 196 -7 307 13 271 -7 b 56 163 89 -7 56 33 l 56 832 l 197 832 l 197 176 b 251 119 197 138 208 119 b 319 163 293 119 308 136 "},"Ŵ":{"ha":797,"x_min":0,"x_max":0,"o":"m 172 1097 l 218 235 l 224 235 l 297 1097 l 501 1097 l 564 235 l 569 235 l 629 1097 l 790 1097 l 663 0 l 460 0 l 401 871 l 396 871 l 319 0 l 114 0 l 13 1097 m 600 1153 l 500 1153 l 399 1304 l 297 1153 l 197 1153 l 339 1383 l 460 1383 "},"ŵ":{"ha":739,"x_min":0,"x_max":0,"o":"m 158 832 l 201 210 l 207 210 l 278 832 l 463 832 l 526 210 l 532 210 l 583 832 l 735 832 l 619 0 l 428 0 l 372 632 l 367 632 l 296 0 l 103 0 l 7 832 m 571 888 l 471 888 l 369 1039 l 268 888 l 168 888 l 310 1118 l 431 1118 "},"Ŷ":{"ha":489,"x_min":0,"x_max":0,"o":"m 486 1097 l 322 388 l 322 0 l 163 0 l 163 388 l 4 1097 l 163 1097 l 242 601 l 247 601 l 331 1097 m 446 1153 l 346 1153 l 244 1304 l 143 1153 l 43 1153 l 185 1383 l 306 1383 "},"ŷ":{"ha":525,"x_min":0,"x_max":0,"o":"m 324 832 l 465 832 l 465 -14 b 271 -212 465 -149 411 -212 l 85 -212 l 85 -93 l 236 -93 b 321 -14 299 -93 321 -76 l 321 93 b 193 36 296 51 257 36 b 56 206 89 36 56 76 l 56 832 l 197 832 l 197 232 b 257 163 197 179 214 163 b 324 206 293 163 308 175 m 464 888 l 364 888 l 263 1039 l 161 888 l 61 888 l 203 1118 l 324 1118 "},"Ÿ":{"ha":489,"x_min":0,"x_max":0,"o":"m 486 1097 l 322 388 l 322 0 l 163 0 l 163 388 l 4 1097 l 163 1097 l 242 601 l 247 601 l 331 1097 m 442 1218 l 300 1218 l 300 1363 l 442 1363 m 190 1218 l 50 1218 l 50 1363 l 190 1363 "},"Ϋ":{"ha":489,"x_min":0,"x_max":0,"o":"m 331 1097 l 247 601 l 242 601 l 163 1097 l 4 1097 l 163 388 l 163 0 l 322 0 l 322 388 l 486 1097 m 442 1363 l 300 1363 l 300 1218 l 442 1218 m 190 1363 l 50 1363 l 50 1218 l 190 1218 "},"Ź":{"ha":435,"x_min":0,"x_max":0,"o":"m 410 0 l 25 0 l 25 139 l 246 964 l 47 964 l 47 1097 l 407 1097 l 407 989 l 192 138 l 410 138 m 240 1383 l 393 1383 l 261 1153 l 153 1153 "},"ź":{"ha":415,"x_min":0,"x_max":0,"o":"m 394 0 l 21 0 l 21 121 l 250 717 l 46 717 l 46 832 l 390 832 l 390 725 l 168 119 l 394 119 m 231 1118 l 383 1118 l 251 888 l 143 888 "},"Ż":{"ha":435,"x_min":0,"x_max":0,"o":"m 410 0 l 25 0 l 25 139 l 246 964 l 47 964 l 47 1097 l 407 1097 l 407 989 l 192 138 l 410 138 m 301 1218 l 161 1218 l 161 1363 l 301 1363 "},"ż":{"ha":415,"x_min":0,"x_max":0,"o":"m 394 0 l 21 0 l 21 121 l 250 717 l 46 717 l 46 832 l 390 832 l 390 725 l 168 119 l 394 119 m 293 953 l 153 953 l 153 1097 l 293 1097 "},"Ž":{"ha":435,"x_min":0,"x_max":0,"o":"m 410 0 l 25 0 l 25 139 l 246 964 l 47 964 l 47 1097 l 407 1097 l 407 989 l 192 138 l 410 138 m 31 1383 l 131 1383 l 232 1232 l 333 1383 l 433 1383 l 292 1153 l 172 1153 "},"ž":{"ha":415,"x_min":0,"x_max":0,"o":"m 394 0 l 21 0 l 21 121 l 250 717 l 46 717 l 46 832 l 390 832 l 390 725 l 168 119 l 394 119 m 22 1118 l 122 1118 l 224 967 l 325 1118 l 425 1118 l 283 888 l 164 888 "},"Ǝ":{"ha":407,"x_min":0,"x_max":0,"o":"m 33 1097 l 344 1097 l 344 0 l 35 0 l 35 126 l 190 126 l 190 293 l 39 293 l 39 417 l 190 417 l 190 964 l 33 964 "},"Ə":{"ha":554,"x_min":0,"x_max":0,"o":"m 54 699 l 54 881 b 271 1111 54 1085 96 1111 b 500 881 460 1111 500 1081 l 500 218 b 274 -14 500 15 460 -14 b 54 218 96 -14 54 13 l 54 590 l 346 590 l 346 881 b 274 972 346 958 335 972 b 203 881 214 972 203 960 l 203 699 m 271 124 b 346 258 344 124 346 153 l 346 469 l 203 469 l 203 258 b 271 124 203 147 204 124 "},"Ә":{"ha":554,"x_min":0,"x_max":0,"o":"m 203 699 l 203 881 b 274 972 203 960 214 972 b 346 881 335 972 346 958 l 346 590 l 54 590 l 54 218 b 274 -14 54 13 96 -14 b 500 218 460 -14 500 15 l 500 881 b 271 1111 500 1081 460 1111 b 54 881 96 1111 54 1085 l 54 699 m 271 124 b 203 258 204 124 203 147 l 203 469 l 346 469 l 346 258 b 271 124 346 153 344 124 "},"ƒ":{"ha":375,"x_min":0,"x_max":0,"o":"m 108 717 l 63 717 l 63 832 l 108 832 l 108 921 b 311 1097 108 1043 161 1097 l 356 1097 l 356 992 l 328 992 b 251 914 271 992 251 972 l 251 832 l 356 832 l 356 717 l 251 717 l 251 -36 b 49 -212 251 -158 199 -212 l 4 -212 l 4 -107 l 32 -107 b 108 -24 93 -107 108 -87 "},"Ɣ":{"ha":515,"x_min":0,"x_max":0,"o":"m 257 -257 b 90 -164 128 -257 90 -246 l 90 -139 b 100 -40 90 -94 92 -78 l 189 375 l 13 1097 l 169 1097 l 256 690 l 343 1097 l 501 1097 l 324 372 l 413 -40 b 424 -139 421 -78 424 -94 l 424 -164 b 257 -257 424 -246 385 -257 m 257 97 l 221 -50 b 215 -99 217 -68 215 -79 l 215 -121 b 257 -153 215 -147 222 -153 b 297 -121 292 -153 297 -147 l 297 -99 b 293 -50 297 -79 297 -68 "},"Ɲ":{"ha":600,"x_min":0,"x_max":0,"o":"m 61 1097 l 238 1097 l 396 393 l 401 393 l 401 1097 l 540 1097 l 540 0 l 369 0 l 204 685 l 199 685 l 199 -14 b 14 -212 199 -147 144 -212 l -74 -212 l -74 -97 l -4 -97 b 61 -14 43 -97 61 -71 "},"Ơ":{"ha":585,"x_min":0,"x_max":0,"o":"m 507 1225 l 611 1225 l 611 1146 b 492 1008 611 1058 575 1017 b 504 881 500 974 504 940 l 504 218 b 276 -14 504 14 464 -14 b 50 218 90 -14 50 14 l 50 881 b 260 1111 50 1072 90 1111 b 447 1097 361 1111 388 1097 b 507 1146 493 1097 507 1106 m 349 881 b 279 972 349 958 338 972 b 204 881 215 972 204 956 l 204 218 b 275 124 204 138 215 124 b 349 218 339 124 349 140 "},"ơ":{"ha":561,"x_min":0,"x_max":0,"o":"m 483 960 l 589 960 l 589 881 b 429 744 589 785 549 744 b 444 651 439 728 444 704 l 444 163 b 247 -14 444 7 408 -14 b 50 163 86 -14 50 7 l 50 669 b 246 846 50 817 86 846 b 415 832 356 846 356 832 b 483 881 469 832 483 843 m 311 643 b 247 717 311 706 301 717 b 183 643 193 717 183 706 l 183 188 b 246 113 183 124 194 113 b 311 188 303 113 311 126 "},"Ư":{"ha":650,"x_min":0,"x_max":0,"o":"m 571 1225 l 676 1225 l 676 1146 b 533 1010 676 1050 636 1010 l 504 1010 l 504 218 b 281 -14 504 14 461 -14 b 56 218 99 -14 56 14 l 56 1097 l 210 1097 l 210 218 b 281 124 210 139 222 124 b 353 218 342 124 353 140 l 353 1097 l 518 1097 b 571 1146 558 1097 571 1107 "},"ư":{"ha":606,"x_min":0,"x_max":0,"o":"m 526 960 l 632 960 l 632 881 b 489 744 632 785 592 744 l 463 744 l 463 0 l 329 0 l 329 54 b 196 -7 307 13 271 -7 b 56 163 89 -7 56 33 l 56 832 l 197 832 l 197 176 b 251 119 197 138 208 119 b 319 163 293 119 308 136 l 319 832 l 474 832 b 526 881 514 832 526 842 "},"ǝ":{"ha":485,"x_min":0,"x_max":0,"o":"m 296 465 l 296 661 b 236 725 296 714 288 725 b 176 661 186 725 176 714 l 176 549 l 49 549 l 49 669 b 238 846 49 826 83 846 b 435 669 401 846 435 824 l 435 163 b 238 -14 435 8 401 -14 b 49 163 83 -14 49 6 l 49 465 m 296 351 l 176 351 l 176 174 b 236 111 176 121 186 111 b 296 174 288 111 296 121 "},"ә":{"ha":485,"x_min":0,"x_max":0,"o":"m 49 465 l 49 163 b 238 -14 49 6 83 -14 b 435 163 401 -14 435 8 l 435 669 b 238 846 435 824 401 846 b 49 669 83 846 49 826 l 49 549 l 176 549 l 176 661 b 236 725 176 714 186 725 b 296 661 288 725 296 714 l 296 465 m 296 174 b 236 111 296 121 288 111 b 176 174 186 111 176 121 l 176 351 l 296 351 "},"Ǧ":{"ha":553,"x_min":0,"x_max":0,"o":"m 344 781 l 344 881 b 278 968 344 954 335 968 b 210 881 219 968 210 953 l 210 218 b 285 128 210 143 219 128 b 349 133 313 128 338 131 l 349 638 l 499 638 l 499 0 b 293 -14 472 -6 393 -14 b 50 218 89 -14 50 21 l 50 881 b 278 1111 50 1082 96 1111 b 499 881 457 1111 499 1083 l 499 781 m 75 1383 l 175 1383 l 276 1232 l 378 1383 l 478 1383 l 336 1153 l 217 1153 "},"ǧ":{"ha":508,"x_min":0,"x_max":0,"o":"m 221 -93 b 304 -14 283 -93 304 -76 l 304 93 b 179 36 282 56 249 36 b 50 206 72 36 50 82 l 50 669 b 183 839 50 797 75 839 b 315 771 246 839 288 825 l 315 832 l 447 832 l 447 -14 b 254 -212 447 -149 394 -212 l 72 -212 l 72 -93 l 221 -93 m 308 668 b 240 711 294 699 276 711 b 188 642 199 711 188 694 l 188 232 b 240 163 188 179 199 163 b 308 206 276 163 294 175 m 53 1118 l 153 1118 l 254 967 l 356 1118 l 456 1118 l 314 888 l 194 888 "},"Ǵ":{"ha":553,"x_min":0,"x_max":0,"o":"m 344 781 l 344 881 b 278 968 344 954 335 968 b 210 881 219 968 210 953 l 210 218 b 285 128 210 143 219 128 b 349 133 313 128 338 131 l 349 638 l 499 638 l 499 0 b 293 -14 472 -6 393 -14 b 50 218 89 -14 50 21 l 50 881 b 278 1111 50 1082 96 1111 b 499 881 457 1111 499 1083 l 499 781 m 257 1383 l 410 1383 l 278 1153 l 169 1153 "},"ǵ":{"ha":508,"x_min":0,"x_max":0,"o":"m 221 -93 b 304 -14 283 -93 304 -76 l 304 93 b 179 36 282 56 249 36 b 50 206 72 36 50 82 l 50 669 b 183 839 50 797 75 839 b 315 771 246 839 288 825 l 315 832 l 447 832 l 447 -14 b 254 -212 447 -149 394 -212 l 72 -212 l 72 -93 l 221 -93 m 308 668 b 240 711 294 699 276 711 b 188 642 199 711 188 694 l 188 232 b 240 163 188 179 199 163 b 308 206 276 163 294 175 m 261 1118 l 414 1118 l 282 888 l 174 888 "},"Ǹ":{"ha":600,"x_min":0,"x_max":0,"o":"m 369 0 l 204 685 l 199 685 l 199 0 l 61 0 l 61 1097 l 238 1097 l 396 393 l 401 393 l 401 1097 l 540 1097 l 540 0 m 379 1153 l 272 1153 l 139 1383 l 292 1383 "},"ǹ":{"ha":525,"x_min":0,"x_max":0,"o":"m 203 0 l 61 0 l 61 832 l 193 832 l 193 776 b 329 839 215 818 253 839 b 471 669 436 839 471 797 l 471 0 l 329 0 l 329 654 b 274 711 329 696 315 711 b 203 668 228 711 214 693 m 340 888 l 233 888 l 100 1118 l 253 1118 "},"Ț":{"ha":432,"x_min":0,"x_max":0,"o":"m 417 964 l 297 964 l 297 0 l 138 0 l 138 964 l 17 964 l 17 1097 l 417 1097 m 140 -28 l 282 -28 l 168 -257 l 69 -257 "},"ț":{"ha":333,"x_min":0,"x_max":0,"o":"m 303 717 l 206 717 l 206 194 b 275 121 206 138 219 121 l 301 121 l 301 0 l 265 0 b 64 176 113 0 64 54 l 64 717 l 13 717 l 13 832 l 64 832 l 64 1085 l 206 1085 l 206 832 l 303 832 m 114 -28 l 256 -28 l 142 -257 l 43 -257 "},"ȷ":{"ha":267,"x_min":0,"x_max":0,"o":"m 67 832 l 204 832 l 204 -14 b 19 -212 204 -147 150 -212 l -68 -212 l -68 -97 l 1 -97 b 67 -14 49 -97 67 -71 "},"Ɂ":{"ha":535,"x_min":0,"x_max":0,"o":"m 175 0 l 175 347 b 224 531 175 435 185 469 b 303 647 251 575 274 603 b 335 772 331 689 335 703 l 335 881 b 264 972 335 957 321 972 b 192 881 203 972 192 954 l 192 742 l 40 742 l 40 881 b 264 1111 40 1083 82 1111 b 490 881 449 1111 490 1082 l 490 783 b 442 588 490 690 479 653 b 365 456 415 542 392 507 b 329 338 344 415 329 374 l 329 0 "},"ɂ":{"ha":439,"x_min":0,"x_max":0,"o":"m 136 0 l 136 192 b 181 347 136 260 154 306 b 249 444 199 375 228 411 b 276 551 274 483 276 488 l 276 640 b 210 717 276 701 263 717 b 151 635 161 717 151 704 l 151 522 l 26 522 l 26 646 b 213 844 26 821 61 844 b 401 644 367 844 401 819 l 401 560 b 367 399 401 492 396 456 b 301 289 343 350 331 339 b 272 192 272 238 272 228 l 272 0 "},"Ɍ":{"ha":625,"x_min":0,"x_max":0,"o":"m 276 0 l 117 0 l 117 542 l -3 542 l -3 668 l 117 668 l 117 1097 l 344 1097 b 574 874 533 1097 574 1067 l 574 758 b 475 608 574 643 518 619 l 475 603 b 574 438 533 589 574 558 l 574 0 l 413 0 l 413 463 b 349 542 413 522 404 542 l 276 542 m 349 668 b 413 739 400 668 413 686 l 413 874 b 344 958 413 943 406 958 l 276 958 l 276 668 l 349 668 "},"ɍ":{"ha":468,"x_min":0,"x_max":0,"o":"m 406 315 l 203 315 l 203 0 l 61 0 l 61 315 l 0 315 l 0 400 l 61 400 l 61 832 l 193 832 l 193 776 b 326 839 213 814 253 839 b 451 669 419 839 451 799 l 451 463 l 324 463 l 324 653 b 272 711 324 693 314 711 b 203 665 233 711 214 696 l 203 400 l 406 400 "},"ɣ":{"ha":450,"x_min":0,"x_max":0,"o":"m 225 -257 b 107 -182 133 -257 107 -249 l 107 -162 b 114 -83 107 -126 108 -112 l 174 210 l 10 832 l 149 832 l 224 461 l 300 832 l 440 832 l 276 208 l 336 -83 b 343 -162 342 -112 343 -128 l 343 -182 b 225 -257 343 -249 315 -257 m 225 15 l 197 -90 b 193 -129 193 -106 193 -114 l 193 -147 b 225 -171 193 -168 197 -171 b 256 -147 253 -171 256 -168 l 256 -129 b 253 -90 256 -115 256 -104 "},"ɲ":{"ha":525,"x_min":0,"x_max":0,"o":"m 61 832 l 193 832 l 193 776 b 329 839 215 818 253 839 b 471 669 436 839 471 797 l 471 0 l 329 0 l 329 654 b 274 711 329 696 315 711 b 203 668 228 711 214 693 l 203 -14 b 14 -212 203 -147 144 -212 l -74 -212 l -74 -97 l -4 -97 b 61 -14 43 -97 61 -71 "},"ˆ":{"ha":442,"x_min":0,"x_max":0,"o":"m 422 888 l 322 888 l 221 1039 l 119 888 l 19 888 l 161 1118 l 282 1118 "},"ˇ":{"ha":442,"x_min":0,"x_max":0,"o":"m 19 1118 l 119 1118 l 221 967 l 322 1118 l 422 1118 l 281 888 l 161 888 "},"˘":{"ha":440,"x_min":0,"x_max":0,"o":"m 221 892 b 17 1118 100 892 17 957 l 106 1118 b 221 975 108 1000 156 975 b 336 1118 288 975 332 1000 l 425 1118 b 221 892 425 957 342 892 "},"˙":{"ha":267,"x_min":0,"x_max":0,"o":"m 204 953 l 64 953 l 64 1097 l 204 1097 "},"˚":{"ha":356,"x_min":0,"x_max":0,"o":"m 290 968 b 176 874 290 885 269 874 b 64 968 85 874 64 885 l 64 1024 b 176 1118 64 1107 85 1118 b 290 1024 269 1118 290 1107 m 232 1018 b 176 1058 232 1054 222 1058 b 122 1018 132 1058 122 1054 l 122 974 b 176 933 122 938 132 933 b 232 974 222 933 232 938 "},"˛":{"ha":347,"x_min":0,"x_max":0,"o":"m 271 0 b 186 -97 208 -29 186 -53 b 240 -144 186 -132 200 -144 l 290 -144 l 290 -257 l 182 -257 b 64 -143 88 -257 64 -204 b 203 0 64 -64 104 -32 "},"˜":{"ha":532,"x_min":0,"x_max":0,"o":"m 160 1004 b 64 954 110 1004 83 983 l 64 1056 b 161 1092 85 1075 118 1092 b 372 1049 232 1092 299 1049 b 469 1099 419 1049 449 1067 l 469 999 b 371 958 449 975 415 958 b 160 1004 296 958 233 1004 "},"˝":{"ha":524,"x_min":0,"x_max":0,"o":"m 357 1118 l 510 1118 l 375 888 l 268 888 m 107 1118 l 260 1118 l 128 888 l 19 888 "},"̀":{"ha":0,"x_min":0,"x_max":0,"o":"m -182 888 l -289 888 l -422 1118 l -269 1118 "},"́":{"ha":0,"x_min":0,"x_max":0,"o":"m -251 1118 l -99 1118 l -231 888 l -339 888 "},"̂":{"ha":0,"x_min":0,"x_max":0,"o":"m -58 888 l -158 888 l -260 1039 l -361 888 l -461 888 l -319 1118 l -199 1118 "},"̃":{"ha":0,"x_min":0,"x_max":0,"o":"m -367 1004 b -462 954 -417 1004 -443 983 l -462 1056 b -365 1092 -442 1075 -408 1092 b -154 1049 -294 1092 -228 1049 b -57 1099 -107 1049 -78 1067 l -57 999 b -156 958 -78 975 -111 958 b -367 1004 -231 958 -293 1004 "},"̄":{"ha":0,"x_min":0,"x_max":0,"o":"m -57 983 l -462 983 l -462 1068 l -57 1068 "},"̆":{"ha":0,"x_min":0,"x_max":0,"o":"m -258 892 b -462 1118 -379 892 -462 957 l -374 1118 b -258 975 -371 1000 -324 975 b -143 1118 -192 975 -147 1000 l -54 1118 b -258 892 -54 957 -137 892 "},"̇":{"ha":0,"x_min":0,"x_max":0,"o":"m -189 953 l -329 953 l -329 1097 l -189 1097 "},"̈":{"ha":0,"x_min":0,"x_max":0,"o":"m -62 953 l -204 953 l -204 1097 l -62 1097 m -314 953 l -454 953 l -454 1097 l -314 1097 "},"̉":{"ha":0,"x_min":0,"x_max":0,"o":"m -304 871 l -304 900 b -267 957 -304 929 -297 939 l -215 989 b -203 1011 -206 994 -203 1000 l -203 1035 b -262 1065 -203 1057 -212 1065 b -318 1032 -307 1065 -318 1058 l -318 996 l -387 996 l -387 1032 b -260 1118 -387 1108 -364 1118 b -132 1044 -156 1118 -132 1108 l -132 1014 b -176 940 -132 974 -143 961 l -222 911 b -236 889 -232 904 -236 899 l -236 871 "},"̊":{"ha":0,"x_min":0,"x_max":0,"o":"m -147 968 b -261 874 -147 885 -168 874 b -374 968 -353 874 -374 885 l -374 1024 b -261 1118 -374 1107 -353 1118 b -147 1024 -168 1118 -147 1107 m -206 1018 b -261 1058 -206 1054 -215 1058 b -315 1018 -306 1058 -315 1054 l -315 974 b -261 933 -315 938 -306 933 b -206 974 -215 933 -206 938 "},"̋":{"ha":0,"x_min":0,"x_max":0,"o":"m -118 1118 l 35 1118 l -100 888 l -207 888 m -368 1118 l -215 1118 l -347 888 l -456 888 "},"̌":{"ha":0,"x_min":0,"x_max":0,"o":"m -461 1118 l -361 1118 l -260 967 l -158 1118 l -58 1118 l -200 888 l -319 888 "},"̓":{"ha":0,"x_min":0,"x_max":0,"o":"m -332 1068 b -197 1224 -332 1169 -314 1224 l -186 1224 l -186 1158 l -204 1158 b -249 1093 -236 1158 -249 1143 l -249 1076 l -186 1076 l -186 894 l -332 894 "},"̛":{"ha":38,"x_min":0,"x_max":0,"o":"m -37 960 l 65 960 l 65 900 b -76 744 65 792 36 744 l -151 744 l -151 832 l -71 832 b -37 892 -43 836 -37 850 "},"̣":{"ha":0,"x_min":0,"x_max":0,"o":"m -189 -257 l -329 -257 l -329 -112 l -189 -112 "},"̦":{"ha":0,"x_min":0,"x_max":0,"o":"m -319 -28 l -178 -28 l -292 -257 l -390 -257 "},"̨":{"ha":0,"x_min":0,"x_max":0,"o":"m -186 0 b -271 -97 -249 -29 -271 -53 b -217 -144 -271 -132 -257 -144 l -167 -144 l -167 -257 l -275 -257 b -393 -143 -369 -257 -393 -204 b -254 0 -393 -64 -353 -32 "},"̭":{"ha":0,"x_min":0,"x_max":0,"o":"m -58 -258 l -158 -258 l -260 -107 l -361 -258 l -461 -258 l -319 -28 l -199 -28 "},"΄":{"ha":158,"x_min":0,"x_max":0,"o":"m 29 1133 l 144 1133 l 121 879 l 19 879 "},"΅":{"ha":449,"x_min":0,"x_max":0,"o":"m 126 953 l 18 953 l 18 1097 l 126 1097 m 172 1133 l 288 1133 l 265 879 l 164 879 m 432 953 l 324 953 l 324 1097 l 432 1097 "},"Ά":{"ha":685,"x_min":0,"x_max":0,"o":"m 474 0 l 474 244 l 339 244 l 339 0 l 183 0 l 183 881 b 403 1111 183 1082 225 1111 b 633 881 589 1111 633 1079 l 633 0 m 406 968 b 339 881 349 968 339 956 l 339 375 l 474 375 l 474 881 b 406 968 474 956 463 968 m 29 1133 l 144 1133 l 121 879 l 19 879 "},"·":{"ha":265,"x_min":0,"x_max":0,"o":"m 207 458 l 61 458 l 61 642 l 207 642 "},"Έ":{"ha":565,"x_min":0,"x_max":0,"o":"m 533 0 l 219 0 l 219 1097 l 532 1097 l 532 965 l 379 965 l 379 806 l 528 806 l 528 679 l 379 679 l 379 138 l 533 138 m 29 1133 l 144 1133 l 121 879 l 19 879 "},"Ή":{"ha":738,"x_min":0,"x_max":0,"o":"m 679 0 l 518 0 l 518 600 l 379 600 l 379 0 l 219 0 l 219 1097 l 379 1097 l 379 735 l 518 735 l 518 1097 l 679 1097 m 29 1133 l 144 1133 l 121 879 l 19 879 "},"Ί":{"ha":443,"x_min":0,"x_max":0,"o":"m 382 0 l 222 0 l 222 1097 l 382 1097 m 29 1133 l 144 1133 l 121 879 l 19 879 "},"Ό":{"ha":686,"x_min":0,"x_max":0,"o":"m 638 218 b 408 -14 638 14 597 -14 b 181 218 219 -14 181 14 l 181 881 b 408 1111 181 1083 219 1111 b 638 881 597 1111 638 1083 m 476 881 b 410 968 476 954 467 968 b 340 881 350 968 340 953 l 340 218 b 407 128 340 142 350 128 b 476 218 468 128 476 144 m 29 1133 l 144 1133 l 121 879 l 19 879 "},"Ύ":{"ha":647,"x_min":0,"x_max":0,"o":"m 644 1097 l 481 388 l 481 0 l 321 0 l 321 388 l 163 1097 l 321 1097 l 400 601 l 406 601 l 489 1097 m 29 1133 l 144 1133 l 121 879 l 19 879 "},"Ώ":{"ha":686,"x_min":0,"x_max":0,"o":"m 181 138 l 281 138 b 181 419 217 197 181 274 l 181 881 b 410 1111 181 1083 221 1111 b 639 881 599 1111 639 1083 l 639 419 b 538 138 639 274 604 197 l 639 138 l 639 0 l 428 0 l 428 146 b 478 413 465 182 478 261 l 478 881 b 410 969 478 956 467 969 b 340 881 351 969 340 956 l 340 413 b 390 146 340 261 351 183 l 390 0 l 181 0 m 29 1133 l 144 1133 l 121 879 l 19 879 "},"ΐ":{"ha":375,"x_min":0,"x_max":0,"o":"m 253 176 b 286 117 253 133 264 117 l 308 117 l 308 0 l 271 0 b 117 138 156 0 117 42 l 117 832 l 253 832 m 92 953 l -17 953 l -17 1097 l 92 1097 m 138 1133 l 253 1133 l 231 879 l 129 879 m 397 953 l 289 953 l 289 1097 l 397 1097 "},"Γ":{"ha":401,"x_min":0,"x_max":0,"o":"m 382 964 l 217 964 l 217 0 l 63 0 l 63 1097 l 382 1097 "},"Г":{"ha":401,"x_min":0,"x_max":0,"o":"m 382 1097 l 63 1097 l 63 0 l 217 0 l 217 964 l 382 964 "},"Δ":{"ha":528,"x_min":0,"x_max":0,"o":"m 386 1097 l 511 0 l 17 0 l 154 1097 m 188 139 l 342 139 l 271 897 l 265 897 "},"Θ":{"ha":554,"x_min":0,"x_max":0,"o":"m 507 218 b 278 -14 507 14 467 -14 b 50 218 89 -14 50 14 l 50 881 b 278 1111 50 1083 89 1111 b 507 881 467 1111 507 1083 m 346 657 l 210 657 l 210 218 b 276 128 210 142 219 128 b 346 218 338 128 346 144 m 210 781 l 346 781 l 346 881 b 279 968 346 954 336 968 b 210 881 219 968 210 953 "},"Λ":{"ha":515,"x_min":0,"x_max":0,"o":"m 381 1097 l 504 0 l 340 0 l 264 899 l 258 899 l 174 0 l 8 0 l 147 1097 "},"Ξ":{"ha":407,"x_min":0,"x_max":0,"o":"m 33 132 l 374 132 l 374 0 l 33 0 m 35 969 l 35 1097 l 372 1097 l 372 969 m 39 681 l 39 804 l 368 804 l 368 681 "},"Π":{"ha":579,"x_min":0,"x_max":0,"o":"m 518 0 l 363 0 l 363 964 l 217 964 l 217 0 l 63 0 l 63 1097 l 518 1097 "},"П":{"ha":579,"x_min":0,"x_max":0,"o":"m 518 1097 l 63 1097 l 63 0 l 217 0 l 217 964 l 363 964 l 363 0 l 518 0 "},"Σ":{"ha":424,"x_min":0,"x_max":0,"o":"m 156 132 l 393 132 l 393 0 l 25 0 l 25 129 l 206 700 l 33 992 l 33 1097 l 385 1097 l 385 968 l 189 968 l 335 713 "},"Φ":{"ha":706,"x_min":0,"x_max":0,"o":"m 42 785 b 250 1008 42 981 79 1008 l 286 1008 l 286 1097 l 418 1097 l 418 1008 l 454 1008 b 663 785 626 1008 663 981 l 663 318 b 454 93 663 122 626 93 l 418 93 l 418 0 l 286 0 l 286 93 l 250 93 b 42 318 79 93 42 122 m 178 318 b 249 226 178 240 189 226 l 286 226 l 286 876 l 249 876 b 178 785 189 876 178 863 m 526 785 b 456 876 526 863 515 876 l 418 876 l 418 226 l 456 226 b 526 318 515 226 526 240 "},"Ф":{"ha":706,"x_min":0,"x_max":0,"o":"m 42 318 b 250 93 42 122 79 93 l 286 93 l 286 0 l 418 0 l 418 93 l 454 93 b 663 318 626 93 663 122 l 663 785 b 454 1008 663 981 626 1008 l 418 1008 l 418 1097 l 286 1097 l 286 1008 l 250 1008 b 42 785 79 1008 42 981 m 178 785 b 249 876 178 863 189 876 l 286 876 l 286 226 l 249 226 b 178 318 189 226 178 240 m 526 318 b 456 226 526 240 515 226 l 418 226 l 418 876 l 456 876 b 526 785 515 876 526 863 "},"Ψ":{"ha":661,"x_min":0,"x_max":0,"o":"m 401 542 b 497 635 483 542 497 554 l 497 1097 l 631 1097 l 631 635 b 407 403 631 431 586 403 l 407 0 l 253 0 l 253 403 b 29 635 68 403 29 432 l 29 1097 l 163 1097 l 163 635 b 258 542 163 556 174 542 l 258 1097 l 401 1097 "},"Ω":{"ha":554,"x_min":0,"x_max":0,"o":"m 50 138 l 150 138 b 50 419 86 197 50 274 l 50 881 b 279 1111 50 1083 90 1111 b 508 881 468 1111 508 1083 l 508 419 b 407 138 508 274 474 197 l 508 138 l 508 0 l 297 0 l 297 146 b 347 413 335 182 347 261 l 347 881 b 279 969 347 956 336 969 b 210 881 221 969 210 956 l 210 413 b 260 146 210 261 221 183 l 260 0 l 50 0 "},"ά":{"ha":508,"x_min":0,"x_max":0,"o":"m 50 669 b 183 839 50 799 75 839 b 317 769 251 839 290 822 l 317 832 l 444 832 l 444 0 l 310 0 l 310 58 b 179 -7 288 15 253 -7 b 50 163 76 -7 50 36 m 311 669 b 239 715 297 699 281 715 b 183 643 196 715 183 697 l 183 188 b 239 115 183 133 196 115 b 311 161 281 115 297 132 m 200 1133 l 315 1133 l 292 879 l 190 879 "},"έ":{"ha":475,"x_min":0,"x_max":0,"o":"m 183 1133 l 299 1133 l 275 879 l 174 879 m 235 846 b 422 669 389 846 422 825 l 422 575 l 299 575 l 299 649 b 233 717 299 707 285 717 b 174 649 185 717 174 708 l 174 565 b 233 514 174 526 188 514 l 311 514 l 311 392 l 254 392 b 174 329 183 392 174 385 l 174 182 b 236 114 174 122 183 114 b 299 183 288 114 299 122 l 299 290 l 422 290 l 422 164 b 235 -14 422 7 389 -14 b 40 158 75 -14 40 8 l 40 317 b 125 463 40 426 76 447 b 40 579 88 472 40 489 l 40 675 b 235 846 40 824 75 846 "},"ή":{"ha":525,"x_min":0,"x_max":0,"o":"m 203 0 l 61 0 l 61 832 l 193 832 l 193 776 b 329 839 215 818 253 839 b 471 669 436 839 471 797 l 471 -212 l 329 -212 l 329 654 b 274 711 329 696 315 711 b 203 668 228 711 214 693 m 208 1133 l 324 1133 l 300 879 l 199 879 "},"ί":{"ha":265,"x_min":0,"x_max":0,"o":"m 196 176 b 229 117 196 133 207 117 l 251 117 l 251 0 l 214 0 b 60 138 99 0 60 42 l 60 832 l 196 832 m 78 1133 l 193 1133 l 169 879 l 68 879 "},"ΰ":{"ha":521,"x_min":0,"x_max":0,"o":"m 324 832 l 457 832 l 457 163 b 260 -14 457 7 421 -14 b 63 163 99 -14 63 7 l 63 832 l 196 832 l 196 188 b 256 113 196 124 206 113 b 324 188 313 113 324 126 m 161 953 l 53 953 l 53 1097 l 161 1097 m 207 1133 l 322 1133 l 300 879 l 199 879 m 467 953 l 358 953 l 358 1097 l 467 1097 "},"α":{"ha":508,"x_min":0,"x_max":0,"o":"m 50 669 b 183 839 50 799 75 839 b 317 769 251 839 290 822 l 317 832 l 444 832 l 444 0 l 310 0 l 310 58 b 179 -7 288 15 253 -7 b 50 163 76 -7 50 36 m 311 669 b 239 715 297 699 281 715 b 183 643 196 715 183 697 l 183 188 b 239 115 183 133 196 115 b 311 161 281 115 297 132 "},"β":{"ha":531,"x_min":0,"x_max":0,"o":"m 460 747 b 375 594 460 632 415 608 b 472 404 431 579 472 549 l 472 225 b 288 0 472 39 439 0 l 193 0 l 193 -212 l 61 -212 l 61 929 b 250 1111 61 1093 136 1111 b 460 929 372 1111 460 1090 m 193 138 l 269 138 b 329 250 319 138 329 172 l 329 410 b 263 524 329 497 314 524 l 235 524 l 235 665 l 260 665 b 315 746 306 665 315 686 l 315 919 b 253 993 315 974 299 993 b 193 918 207 993 193 974 "},"γ":{"ha":450,"x_min":0,"x_max":0,"o":"m 286 -4 l 286 -212 l 158 -212 l 158 -3 l 8 832 l 153 832 l 221 299 l 226 299 l 297 832 l 439 832 "},"ү":{"ha":450,"x_min":0,"x_max":0,"o":"m 439 832 l 297 832 l 226 299 l 221 299 l 153 832 l 8 832 l 158 -3 l 158 -212 l 286 -212 l 286 -4 "},"δ":{"ha":497,"x_min":0,"x_max":0,"o":"m 51 575 b 113 736 51 671 64 715 b 51 876 60 767 51 799 l 51 933 b 247 1111 51 1090 85 1111 b 444 933 411 1111 444 1090 l 444 874 l 313 874 l 313 908 b 249 983 313 972 304 983 b 185 908 193 983 185 972 l 185 883 b 222 813 185 843 192 829 b 375 740 257 793 350 753 b 444 610 431 713 444 685 l 444 163 b 247 -14 444 7 410 -14 b 51 163 86 -14 51 7 l 51 575 m 313 582 b 292 651 313 621 310 638 l 247 651 b 185 578 192 651 185 640 l 185 189 b 247 113 185 125 194 113 b 313 189 301 113 313 125 "},"ε":{"ha":475,"x_min":0,"x_max":0,"o":"m 235 846 b 422 669 389 846 422 825 l 422 575 l 299 575 l 299 649 b 233 717 299 707 285 717 b 174 649 185 717 174 708 l 174 565 b 233 514 174 526 188 514 l 311 514 l 311 392 l 254 392 b 174 329 183 392 174 385 l 174 182 b 236 114 174 122 183 114 b 299 183 288 114 299 122 l 299 290 l 422 290 l 422 164 b 235 -14 422 7 389 -14 b 40 158 75 -14 40 8 l 40 317 b 125 463 40 426 76 447 b 40 579 88 472 40 489 l 40 675 b 235 846 40 824 75 846 "},"ζ":{"ha":438,"x_min":0,"x_max":0,"o":"m 206 418 b 175 264 182 356 175 331 l 175 192 b 214 111 175 139 181 131 b 360 36 261 83 313 63 b 432 -139 424 0 432 -18 l 432 -212 l 299 -212 l 299 -143 b 261 -60 299 -86 293 -79 b 117 14 213 -31 147 -3 b 43 178 50 49 43 81 l 43 290 b 85 476 43 356 51 388 l 279 985 l 75 985 l 75 1097 l 415 1097 l 415 993 "},"η":{"ha":525,"x_min":0,"x_max":0,"o":"m 203 0 l 61 0 l 61 832 l 193 832 l 193 776 b 329 839 215 818 253 839 b 471 669 436 839 471 797 l 471 -212 l 329 -212 l 329 654 b 274 711 329 696 315 711 b 203 668 228 711 214 693 "},"θ":{"ha":497,"x_min":0,"x_max":0,"o":"m 444 163 b 247 -14 444 7 408 -14 b 50 163 85 -14 50 8 l 50 935 b 247 1111 50 1090 86 1111 b 444 935 410 1111 444 1086 m 311 585 l 183 585 l 183 188 b 247 113 183 124 194 113 b 311 188 303 113 311 128 m 183 701 l 311 701 l 311 908 b 247 982 311 972 301 982 b 183 908 193 982 183 969 "},"ι":{"ha":265,"x_min":0,"x_max":0,"o":"m 196 176 b 229 117 196 133 207 117 l 251 117 l 251 0 l 214 0 b 60 138 99 0 60 42 l 60 832 l 196 832 "},"κ":{"ha":506,"x_min":0,"x_max":0,"o":"m 338 0 l 207 428 l 201 428 l 201 0 l 61 0 l 61 832 l 201 832 l 201 525 l 207 525 l 324 832 l 478 832 l 326 485 l 496 0 "},"к":{"ha":506,"x_min":0,"x_max":0,"o":"m 496 0 l 326 485 l 478 832 l 324 832 l 207 525 l 201 525 l 201 832 l 61 832 l 61 0 l 201 0 l 201 428 l 207 428 l 338 0 "},"λ":{"ha":468,"x_min":0,"x_max":0,"o":"m 113 1097 b 313 889 238 1097 286 1053 l 458 0 l 314 0 l 238 525 l 232 525 l 151 0 l 8 0 l 165 843 b 86 994 142 978 129 994 l 49 994 l 49 1097 "},"μ":{"ha":522,"x_min":0,"x_max":0,"o":"m 56 -212 l 56 832 l 197 832 l 197 176 b 251 119 197 138 208 119 b 319 163 293 119 308 136 l 319 832 l 463 832 l 463 0 l 329 0 l 329 54 b 204 -6 308 11 267 -6 b 174 -3 186 -6 178 -4 l 186 -212 "},"ξ":{"ha":438,"x_min":0,"x_max":0,"o":"m 175 192 b 214 111 175 139 181 131 b 360 36 261 83 313 63 b 432 -139 424 0 432 -18 l 432 -212 l 299 -212 l 299 -143 b 261 -60 299 -86 293 -79 b 117 14 213 -31 151 -6 b 43 178 50 50 43 78 l 43 582 b 128 728 43 692 78 713 b 43 844 89 738 43 754 l 43 940 b 235 1111 43 1089 75 1111 b 424 935 390 1111 424 1090 l 424 851 l 299 851 l 299 914 b 239 982 299 971 289 982 b 175 914 188 982 175 971 l 175 831 b 235 779 175 792 189 779 l 314 779 l 314 657 l 235 657 b 175 594 183 657 175 642 "},"π":{"ha":558,"x_min":0,"x_max":0,"o":"m 535 721 l 469 721 l 469 176 b 507 117 469 133 482 117 l 526 117 l 526 0 l 488 0 b 333 138 372 0 333 42 l 333 721 l 219 721 l 219 0 l 83 0 l 83 721 l 21 721 l 21 832 l 535 832 "},"ρ":{"ha":503,"x_min":0,"x_max":0,"o":"m 450 163 b 317 -7 450 38 418 -7 b 193 51 239 -7 213 19 l 193 -212 l 56 -212 l 56 669 b 253 846 56 825 92 846 b 450 669 414 846 450 825 m 317 643 b 254 717 317 706 307 717 b 189 643 199 717 189 704 l 189 161 b 261 115 201 135 217 115 b 317 188 306 115 317 135 "},"ς":{"ha":472,"x_min":0,"x_max":0,"o":"m 53 669 b 244 846 53 822 89 846 b 436 669 406 846 436 821 l 436 524 l 311 524 l 311 657 b 249 718 311 707 300 718 b 186 657 193 718 186 706 l 186 193 b 224 111 186 140 190 131 b 369 36 272 82 321 64 b 442 -139 433 0 442 -18 l 442 -212 l 308 -212 l 308 -143 b 271 -60 308 -86 303 -79 b 126 14 222 -31 168 -8 b 53 178 60 50 53 78 "},"σ":{"ha":538,"x_min":0,"x_max":0,"o":"m 425 714 b 436 585 433 681 436 639 l 436 163 b 244 -14 436 7 407 -14 b 50 163 83 -14 50 7 l 50 656 b 244 832 50 811 83 832 l 526 832 l 526 714 m 308 643 b 294 714 308 676 303 699 l 244 714 b 183 640 192 714 183 704 l 183 188 b 244 113 183 125 192 113 b 308 188 300 113 308 126 l 308 643 "},"τ":{"ha":443,"x_min":0,"x_max":0,"o":"m 424 714 l 283 714 l 283 176 b 317 117 283 133 296 117 l 339 117 l 339 0 l 301 0 b 147 136 186 0 147 42 l 147 714 l 17 714 l 17 832 l 424 832 "},"υ":{"ha":521,"x_min":0,"x_max":0,"o":"m 324 832 l 457 832 l 457 163 b 260 -14 457 7 421 -14 b 63 163 99 -14 63 7 l 63 832 l 196 832 l 196 188 b 256 113 196 124 206 113 b 324 188 313 113 324 126 "},"φ":{"ha":681,"x_min":0,"x_max":0,"o":"m 403 832 l 436 832 b 629 656 597 832 629 811 l 629 176 b 436 0 629 21 597 0 l 403 0 l 403 -212 l 276 -212 l 276 0 l 243 0 b 50 176 82 0 50 21 l 50 656 b 243 832 50 811 82 832 l 276 832 l 276 1097 l 403 1097 m 436 125 b 499 200 489 125 499 136 l 499 631 b 436 706 499 694 489 706 l 403 706 l 403 125 m 276 125 l 276 706 l 243 706 b 181 631 190 706 181 694 l 181 200 b 243 125 181 136 190 125 "},"ф":{"ha":681,"x_min":0,"x_max":0,"o":"m 403 1097 l 276 1097 l 276 832 l 243 832 b 50 656 82 832 50 811 l 50 176 b 243 0 50 21 82 0 l 276 0 l 276 -212 l 403 -212 l 403 0 l 436 0 b 629 176 597 0 629 21 l 629 656 b 436 832 629 811 597 832 l 403 832 m 403 125 l 403 706 l 436 706 b 499 631 489 706 499 694 l 499 200 b 436 125 499 136 489 125 m 243 125 b 181 200 190 125 181 136 l 181 631 b 243 706 181 694 190 706 l 276 706 l 276 125 "},"χ":{"ha":468,"x_min":0,"x_max":0,"o":"m 440 832 l 339 335 l 456 -212 l 314 -212 l 229 258 l 146 -212 l 10 -212 l 122 335 l 15 832 l 156 832 l 238 424 l 313 832 "},"ψ":{"ha":704,"x_min":0,"x_max":0,"o":"m 449 125 b 511 200 501 125 511 136 l 511 832 l 640 832 l 640 176 b 449 0 640 21 603 0 l 415 0 l 415 -212 l 288 -212 l 288 0 l 254 0 b 63 176 94 0 63 22 l 63 832 l 192 832 l 192 200 b 254 125 192 136 201 125 l 288 125 l 288 1097 l 415 1097 l 415 125 "},"ω":{"ha":733,"x_min":0,"x_max":0,"o":"m 424 188 b 481 113 424 124 433 113 b 540 188 532 113 540 126 l 540 832 l 668 832 l 668 163 b 510 -14 668 17 635 -14 b 368 61 421 -14 388 1 l 363 61 b 221 -14 340 0 304 -14 b 63 163 97 -14 63 17 l 63 832 l 192 832 l 192 188 b 249 113 192 125 200 113 b 308 188 296 113 308 124 l 308 663 l 424 663 "},"ϊ":{"ha":368,"x_min":0,"x_max":0,"o":"m 250 176 b 283 117 250 133 261 117 l 306 117 l 306 0 l 268 0 b 114 138 153 0 114 42 l 114 832 l 250 832 m 382 953 l 240 953 l 240 1097 l 382 1097 m 131 953 l -10 953 l -10 1097 l 131 1097 "},"ϋ":{"ha":521,"x_min":0,"x_max":0,"o":"m 324 832 l 457 832 l 457 163 b 260 -14 457 7 421 -14 b 63 163 99 -14 63 7 l 63 832 l 196 832 l 196 188 b 256 113 196 124 206 113 b 324 188 313 113 324 126 m 458 953 l 317 953 l 317 1097 l 458 1097 m 207 953 l 67 953 l 67 1097 l 207 1097 "},"ό":{"ha":497,"x_min":0,"x_max":0,"o":"m 447 163 b 249 -14 447 7 411 -14 b 50 163 85 -14 50 7 l 50 669 b 249 846 50 825 85 846 b 447 669 411 846 447 825 m 310 654 b 251 713 310 703 300 713 b 188 654 199 713 188 701 l 188 176 b 249 117 188 129 197 117 b 310 176 301 117 310 131 m 194 1133 l 310 1133 l 286 879 l 185 879 "},"ύ":{"ha":521,"x_min":0,"x_max":0,"o":"m 207 1133 l 322 1133 l 299 879 l 197 879 m 324 832 l 457 832 l 457 163 b 260 -14 457 7 421 -14 b 63 163 99 -14 63 7 l 63 832 l 196 832 l 196 188 b 256 113 196 124 206 113 b 324 188 313 113 324 126 "},"ώ":{"ha":733,"x_min":0,"x_max":0,"o":"m 424 188 b 481 113 424 124 433 113 b 540 188 532 113 540 126 l 540 832 l 668 832 l 668 163 b 510 -14 668 17 635 -14 b 368 61 421 -14 388 1 l 363 61 b 221 -14 340 0 304 -14 b 63 163 97 -14 63 17 l 63 832 l 192 832 l 192 188 b 249 113 192 125 200 113 b 308 188 296 113 308 124 l 308 663 l 424 663 m 313 1133 l 428 1133 l 404 879 l 303 879 "},"Ђ":{"ha":642,"x_min":0,"x_max":0,"o":"m 594 -21 b 389 -212 594 -162 540 -212 l 274 -212 l 274 -99 l 369 -99 b 440 -21 426 -99 440 -86 l 440 532 b 382 625 440 614 428 625 b 303 608 347 625 319 618 l 303 0 l 147 0 l 147 964 l 19 964 l 19 1097 l 458 1097 l 458 964 l 303 964 l 303 742 b 442 764 338 756 383 764 b 594 532 553 764 594 735 "},"Ѓ":{"ha":401,"x_min":0,"x_max":0,"o":"m 224 1383 l 376 1383 l 244 1153 l 136 1153 m 382 964 l 217 964 l 217 0 l 63 0 l 63 1097 l 382 1097 "},"Є":{"ha":547,"x_min":0,"x_max":0,"o":"m 347 801 l 347 881 b 276 972 347 957 336 972 b 204 881 215 972 204 957 l 204 732 l 369 732 l 369 610 l 204 610 l 204 218 b 274 124 204 139 217 124 b 347 218 336 124 347 142 l 347 513 l 496 513 l 496 218 b 276 -14 496 13 454 -14 b 50 218 90 -14 50 15 l 50 881 b 276 1111 50 1082 90 1111 b 496 881 454 1111 496 1085 l 496 801 "},"Љ":{"ha":885,"x_min":0,"x_max":0,"o":"m 274 575 b 56 0 274 78 215 0 l 17 0 l 17 133 l 56 133 b 147 574 122 133 147 176 l 147 1097 l 551 1097 l 551 733 l 610 733 b 838 510 799 733 838 703 l 838 224 b 610 0 838 28 797 0 l 397 0 l 397 963 l 274 963 m 610 132 b 682 224 671 132 682 146 l 682 518 b 610 608 682 594 671 608 l 551 608 l 551 132 "},"Њ":{"ha":850,"x_min":0,"x_max":0,"o":"m 589 733 b 817 510 776 733 817 703 l 817 224 b 589 0 817 28 776 0 l 363 0 l 363 603 l 215 603 l 215 0 l 61 0 l 61 1097 l 215 1097 l 215 732 l 363 732 l 363 1097 l 517 1097 l 517 733 m 589 132 b 661 224 650 132 661 146 l 661 518 b 589 608 661 594 650 608 l 517 608 l 517 132 "},"Ћ":{"ha":642,"x_min":0,"x_max":0,"o":"m 19 1097 l 458 1097 l 458 964 l 303 964 l 303 742 b 442 764 338 756 383 764 b 594 532 553 764 594 735 l 594 0 l 440 0 l 440 532 b 382 625 440 614 428 625 b 303 608 347 625 319 618 l 303 0 l 147 0 l 147 964 l 19 964 "},"Ќ":{"ha":561,"x_min":0,"x_max":0,"o":"m 532 1097 l 368 642 l 554 0 l 381 0 l 229 576 l 222 576 l 222 0 l 61 0 l 61 1097 l 222 1097 l 222 682 l 229 682 l 364 1097 m 289 1383 l 442 1383 l 310 1153 l 201 1153 "},"Ѝ":{"ha":579,"x_min":0,"x_max":0,"o":"m 368 1153 l 261 1153 l 128 1383 l 281 1383 m 61 0 l 61 1097 l 201 1097 l 201 394 l 207 394 l 342 1097 l 517 1097 l 517 0 l 378 0 l 378 685 l 372 685 l 231 0 "},"Ў":{"ha":521,"x_min":0,"x_max":0,"o":"m 261 1157 b 57 1383 140 1157 57 1222 l 146 1383 b 261 1240 149 1265 196 1240 b 376 1383 328 1240 372 1265 l 465 1383 b 261 1157 465 1222 382 1157 m 171 1097 l 257 542 l 263 542 l 346 1097 l 504 1097 l 315 158 b 146 0 292 39 260 0 l 49 0 l 49 133 l 114 133 b 178 179 154 133 172 142 l 189 254 l 11 1097 "},"Џ":{"ha":564,"x_min":0,"x_max":0,"o":"m 363 1097 l 517 1097 l 517 0 l 354 0 l 354 -197 l 224 -197 l 224 0 l 61 0 l 61 1097 l 215 1097 l 215 133 l 363 133 "},"Б":{"ha":549,"x_min":0,"x_max":0,"o":"m 288 733 b 515 510 476 733 515 703 l 515 224 b 288 0 515 28 475 0 l 61 0 l 61 1097 l 488 1097 l 488 963 l 215 963 l 215 733 m 288 132 b 360 265 343 132 360 147 l 360 474 b 288 608 360 597 339 608 l 215 608 l 215 132 "},"Д":{"ha":664,"x_min":0,"x_max":0,"o":"m 646 -197 l 515 -197 l 515 0 l 147 0 l 147 -197 l 18 -197 l 18 133 l 61 133 b 149 574 122 133 149 188 l 149 1097 l 567 1097 l 567 133 l 646 133 m 275 576 b 228 133 275 319 260 200 l 411 133 l 411 964 l 275 964 "},"Ж":{"ha":775,"x_min":0,"x_max":0,"o":"m 458 1097 l 458 682 l 464 682 l 594 1097 l 743 1097 l 585 633 l 765 0 l 613 0 l 464 564 l 458 564 l 458 0 l 315 0 l 315 564 l 308 564 l 161 0 l 8 0 l 188 633 l 29 1097 l 179 1097 l 308 682 l 315 682 l 315 1097 "},"З":{"ha":543,"x_min":0,"x_max":0,"o":"m 194 239 b 265 124 194 147 199 124 b 336 211 321 124 336 140 l 336 526 b 267 610 336 588 322 610 l 172 610 l 172 732 l 267 732 b 336 801 322 732 336 751 l 336 882 b 267 972 336 960 322 972 b 194 881 204 972 194 957 l 194 801 l 46 801 l 46 881 b 261 1111 46 1082 88 1111 b 492 888 451 1111 492 1076 l 492 819 b 392 668 492 706 436 676 b 492 475 450 649 492 622 l 492 211 b 267 -14 492 15 451 -14 b 46 218 88 -14 46 14 l 46 513 l 194 513 "},"И":{"ha":579,"x_min":0,"x_max":0,"o":"m 61 0 l 61 1097 l 201 1097 l 201 394 l 207 394 l 342 1097 l 517 1097 l 517 0 l 378 0 l 378 685 l 372 685 l 231 0 "},"Й":{"ha":579,"x_min":0,"x_max":0,"o":"m 290 1157 b 86 1383 169 1157 86 1222 l 175 1383 b 290 1240 178 1265 225 1240 b 406 1383 357 1240 401 1265 l 494 1383 b 290 1157 494 1222 411 1157 m 61 0 l 61 1097 l 201 1097 l 201 394 l 207 394 l 342 1097 l 517 1097 l 517 0 l 378 0 l 378 685 l 372 685 l 231 0 "},"Л":{"ha":628,"x_min":0,"x_max":0,"o":"m 275 576 b 56 0 275 79 217 0 l 18 0 l 18 133 l 56 133 b 149 574 122 133 149 178 l 149 1097 l 567 1097 l 567 0 l 411 0 l 411 964 l 275 964 "},"У":{"ha":521,"x_min":0,"x_max":0,"o":"m 171 1097 l 257 542 l 263 542 l 346 1097 l 504 1097 l 315 158 b 146 0 292 39 260 0 l 49 0 l 49 133 l 114 133 b 178 179 154 133 172 142 l 189 254 l 11 1097 "},"Ц":{"ha":614,"x_min":0,"x_max":0,"o":"m 597 -197 l 467 -197 l 467 0 l 63 0 l 63 1097 l 217 1097 l 217 133 l 363 133 l 363 1097 l 518 1097 l 518 133 l 597 133 "},"Ч":{"ha":536,"x_min":0,"x_max":0,"o":"m 246 700 b 326 717 279 700 308 706 l 326 1097 l 481 1097 l 481 0 l 326 0 l 326 583 b 186 561 290 569 244 561 b 32 793 75 561 32 592 l 32 1097 l 186 1097 l 186 847 b 246 700 186 726 189 700 "},"Ш":{"ha":785,"x_min":0,"x_max":0,"o":"m 721 0 l 61 0 l 61 1097 l 210 1097 l 210 133 l 318 133 l 318 1097 l 464 1097 l 464 133 l 572 133 l 572 1097 l 721 1097 "},"Щ":{"ha":819,"x_min":0,"x_max":0,"o":"m 800 -197 l 671 -197 l 671 0 l 63 0 l 63 1097 l 211 1097 l 211 133 l 319 133 l 319 1097 l 464 1097 l 464 133 l 574 133 l 574 1097 l 722 1097 l 722 133 l 800 133 "},"Ъ":{"ha":644,"x_min":0,"x_max":0,"o":"m 383 733 b 610 510 571 733 610 703 l 610 224 b 383 0 610 28 569 0 l 157 0 l 157 963 l 18 963 l 18 1097 l 311 1097 l 311 733 m 383 132 b 454 265 442 132 454 144 l 454 474 b 383 608 454 597 442 608 l 311 608 l 311 132 "},"Ы":{"ha":833,"x_min":0,"x_max":0,"o":"m 772 0 l 613 0 l 613 1097 l 772 1097 m 288 132 b 360 265 351 132 360 144 l 360 474 b 288 608 360 597 347 608 l 215 608 l 215 132 m 288 733 b 515 510 476 733 515 703 l 515 224 b 288 0 515 28 475 0 l 61 0 l 61 1097 l 215 1097 l 215 733 "},"Ь":{"ha":549,"x_min":0,"x_max":0,"o":"m 288 132 b 360 265 351 132 360 144 l 360 474 b 288 608 360 597 347 608 l 215 608 l 215 132 m 288 733 b 515 510 476 733 515 703 l 515 224 b 288 0 515 28 475 0 l 61 0 l 61 1097 l 215 1097 l 215 733 "},"Э":{"ha":547,"x_min":0,"x_max":0,"o":"m 53 801 l 53 881 b 272 1111 53 1085 94 1111 b 499 881 458 1111 499 1082 l 499 218 b 272 -14 499 15 458 -14 b 53 218 94 -14 53 13 l 53 513 l 201 513 l 201 218 b 275 124 201 142 213 124 b 344 218 332 124 344 139 l 344 610 l 179 610 l 179 732 l 344 732 l 344 881 b 272 972 344 957 333 972 b 201 881 213 972 201 957 l 201 801 "},"Ю":{"ha":808,"x_min":0,"x_max":0,"o":"m 761 218 b 532 -14 761 14 721 -14 b 304 218 343 -14 304 14 l 304 681 l 224 681 l 224 0 l 64 0 l 64 1097 l 224 1097 l 224 804 l 304 804 l 304 881 b 532 1111 304 1083 343 1111 b 761 881 721 1111 761 1083 m 600 881 b 533 968 600 954 590 968 b 464 881 474 968 464 953 l 464 218 b 531 128 464 142 474 128 b 600 218 592 128 600 144 "},"Я":{"ha":568,"x_min":0,"x_max":0,"o":"m 285 540 l 176 0 l 17 0 l 143 553 b 51 764 71 574 51 629 l 51 874 b 279 1097 51 1069 92 1097 l 506 1097 l 506 0 l 351 0 l 351 540 m 279 963 b 207 874 213 963 207 946 l 207 772 b 279 665 207 686 211 665 l 351 665 l 351 963 "},"б":{"ha":503,"x_min":0,"x_max":0,"o":"m 407 994 l 272 994 b 193 910 214 994 193 968 l 193 779 b 321 839 218 818 247 839 b 450 669 425 839 450 796 l 450 163 b 254 -14 450 7 407 -14 b 56 163 92 -14 56 10 l 56 921 b 256 1097 56 1043 107 1097 l 407 1097 m 261 715 b 189 669 218 715 200 697 l 189 188 b 251 113 189 125 200 113 b 317 188 310 113 317 129 l 317 643 b 261 715 317 697 304 715 "},"в":{"ha":500,"x_min":0,"x_max":0,"o":"m 374 481 b 458 339 424 469 458 447 l 458 171 b 260 0 458 22 424 0 l 61 0 l 61 832 l 260 832 b 458 663 424 832 458 811 l 458 600 b 374 486 458 515 404 490 l 374 481 m 199 107 l 260 107 b 318 175 310 107 318 117 l 318 351 b 263 431 318 407 318 431 l 199 431 m 199 535 l 263 535 b 318 585 307 535 318 547 l 318 657 b 260 724 318 714 310 724 l 199 724 "},"г":{"ha":378,"x_min":0,"x_max":0,"o":"m 360 715 l 200 715 l 200 0 l 65 0 l 65 832 l 360 832 "},"д":{"ha":581,"x_min":0,"x_max":0,"o":"m 57 115 b 124 435 101 115 124 154 l 124 832 l 483 832 l 483 115 l 563 115 l 563 -153 l 447 -153 l 447 0 l 132 0 l 132 -153 l 17 -153 l 17 115 m 347 714 l 233 714 l 233 436 b 200 115 233 254 222 165 l 347 115 "},"ж":{"ha":651,"x_min":0,"x_max":0,"o":"m 507 0 l 390 429 l 385 429 l 385 0 l 264 0 l 264 429 l 258 429 l 143 0 l 10 0 l 154 482 l 28 832 l 157 832 l 258 519 l 264 519 l 264 832 l 385 832 l 385 519 l 390 519 l 492 832 l 622 832 l 496 482 l 640 0 "},"з":{"ha":475,"x_min":0,"x_max":0,"o":"m 238 114 b 300 182 289 114 300 124 l 300 329 b 221 392 300 388 283 392 l 161 392 l 161 514 l 240 514 b 300 565 289 514 300 528 l 300 649 b 236 717 300 707 289 717 b 175 649 183 717 175 707 l 175 575 l 50 575 l 50 669 b 239 846 50 825 85 846 b 433 675 400 846 433 824 l 433 579 b 347 464 433 490 386 471 b 433 317 396 446 433 428 l 433 158 b 240 -14 433 8 400 -14 b 50 164 85 -14 50 7 l 50 290 l 175 290 l 175 183 b 238 114 175 122 186 114 "},"и":{"ha":531,"x_min":0,"x_max":0,"o":"m 61 0 l 61 832 l 189 832 l 189 317 l 194 317 l 331 832 l 467 832 l 467 0 l 340 0 l 340 503 l 335 503 l 190 0 "},"й":{"ha":531,"x_min":0,"x_max":0,"o":"m 265 892 b 61 1118 144 892 61 957 l 150 1118 b 265 975 153 1000 200 975 b 381 1118 332 975 376 1000 l 469 1118 b 265 892 469 957 386 892 m 61 0 l 61 832 l 189 832 l 189 317 l 194 317 l 331 832 l 467 832 l 467 0 l 340 0 l 340 503 l 335 503 l 190 0 "},"л":{"ha":546,"x_min":0,"x_max":0,"o":"m 235 438 b 46 0 235 60 183 0 l 18 0 l 18 115 l 49 115 b 124 435 104 115 124 146 l 124 832 l 485 832 l 485 0 l 349 0 l 349 715 l 235 715 "},"м":{"ha":688,"x_min":0,"x_max":0,"o":"m 624 832 l 624 0 l 504 0 l 504 575 l 499 575 l 403 0 l 285 0 l 188 579 l 182 579 l 182 0 l 61 0 l 61 832 l 256 832 l 340 257 l 346 257 l 431 832 "},"н":{"ha":531,"x_min":0,"x_max":0,"o":"m 468 0 l 332 0 l 332 378 l 197 378 l 197 0 l 63 0 l 63 832 l 197 832 l 197 499 l 332 499 l 332 832 l 468 832 "},"п":{"ha":531,"x_min":0,"x_max":0,"o":"m 468 0 l 332 0 l 332 715 l 197 715 l 197 0 l 63 0 l 63 832 l 468 832 "},"т":{"ha":443,"x_min":0,"x_max":0,"o":"m 18 832 l 424 832 l 424 715 l 289 715 l 289 0 l 153 0 l 153 715 l 18 715 "},"ц":{"ha":565,"x_min":0,"x_max":0,"o":"m 546 -153 l 431 -153 l 431 0 l 63 0 l 63 832 l 197 832 l 197 115 l 332 115 l 332 832 l 468 832 l 468 115 l 546 115 "},"ч":{"ha":510,"x_min":0,"x_max":0,"o":"m 235 486 b 311 500 269 486 296 492 l 311 832 l 447 832 l 447 0 l 311 0 l 311 386 b 179 369 279 376 235 369 b 42 599 68 369 42 396 l 42 832 l 178 832 l 178 607 b 235 486 178 497 185 486 "},"ш":{"ha":735,"x_min":0,"x_max":0,"o":"m 672 0 l 63 0 l 63 832 l 196 832 l 196 115 l 303 115 l 303 832 l 432 832 l 432 115 l 539 115 l 539 832 l 672 832 "},"щ":{"ha":768,"x_min":0,"x_max":0,"o":"m 750 -153 l 635 -153 l 635 0 l 63 0 l 63 832 l 196 832 l 196 115 l 303 115 l 303 832 l 432 832 l 432 115 l 539 115 l 539 832 l 672 832 l 672 115 l 750 115 "},"ъ":{"ha":574,"x_min":0,"x_max":0,"o":"m 17 832 l 272 832 l 272 563 l 326 563 b 529 390 494 563 529 538 l 529 171 b 326 0 529 21 485 0 l 135 0 l 135 714 l 17 714 m 326 115 b 392 176 382 115 392 125 l 392 389 b 326 457 392 449 383 457 l 272 457 l 272 115 "},"ы":{"ha":767,"x_min":0,"x_max":0,"o":"m 253 115 b 318 176 308 115 318 125 l 318 389 b 253 457 318 449 311 457 l 199 457 l 199 115 m 199 832 l 199 563 l 253 563 b 456 390 421 563 456 542 l 456 171 b 253 0 456 21 421 0 l 61 0 l 61 832 m 704 0 l 564 0 l 564 832 l 704 832 "},"ь":{"ha":500,"x_min":0,"x_max":0,"o":"m 253 115 b 318 176 308 115 318 125 l 318 389 b 253 457 318 449 311 457 l 199 457 l 199 115 m 199 832 l 199 563 l 253 563 b 456 390 421 563 456 542 l 456 171 b 253 0 456 21 421 0 l 61 0 l 61 832 "},"э":{"ha":482,"x_min":0,"x_max":0,"o":"m 164 499 l 300 499 l 300 643 b 238 718 300 707 292 718 b 175 643 186 718 175 707 l 175 576 l 50 576 l 50 669 b 239 846 50 825 86 846 b 433 669 400 846 433 824 l 433 163 b 239 -14 433 7 400 -14 b 50 163 86 -14 50 6 l 50 290 l 175 290 l 175 189 b 238 113 175 124 186 113 b 300 189 292 113 300 125 l 300 378 l 164 378 "},"ю":{"ha":729,"x_min":0,"x_max":0,"o":"m 204 496 l 283 496 l 283 669 b 482 846 283 825 318 846 b 681 669 644 846 681 825 l 681 163 b 482 -14 681 7 644 -14 b 283 163 318 -14 283 7 l 283 378 l 204 378 l 204 0 l 64 0 l 64 832 l 204 832 m 543 654 b 485 713 543 703 533 713 b 421 654 432 713 421 701 l 421 176 b 482 117 421 129 431 117 b 543 176 535 117 543 131 "},"я":{"ha":508,"x_min":0,"x_max":0,"o":"m 247 410 l 156 0 l 15 0 l 122 419 b 46 579 61 436 46 478 l 46 663 b 244 832 46 811 81 832 l 444 832 l 444 0 l 308 0 l 308 410 m 242 724 b 183 638 189 724 183 717 l 183 597 b 242 510 183 517 189 510 l 308 510 l 308 724 "},"ђ":{"ha":525,"x_min":0,"x_max":0,"o":"m 329 654 b 274 711 329 696 315 711 b 203 668 228 711 214 693 l 203 0 l 61 0 l 61 956 l 0 956 l 0 1040 l 61 1040 l 61 1097 l 203 1097 l 203 1040 l 406 1040 l 406 956 l 203 956 l 203 779 b 331 839 225 821 261 839 b 471 669 436 839 471 797 l 471 -14 b 281 -212 471 -147 415 -212 l 192 -212 l 192 -97 l 263 -97 b 329 -14 311 -97 329 -71 "},"ѓ":{"ha":378,"x_min":0,"x_max":0,"o":"m 211 1118 l 364 1118 l 232 888 l 124 888 m 360 715 l 200 715 l 200 0 l 65 0 l 65 832 l 360 832 "},"є":{"ha":482,"x_min":0,"x_max":0,"o":"m 321 378 l 185 378 l 185 189 b 247 113 185 125 193 113 b 310 189 299 113 310 124 l 310 290 l 435 290 l 435 163 b 246 -14 435 6 399 -14 b 51 163 85 -14 51 7 l 51 669 b 246 846 51 824 85 846 b 435 669 399 846 435 825 l 435 576 l 310 576 l 310 643 b 247 718 310 707 299 718 b 185 643 193 718 185 707 l 185 499 l 321 499 "},"љ":{"ha":767,"x_min":0,"x_max":0,"o":"m 233 436 b 46 0 233 58 183 0 l 17 0 l 17 115 l 47 115 b 124 463 106 115 124 147 l 124 832 l 474 832 l 474 563 l 519 563 b 722 390 686 563 722 542 l 722 171 b 519 0 722 21 686 0 l 338 0 l 338 714 l 233 714 m 519 115 b 585 176 575 115 585 125 l 585 389 b 519 457 585 449 576 457 l 474 457 l 474 115 "},"њ":{"ha":739,"x_min":0,"x_max":0,"o":"m 449 832 l 449 560 l 492 560 b 696 389 660 560 696 539 l 696 171 b 492 0 696 21 660 0 l 311 0 l 311 447 l 197 447 l 197 0 l 61 0 l 61 832 l 197 832 l 197 560 l 311 560 l 311 832 m 493 115 b 558 176 547 115 558 125 l 558 379 b 493 447 558 439 550 447 l 449 447 l 449 115 "},"ќ":{"ha":506,"x_min":0,"x_max":0,"o":"m 261 1118 l 414 1118 l 282 888 l 174 888 m 338 0 l 207 428 l 201 428 l 201 0 l 61 0 l 61 832 l 201 832 l 201 525 l 207 525 l 324 832 l 478 832 l 326 485 l 496 0 "},"ѝ":{"ha":531,"x_min":0,"x_max":0,"o":"m 343 888 l 236 888 l 103 1118 l 256 1118 m 61 0 l 61 832 l 189 832 l 189 317 l 194 317 l 331 832 l 467 832 l 467 0 l 340 0 l 340 503 l 335 503 l 190 0 "},"ў":{"ha":525,"x_min":0,"x_max":0,"o":"m 324 832 l 465 832 l 465 -14 b 271 -212 465 -149 411 -212 l 85 -212 l 85 -93 l 236 -93 b 321 -14 299 -93 321 -76 l 321 93 b 193 36 296 51 257 36 b 56 206 89 36 56 76 l 56 832 l 197 832 l 197 232 b 257 163 197 179 214 163 b 324 206 293 163 308 175 m 264 892 b 60 1118 143 892 60 957 l 149 1118 b 264 975 151 1000 199 975 b 379 1118 331 975 375 1000 l 468 1118 b 264 892 468 957 385 892 "},"џ":{"ha":531,"x_min":0,"x_max":0,"o":"m 331 832 l 467 832 l 467 0 l 322 0 l 322 -153 l 207 -153 l 207 0 l 61 0 l 61 832 l 197 832 l 197 115 l 331 115 "},"Ґ":{"ha":401,"x_min":0,"x_max":0,"o":"m 382 964 l 217 964 l 217 0 l 63 0 l 63 1097 l 251 1097 l 251 1294 l 382 1294 "},"ґ":{"ha":378,"x_min":0,"x_max":0,"o":"m 360 715 l 200 715 l 200 0 l 65 0 l 65 832 l 244 832 l 244 985 l 360 985 "},"Ғ":{"ha":401,"x_min":0,"x_max":0,"o":"m 376 603 l 215 603 l 215 0 l 61 0 l 61 603 l 0 603 l 0 732 l 61 732 l 61 1097 l 382 1097 l 382 963 l 215 963 l 215 732 l 376 732 "},"ғ":{"ha":381,"x_min":0,"x_max":0,"o":"m 358 396 l 204 396 l 204 0 l 68 0 l 68 396 l 8 396 l 8 486 l 68 486 l 68 832 l 364 832 l 364 715 l 204 715 l 204 486 l 358 486 "},"Җ":{"ha":829,"x_min":0,"x_max":0,"o":"m 458 1097 l 458 682 l 464 682 l 594 1097 l 743 1097 l 585 633 l 726 133 l 810 133 l 810 -197 l 681 -197 l 681 0 l 613 0 l 464 564 l 458 564 l 458 0 l 315 0 l 315 564 l 308 564 l 161 0 l 8 0 l 188 633 l 29 1097 l 179 1097 l 308 682 l 315 682 l 315 1097 "},"җ":{"ha":701,"x_min":0,"x_max":0,"o":"m 683 -153 l 568 -153 l 568 0 l 507 0 l 390 429 l 385 429 l 385 0 l 264 0 l 264 429 l 258 429 l 143 0 l 10 0 l 154 482 l 28 832 l 157 832 l 258 519 l 264 519 l 264 832 l 385 832 l 385 519 l 390 519 l 492 832 l 622 832 l 496 482 l 606 115 l 683 115 "},"Ҙ":{"ha":543,"x_min":0,"x_max":0,"o":"m 194 239 b 265 124 194 147 199 124 b 336 211 321 124 336 140 l 336 526 b 267 610 336 588 322 610 l 172 610 l 172 732 l 267 732 b 336 801 322 732 336 751 l 336 882 b 267 972 336 960 322 972 b 194 881 204 972 194 957 l 194 801 l 46 801 l 46 881 b 261 1111 46 1082 88 1111 b 492 888 451 1111 492 1076 l 492 819 b 392 668 492 706 436 676 b 492 475 450 649 492 622 l 492 211 b 292 -14 492 25 454 -11 b 390 -142 367 -44 390 -79 b 272 -257 390 -204 368 -257 l 167 -257 l 167 -149 l 217 -149 b 278 -92 267 -149 278 -124 b 215 -12 278 -76 272 -40 b 46 218 79 -7 46 35 l 46 513 l 194 513 "},"ҙ":{"ha":475,"x_min":0,"x_max":0,"o":"m 238 114 b 300 182 289 114 300 124 l 300 329 b 221 392 300 388 283 392 l 161 392 l 161 514 l 240 514 b 300 565 289 514 300 528 l 300 649 b 236 717 300 707 289 717 b 175 649 183 717 175 707 l 175 575 l 50 575 l 50 669 b 239 846 50 825 85 846 b 433 675 400 846 433 824 l 433 579 b 347 464 433 490 386 471 b 433 317 396 446 433 428 l 433 158 b 271 -14 433 18 404 -10 b 369 -142 346 -44 369 -79 b 251 -257 369 -204 347 -257 l 146 -257 l 146 -149 l 196 -149 b 258 -92 244 -149 258 -124 b 190 -12 258 -64 246 -42 b 50 164 76 -7 50 25 l 50 290 l 175 290 l 175 183 b 238 114 175 122 186 114 "},"Қ":{"ha":617,"x_min":0,"x_max":0,"o":"m 532 1097 l 368 642 l 515 133 l 597 133 l 597 -197 l 468 -197 l 468 0 l 381 0 l 229 576 l 222 576 l 222 0 l 61 0 l 61 1097 l 222 1097 l 222 682 l 229 682 l 364 1097 "},"қ":{"ha":553,"x_min":0,"x_max":0,"o":"m 535 -153 l 419 -153 l 419 0 l 338 0 l 207 428 l 201 428 l 201 0 l 61 0 l 61 832 l 201 832 l 201 525 l 207 525 l 324 832 l 478 832 l 326 485 l 456 115 l 535 115 "},"Ҡ":{"ha":646,"x_min":0,"x_max":0,"o":"m 304 682 l 311 682 l 446 1097 l 614 1097 l 450 642 l 636 0 l 463 0 l 311 576 l 304 576 l 304 0 l 143 0 l 143 963 l 18 963 l 18 1097 l 304 1097 "},"ҡ":{"ha":578,"x_min":0,"x_max":0,"o":"m 272 525 l 278 525 l 394 832 l 549 832 l 397 485 l 567 0 l 408 0 l 278 428 l 272 428 l 272 0 l 132 0 l 132 714 l 17 714 l 17 832 l 272 832 "},"Ң":{"ha":614,"x_min":0,"x_max":0,"o":"m 597 -197 l 467 -197 l 467 0 l 363 0 l 363 603 l 217 603 l 217 0 l 63 0 l 63 1097 l 217 1097 l 217 733 l 363 733 l 363 1097 l 518 1097 l 518 133 l 597 133 "},"ң":{"ha":565,"x_min":0,"x_max":0,"o":"m 546 -153 l 431 -153 l 431 0 l 332 0 l 332 378 l 197 378 l 197 0 l 63 0 l 63 832 l 197 832 l 197 499 l 332 499 l 332 832 l 468 832 l 468 115 l 546 115 "},"Ҫ":{"ha":547,"x_min":0,"x_max":0,"o":"m 344 632 l 344 881 b 278 968 344 954 335 968 b 210 881 219 968 210 953 l 210 218 b 278 128 210 142 219 128 b 344 218 335 128 344 142 l 344 472 l 499 472 l 499 218 b 306 -14 499 24 461 -10 b 403 -142 381 -44 403 -79 b 286 -257 403 -204 382 -257 l 181 -257 l 181 -149 l 229 -149 b 292 -92 281 -149 292 -124 b 228 -12 292 -72 283 -40 b 50 218 82 -7 50 35 l 50 881 b 278 1111 50 1082 96 1111 b 499 881 457 1111 499 1083 l 499 632 "},"ҫ":{"ha":482,"x_min":0,"x_max":0,"o":"m 307 524 l 307 654 b 249 713 307 703 297 713 b 188 654 194 713 188 701 l 188 176 b 246 117 188 129 197 117 b 307 176 297 117 307 131 l 307 392 l 436 392 l 436 163 b 281 -12 436 17 403 -10 b 378 -142 356 -43 378 -78 b 261 -257 378 -204 357 -257 l 156 -257 l 156 -149 l 204 -149 b 267 -92 256 -149 267 -124 b 204 -12 267 -76 261 -40 b 50 163 76 -8 50 24 l 50 669 b 242 846 50 822 86 846 b 436 669 407 846 436 819 l 436 524 "},"Ұ":{"ha":489,"x_min":0,"x_max":0,"o":"m 447 375 l 322 375 l 322 0 l 163 0 l 163 375 l 42 375 l 42 460 l 146 460 l 4 1097 l 163 1097 l 242 601 l 247 601 l 331 1097 l 486 1097 l 339 460 l 447 460 "},"ұ":{"ha":450,"x_min":0,"x_max":0,"o":"m 428 0 l 286 0 l 286 -212 l 158 -212 l 158 0 l 22 0 l 22 85 l 142 85 l 8 832 l 153 832 l 221 299 l 226 299 l 297 832 l 439 832 l 301 85 l 428 85 "},"Ҳ":{"ha":576,"x_min":0,"x_max":0,"o":"m 494 1097 l 383 575 l 483 133 l 557 133 l 557 -197 l 428 -197 l 428 0 l 349 0 l 257 490 l 168 0 l 8 0 l 133 575 l 17 1097 l 181 1097 l 268 676 l 346 1097 "},"ҳ":{"ha":514,"x_min":0,"x_max":0,"o":"m 443 832 l 344 436 l 429 115 l 496 115 l 496 -153 l 381 -153 l 381 0 l 311 0 l 231 369 l 151 0 l 8 0 l 124 439 l 15 832 l 163 832 l 239 514 l 310 832 "},"Ҷ":{"ha":578,"x_min":0,"x_max":0,"o":"m 246 700 b 326 717 279 700 308 706 l 326 1097 l 481 1097 l 481 133 l 558 133 l 558 -197 l 429 -197 l 429 0 l 326 0 l 326 583 b 186 561 290 569 244 561 b 32 793 75 561 32 592 l 32 1097 l 186 1097 l 186 847 b 246 700 186 726 189 700 "},"ҷ":{"ha":546,"x_min":0,"x_max":0,"o":"m 235 486 b 311 500 269 486 296 492 l 311 832 l 447 832 l 447 115 l 526 115 l 526 -153 l 411 -153 l 411 0 l 311 0 l 311 386 b 179 369 279 376 235 369 b 42 599 68 369 42 396 l 42 832 l 178 832 l 178 607 b 235 486 178 497 185 486 "},"Һ":{"ha":536,"x_min":0,"x_max":0,"o":"m 286 624 b 208 607 256 624 226 618 l 208 0 l 54 0 l 54 1097 l 208 1097 l 208 740 b 349 763 244 754 289 763 b 503 529 471 763 503 728 l 503 0 l 349 0 l 349 517 b 286 624 349 611 332 624 "},"Ӄ":{"ha":561,"x_min":0,"x_max":0,"o":"m 218 689 l 224 689 l 374 1097 l 529 1097 l 353 640 b 550 -35 471 397 550 108 b 365 -212 550 -144 503 -212 l 249 -212 l 249 -97 l 336 -97 b 404 -36 388 -97 404 -78 b 224 571 404 43 344 308 l 218 571 l 218 0 l 61 0 l 61 1097 l 218 1097 "},"ӄ":{"ha":506,"x_min":0,"x_max":0,"o":"m 197 522 l 203 522 l 336 832 l 475 832 l 315 485 b 492 -36 443 219 492 72 b 307 -212 492 -139 447 -212 l 221 -212 l 221 -97 l 289 -97 b 357 -32 346 -97 357 -74 b 203 431 357 26 336 143 l 197 431 l 197 0 l 61 0 l 61 832 l 197 832 "},"Ӈ":{"ha":579,"x_min":0,"x_max":0,"o":"m 363 603 l 215 603 l 215 0 l 61 0 l 61 1097 l 215 1097 l 215 732 l 363 732 l 363 1097 l 517 1097 l 517 -14 b 314 -212 517 -147 458 -212 l 217 -212 l 217 -97 l 293 -97 b 363 -14 343 -97 363 -71 "},"ӈ":{"ha":531,"x_min":0,"x_max":0,"o":"m 331 376 l 197 376 l 197 0 l 61 0 l 61 832 l 197 832 l 197 497 l 331 497 l 331 832 l 467 832 l 467 -14 b 283 -212 467 -147 414 -212 l 196 -212 l 196 -97 l 264 -97 b 331 -14 313 -97 331 -71 "},"Ӣ":{"ha":579,"x_min":0,"x_max":0,"o":"m 61 0 l 61 1097 l 201 1097 l 201 394 l 207 394 l 342 1097 l 517 1097 l 517 0 l 378 0 l 378 685 l 372 685 l 231 0 m 492 1249 l 86 1249 l 86 1333 l 492 1333 "},"ӣ":{"ha":531,"x_min":0,"x_max":0,"o":"m 61 0 l 61 832 l 189 832 l 189 317 l 194 317 l 331 832 l 467 832 l 467 0 l 340 0 l 340 503 l 335 503 l 190 0 m 468 983 l 63 983 l 63 1068 l 468 1068 "},"Ө":{"ha":554,"x_min":0,"x_max":0,"o":"m 507 218 b 278 -14 507 14 467 -14 b 50 218 89 -14 50 14 l 50 881 b 278 1111 50 1083 89 1111 b 507 881 467 1111 507 1083 m 346 604 l 210 604 l 210 218 b 276 128 210 142 219 128 b 346 218 338 128 346 144 m 210 732 l 346 732 l 346 881 b 279 968 346 954 336 968 b 210 881 219 968 210 953 "},"ө":{"ha":497,"x_min":0,"x_max":0,"o":"m 447 163 b 249 -14 447 7 411 -14 b 50 163 85 -14 50 7 l 50 669 b 249 846 50 825 85 846 b 447 669 411 846 447 825 m 310 379 l 188 379 l 188 176 b 249 117 188 129 197 117 b 310 176 301 117 310 131 m 188 464 l 310 464 l 310 654 b 251 713 310 703 300 713 b 188 654 199 713 188 701 "},"Ӯ":{"ha":521,"x_min":0,"x_max":0,"o":"m 464 1249 l 58 1249 l 58 1333 l 464 1333 m 171 1097 l 257 542 l 263 542 l 346 1097 l 504 1097 l 315 158 b 146 0 292 39 260 0 l 49 0 l 49 133 l 114 133 b 178 179 154 133 172 142 l 189 254 l 11 1097 "},"ӯ":{"ha":525,"x_min":0,"x_max":0,"o":"m 324 832 l 465 832 l 465 -14 b 271 -212 465 -149 411 -212 l 85 -212 l 85 -93 l 236 -93 b 321 -14 299 -93 321 -76 l 321 93 b 193 36 296 51 257 36 b 56 206 89 36 56 76 l 56 832 l 197 832 l 197 232 b 257 163 197 179 214 163 b 324 206 293 163 308 175 m 467 983 l 61 983 l 61 1068 l 467 1068 "},"Ԓ":{"ha":628,"x_min":0,"x_max":0,"o":"m 411 964 l 275 964 l 275 576 b 56 0 275 79 217 0 l 18 0 l 18 133 l 56 133 b 149 574 122 133 149 178 l 149 1097 l 567 1097 l 567 -14 b 358 -212 567 -147 506 -212 l 260 -212 l 260 -97 l 338 -97 b 411 -14 390 -97 411 -71 "},"ԓ":{"ha":546,"x_min":0,"x_max":0,"o":"m 349 715 l 235 715 l 235 438 b 46 0 235 60 183 0 l 18 0 l 18 115 l 49 115 b 124 435 104 115 124 146 l 124 832 l 485 832 l 485 -14 b 301 -212 485 -147 431 -212 l 214 -212 l 214 -97 l 283 -97 b 349 -14 331 -97 349 -71 "},"֏":{"ha":517,"x_min":0,"x_max":0,"o":"m 506 194 l 454 194 l 454 0 l 299 0 l 299 194 l 104 194 l 104 276 l 299 276 l 299 417 l 104 417 l 104 499 l 299 499 l 299 879 b 229 972 299 958 288 972 b 161 879 172 972 161 960 l 161 625 l 21 625 l 21 879 b 233 1111 21 1085 60 1111 b 454 879 415 1111 454 1082 l 454 499 l 506 499 l 506 417 l 454 417 l 454 276 l 506 276 "},"Ḍ":{"ha":565,"x_min":0,"x_max":0,"o":"m 518 225 b 289 0 518 29 478 0 l 61 0 l 61 1097 l 289 1097 b 518 874 478 1097 518 1069 m 357 874 b 289 958 357 946 347 958 l 221 958 l 221 138 l 289 138 b 357 225 347 138 357 151 m 349 -257 l 208 -257 l 208 -112 l 349 -112 "},"ḍ":{"ha":508,"x_min":0,"x_max":0,"o":"m 50 669 b 178 839 50 796 75 839 b 304 781 253 839 282 817 l 304 1097 l 447 1097 l 447 0 l 315 0 l 315 60 b 182 -7 290 11 254 -7 b 50 163 75 -7 50 32 m 308 668 b 240 711 294 699 276 711 b 188 642 199 711 188 694 l 188 189 b 240 119 188 136 199 119 b 308 163 276 119 294 132 m 324 -257 l 183 -257 l 183 -112 l 324 -112 "},"Ḓ":{"ha":565,"x_min":0,"x_max":0,"o":"m 518 225 b 289 0 518 29 478 0 l 61 0 l 61 1097 l 289 1097 b 518 874 478 1097 518 1069 m 357 874 b 289 958 357 946 347 958 l 221 958 l 221 138 l 289 138 b 357 225 347 138 357 151 m 481 -258 l 381 -258 l 279 -107 l 178 -258 l 78 -258 l 219 -28 l 340 -28 "},"ḓ":{"ha":508,"x_min":0,"x_max":0,"o":"m 50 669 b 178 839 50 796 75 839 b 304 781 253 839 282 817 l 304 1097 l 447 1097 l 447 0 l 315 0 l 315 60 b 182 -7 290 11 254 -7 b 50 163 75 -7 50 32 m 308 668 b 240 711 294 699 276 711 b 188 642 199 711 188 694 l 188 189 b 240 119 188 136 199 119 b 308 163 276 119 294 132 m 456 -258 l 356 -258 l 254 -107 l 153 -258 l 53 -258 l 194 -28 l 315 -28 "},"Ḥ":{"ha":579,"x_min":0,"x_max":0,"o":"m 521 0 l 360 0 l 360 600 l 221 600 l 221 0 l 61 0 l 61 1097 l 221 1097 l 221 735 l 360 735 l 360 1097 l 521 1097 m 360 -257 l 219 -257 l 219 -112 l 360 -112 "},"ḥ":{"ha":525,"x_min":0,"x_max":0,"o":"m 203 0 l 61 0 l 61 1097 l 203 1097 l 203 779 b 331 839 225 821 261 839 b 471 669 436 839 471 797 l 471 0 l 329 0 l 329 654 b 274 711 329 696 315 711 b 203 668 228 711 214 693 m 333 -257 l 193 -257 l 193 -112 l 333 -112 "},"Ḽ":{"ha":401,"x_min":0,"x_max":0,"o":"m 385 0 l 61 0 l 61 1097 l 221 1097 l 221 139 l 385 139 m 425 -258 l 325 -258 l 224 -107 l 122 -258 l 22 -258 l 164 -28 l 285 -28 "},"ḽ":{"ha":328,"x_min":0,"x_max":0,"o":"m 236 0 l 94 0 l 94 1097 l 236 1097 m 365 -258 l 265 -258 l 164 -107 l 63 -258 l -37 -258 l 104 -28 l 225 -28 "},"Ṅ":{"ha":600,"x_min":0,"x_max":0,"o":"m 369 0 l 204 685 l 199 685 l 199 0 l 61 0 l 61 1097 l 238 1097 l 396 393 l 401 393 l 401 1097 l 540 1097 l 540 0 m 371 1218 l 231 1218 l 231 1363 l 371 1363 "},"ṅ":{"ha":525,"x_min":0,"x_max":0,"o":"m 203 0 l 61 0 l 61 832 l 193 832 l 193 776 b 329 839 215 818 253 839 b 471 669 436 839 471 797 l 471 0 l 329 0 l 329 654 b 274 711 329 696 315 711 b 203 668 228 711 214 693 m 333 953 l 193 953 l 193 1097 l 333 1097 "},"Ṋ":{"ha":600,"x_min":0,"x_max":0,"o":"m 369 0 l 204 685 l 199 685 l 199 0 l 61 0 l 61 1097 l 238 1097 l 396 393 l 401 393 l 401 1097 l 540 1097 l 540 0 m 501 -258 l 401 -258 l 300 -107 l 199 -258 l 99 -258 l 240 -28 l 361 -28 "},"ṋ":{"ha":525,"x_min":0,"x_max":0,"o":"m 203 0 l 61 0 l 61 832 l 193 832 l 193 776 b 329 839 215 818 253 839 b 471 669 436 839 471 797 l 471 0 l 329 0 l 329 654 b 274 711 329 696 315 711 b 203 668 228 711 214 693 m 464 -258 l 364 -258 l 263 -107 l 161 -258 l 61 -258 l 203 -28 l 324 -28 "},"Ṛ":{"ha":568,"x_min":0,"x_max":0,"o":"m 221 0 l 61 0 l 61 1097 l 289 1097 b 518 874 478 1097 518 1067 l 518 758 b 419 608 518 643 463 619 l 419 603 b 518 438 478 589 518 558 l 518 0 l 357 0 l 357 463 b 293 542 357 522 349 542 l 221 542 m 221 668 l 293 668 b 357 739 344 668 357 686 l 357 874 b 289 958 357 943 350 958 l 221 958 m 357 -257 l 217 -257 l 217 -112 l 357 -112 "},"ṛ":{"ha":468,"x_min":0,"x_max":0,"o":"m 203 0 l 61 0 l 61 832 l 193 832 l 193 776 b 326 839 213 814 253 839 b 451 669 419 839 451 799 l 451 463 l 324 463 l 324 653 b 272 711 324 693 314 711 b 203 665 233 711 214 696 m 201 -257 l 61 -257 l 61 -112 l 201 -112 "},"Ṣ":{"ha":549,"x_min":0,"x_max":0,"o":"m 343 742 l 343 878 b 275 968 343 956 336 968 b 207 878 214 968 207 956 l 207 769 b 249 688 207 725 213 710 b 399 604 279 668 336 643 b 504 394 493 546 504 517 l 504 218 b 276 -14 504 15 465 -14 b 53 218 96 -14 53 13 l 53 436 l 208 436 l 208 218 b 275 128 208 142 217 128 b 343 218 335 128 343 142 l 343 383 b 306 485 343 442 340 461 b 135 585 268 511 188 550 b 47 772 57 636 47 669 l 47 878 b 272 1111 47 1082 85 1111 b 499 878 460 1111 499 1082 l 499 742 m 344 -257 l 204 -257 l 204 -112 l 344 -112 "},"ṣ":{"ha":492,"x_min":0,"x_max":0,"o":"m 307 592 l 307 654 b 246 714 307 703 299 714 b 186 654 193 714 186 703 l 186 588 b 257 503 186 538 196 531 b 361 454 269 497 335 468 b 444 318 435 415 444 381 l 444 164 b 247 -14 444 7 413 -14 b 47 164 83 -14 47 7 l 47 292 l 186 292 l 186 179 b 247 118 186 129 196 118 b 307 179 301 118 307 131 l 307 281 b 249 360 307 325 300 336 b 133 411 204 381 178 386 b 47 567 64 449 47 478 l 47 668 b 247 846 47 825 82 846 b 444 668 411 846 444 825 l 444 592 m 315 -257 l 175 -257 l 175 -112 l 315 -112 "},"Ṭ":{"ha":432,"x_min":0,"x_max":0,"o":"m 417 964 l 297 964 l 297 0 l 138 0 l 138 964 l 17 964 l 17 1097 l 417 1097 m 286 -257 l 146 -257 l 146 -112 l 286 -112 "},"ṭ":{"ha":333,"x_min":0,"x_max":0,"o":"m 303 717 l 206 717 l 206 194 b 275 121 206 138 219 121 l 301 121 l 301 0 l 265 0 b 64 176 113 0 64 54 l 64 717 l 13 717 l 13 832 l 64 832 l 64 1085 l 206 1085 l 206 832 l 303 832 m 250 -257 l 110 -257 l 110 -112 l 250 -112 "},"Ẁ":{"ha":797,"x_min":0,"x_max":0,"o":"m 172 1097 l 218 235 l 224 235 l 297 1097 l 501 1097 l 564 235 l 569 235 l 629 1097 l 790 1097 l 663 0 l 460 0 l 401 871 l 396 871 l 319 0 l 114 0 l 13 1097 m 478 1153 l 371 1153 l 238 1383 l 390 1383 "},"ẁ":{"ha":739,"x_min":0,"x_max":0,"o":"m 158 832 l 201 210 l 207 210 l 278 832 l 463 832 l 526 210 l 532 210 l 583 832 l 735 832 l 619 0 l 428 0 l 372 632 l 367 632 l 296 0 l 103 0 l 7 832 m 447 888 l 340 888 l 207 1118 l 360 1118 "},"Ẃ":{"ha":797,"x_min":0,"x_max":0,"o":"m 172 1097 l 218 235 l 224 235 l 297 1097 l 501 1097 l 564 235 l 569 235 l 629 1097 l 790 1097 l 663 0 l 460 0 l 401 871 l 396 871 l 319 0 l 114 0 l 13 1097 m 408 1383 l 561 1383 l 429 1153 l 321 1153 "},"ẃ":{"ha":739,"x_min":0,"x_max":0,"o":"m 158 832 l 201 210 l 207 210 l 278 832 l 463 832 l 526 210 l 532 210 l 583 832 l 735 832 l 619 0 l 428 0 l 372 632 l 367 632 l 296 0 l 103 0 l 7 832 m 378 1118 l 531 1118 l 399 888 l 290 888 "},"Ẅ":{"ha":797,"x_min":0,"x_max":0,"o":"m 172 1097 l 218 235 l 224 235 l 297 1097 l 501 1097 l 564 235 l 569 235 l 629 1097 l 790 1097 l 663 0 l 460 0 l 401 871 l 396 871 l 319 0 l 114 0 l 13 1097 m 596 1218 l 454 1218 l 454 1363 l 596 1363 m 344 1218 l 204 1218 l 204 1363 l 344 1363 "},"ẅ":{"ha":739,"x_min":0,"x_max":0,"o":"m 158 832 l 201 210 l 207 210 l 278 832 l 463 832 l 526 210 l 532 210 l 583 832 l 735 832 l 619 0 l 428 0 l 372 632 l 367 632 l 296 0 l 103 0 l 7 832 m 567 953 l 425 953 l 425 1097 l 567 1097 m 315 953 l 175 953 l 175 1097 l 315 1097 "},"Ẓ":{"ha":435,"x_min":0,"x_max":0,"o":"m 410 0 l 25 0 l 25 139 l 246 964 l 47 964 l 47 1097 l 407 1097 l 407 989 l 192 138 l 410 138 m 288 -257 l 147 -257 l 147 -112 l 288 -112 "},"ẓ":{"ha":415,"x_min":0,"x_max":0,"o":"m 394 0 l 21 0 l 21 121 l 250 717 l 46 717 l 46 832 l 390 832 l 390 725 l 168 119 l 394 119 m 279 -257 l 139 -257 l 139 -112 l 279 -112 "},"ẞ":{"ha":567,"x_min":0,"x_max":0,"o":"m 381 968 l 278 968 b 207 824 217 968 207 954 l 207 0 l 56 0 l 56 865 b 279 1097 56 1069 99 1097 l 522 1097 l 522 992 l 403 714 b 519 515 490 701 519 635 l 519 225 b 321 0 519 39 485 0 l 263 0 l 263 138 l 304 138 b 369 225 350 138 369 154 l 369 507 b 301 635 369 625 357 635 l 278 635 l 278 726 "},"Ạ":{"ha":554,"x_min":0,"x_max":0,"o":"m 343 0 l 343 244 l 208 244 l 208 0 l 53 0 l 53 881 b 272 1111 53 1082 94 1111 b 503 881 458 1111 503 1079 l 503 0 m 275 968 b 208 881 218 968 208 956 l 208 375 l 343 375 l 343 881 b 275 968 343 956 332 968 m 347 -257 l 207 -257 l 207 -112 l 347 -112 "},"ạ":{"ha":490,"x_min":0,"x_max":0,"o":"m 239 -14 b 50 147 83 -14 50 3 l 50 349 b 176 493 50 449 85 493 l 203 493 b 299 481 265 493 286 488 l 299 653 b 240 725 299 713 289 725 b 179 653 186 725 179 710 l 179 571 l 50 571 l 50 669 b 238 846 50 826 83 846 b 436 669 401 846 436 824 l 436 0 b 239 -14 403 -8 329 -14 m 247 103 b 299 106 272 103 293 104 l 299 378 b 246 386 286 385 267 386 b 179 313 183 386 179 374 l 179 182 b 247 103 179 113 183 103 m 317 -257 l 176 -257 l 176 -112 l 317 -112 "},"Ả":{"ha":554,"x_min":0,"x_max":0,"o":"m 343 0 l 343 244 l 208 244 l 208 0 l 53 0 l 53 881 b 272 1111 53 1082 94 1111 b 503 881 458 1111 503 1079 l 503 0 m 275 968 b 208 881 218 968 208 956 l 208 375 l 343 375 l 343 881 b 275 968 343 956 332 968 m 233 1136 l 233 1165 b 271 1222 233 1194 240 1204 l 322 1254 b 335 1276 332 1260 335 1265 l 335 1300 b 275 1331 335 1322 325 1331 b 219 1297 231 1331 219 1324 l 219 1261 l 150 1261 l 150 1297 b 278 1383 150 1374 174 1383 b 406 1310 382 1383 406 1374 l 406 1279 b 361 1206 406 1239 394 1226 l 315 1176 b 301 1154 306 1169 301 1164 l 301 1136 "},"ả":{"ha":490,"x_min":0,"x_max":0,"o":"m 239 -14 b 50 147 83 -14 50 3 l 50 349 b 176 493 50 449 85 493 l 203 493 b 299 481 265 493 286 488 l 299 653 b 240 725 299 713 289 725 b 179 653 186 725 179 710 l 179 571 l 50 571 l 50 669 b 238 846 50 826 83 846 b 436 669 401 846 436 824 l 436 0 b 239 -14 403 -8 329 -14 m 247 103 b 299 106 272 103 293 104 l 299 378 b 246 386 286 385 267 386 b 179 313 183 386 179 374 l 179 182 b 247 103 179 113 183 103 m 210 871 l 210 900 b 247 957 210 929 217 939 l 299 989 b 311 1011 308 994 311 1000 l 311 1035 b 251 1065 311 1057 301 1065 b 196 1032 207 1065 196 1058 l 196 996 l 126 996 l 126 1032 b 254 1118 126 1108 150 1118 b 382 1044 358 1118 382 1108 l 382 1014 b 338 940 382 974 371 961 l 292 911 b 278 889 282 904 278 899 l 278 871 "},"Ấ":{"ha":554,"x_min":0,"x_max":0,"o":"m 343 0 l 343 244 l 208 244 l 208 0 l 53 0 l 53 881 b 272 1111 53 1082 94 1111 b 503 881 458 1111 503 1079 l 503 0 m 496 1133 l 390 1133 l 282 1256 l 174 1133 l 67 1133 l 218 1321 l 347 1321 m 442 1486 l 592 1486 l 461 1321 l 356 1321 m 275 968 b 208 881 218 968 208 956 l 208 375 l 343 375 l 343 881 b 275 968 343 956 332 968 "},"ấ":{"ha":490,"x_min":0,"x_max":0,"o":"m 239 -14 b 50 147 83 -14 50 3 l 50 349 b 176 493 50 449 85 493 l 203 493 b 299 481 265 493 286 488 l 299 653 b 240 725 299 713 289 725 b 179 653 186 725 179 710 l 179 571 l 50 571 l 50 669 b 238 846 50 826 83 846 b 436 669 401 846 436 824 l 436 0 b 239 -14 403 -8 329 -14 m 247 103 b 299 106 272 103 293 104 l 299 378 b 246 386 286 385 267 386 b 179 313 183 386 179 374 l 179 182 b 247 103 179 113 183 103 m 257 1383 l 410 1383 l 278 1153 l 169 1153 m 447 888 l 347 888 l 246 1039 l 144 888 l 44 888 l 186 1118 l 307 1118 "},"Ầ":{"ha":554,"x_min":0,"x_max":0,"o":"m 343 0 l 343 244 l 208 244 l 208 0 l 53 0 l 53 881 b 272 1111 53 1082 94 1111 b 503 881 458 1111 503 1079 l 503 0 m 496 1133 l 390 1133 l 282 1256 l 174 1133 l 67 1133 l 218 1321 l 347 1321 m 535 1319 l 429 1319 l 299 1486 l 449 1486 m 275 968 b 208 881 218 968 208 956 l 208 375 l 343 375 l 343 881 b 275 968 343 956 332 968 "},"ầ":{"ha":490,"x_min":0,"x_max":0,"o":"m 239 -14 b 50 147 83 -14 50 3 l 50 349 b 176 493 50 449 85 493 l 203 493 b 299 481 265 493 286 488 l 299 653 b 240 725 299 713 289 725 b 179 653 186 725 179 710 l 179 571 l 50 571 l 50 669 b 238 846 50 826 83 846 b 436 669 401 846 436 824 l 436 0 b 239 -14 403 -8 329 -14 m 247 103 b 299 106 272 103 293 104 l 299 378 b 246 386 286 385 267 386 b 179 313 183 386 179 374 l 179 182 b 247 103 179 113 183 103 m 326 1153 l 219 1153 l 86 1383 l 239 1383 m 447 888 l 347 888 l 246 1039 l 144 888 l 44 888 l 186 1118 l 307 1118 "},"Ẩ":{"ha":554,"x_min":0,"x_max":0,"o":"m 343 0 l 343 244 l 208 244 l 208 0 l 53 0 l 53 881 b 272 1111 53 1082 94 1111 b 503 881 458 1111 503 1079 l 503 0 m 496 1133 l 390 1133 l 282 1256 l 174 1133 l 67 1133 l 218 1321 l 347 1321 m 432 1256 l 432 1283 b 469 1336 432 1310 439 1319 l 521 1365 b 533 1386 531 1371 533 1376 l 533 1408 b 474 1438 533 1429 524 1438 b 418 1406 429 1438 418 1431 l 418 1372 l 349 1372 l 349 1406 b 476 1486 349 1478 372 1486 b 604 1418 581 1486 604 1478 l 604 1389 b 560 1321 604 1351 593 1340 l 514 1293 b 500 1272 504 1286 500 1282 l 500 1256 m 275 968 b 208 881 218 968 208 956 l 208 375 l 343 375 l 343 881 b 275 968 343 956 332 968 "},"ẩ":{"ha":490,"x_min":0,"x_max":0,"o":"m 239 -14 b 50 147 83 -14 50 3 l 50 349 b 176 493 50 449 85 493 l 203 493 b 299 481 265 493 286 488 l 299 653 b 240 725 299 713 289 725 b 179 653 186 725 179 710 l 179 571 l 50 571 l 50 669 b 238 846 50 826 83 846 b 436 669 401 846 436 824 l 436 0 b 239 -14 403 -8 329 -14 m 247 103 b 299 106 272 103 293 104 l 299 378 b 246 386 286 385 267 386 b 179 313 183 386 179 374 l 179 182 b 247 103 179 113 183 103 m 447 888 l 347 888 l 246 1039 l 144 888 l 44 888 l 186 1118 l 307 1118 m 213 1136 l 213 1165 b 250 1222 213 1194 219 1204 l 301 1254 b 314 1276 311 1260 314 1265 l 314 1300 b 254 1331 314 1322 304 1331 b 199 1297 210 1331 199 1324 l 199 1261 l 129 1261 l 129 1297 b 257 1383 129 1374 153 1383 b 385 1310 361 1383 385 1374 l 385 1279 b 340 1206 385 1239 374 1226 l 294 1176 b 281 1154 285 1169 281 1164 l 281 1136 "},"Ẫ":{"ha":554,"x_min":0,"x_max":0,"o":"m 343 0 l 343 244 l 208 244 l 208 0 l 53 0 l 53 881 b 272 1111 53 1082 94 1111 b 503 881 458 1111 503 1079 l 503 0 m 171 1399 b 75 1357 121 1399 94 1382 l 75 1443 b 172 1474 96 1460 129 1474 b 383 1438 243 1474 310 1438 b 481 1479 431 1438 460 1451 l 481 1394 b 382 1361 460 1375 426 1361 b 171 1399 307 1361 244 1399 m 496 1133 l 390 1133 l 282 1256 l 174 1133 l 67 1133 l 218 1321 l 347 1321 m 275 968 b 208 881 218 968 208 956 l 208 375 l 343 375 l 343 881 b 275 968 343 956 332 968 "},"ẫ":{"ha":490,"x_min":0,"x_max":0,"o":"m 239 -14 b 50 147 83 -14 50 3 l 50 349 b 176 493 50 449 85 493 l 203 493 b 299 481 265 493 286 488 l 299 653 b 240 725 299 713 289 725 b 179 653 186 725 179 710 l 179 571 l 50 571 l 50 669 b 238 846 50 826 83 846 b 436 669 401 846 436 824 l 436 0 b 239 -14 403 -8 329 -14 m 247 103 b 299 106 272 103 293 104 l 299 378 b 246 386 286 385 267 386 b 179 313 183 386 179 374 l 179 182 b 247 103 179 113 183 103 m 140 1269 b 44 1219 90 1269 64 1249 l 44 1321 b 142 1357 65 1340 99 1357 b 353 1314 213 1357 279 1314 b 450 1364 400 1314 429 1332 l 450 1264 b 351 1224 429 1240 396 1224 b 140 1269 276 1224 214 1269 m 447 888 l 347 888 l 246 1039 l 144 888 l 44 888 l 186 1118 l 307 1118 "},"Ậ":{"ha":554,"x_min":0,"x_max":0,"o":"m 343 0 l 343 244 l 208 244 l 208 0 l 53 0 l 53 881 b 272 1111 53 1082 94 1111 b 503 881 458 1111 503 1079 l 503 0 m 275 968 b 208 881 218 968 208 956 l 208 375 l 343 375 l 343 881 b 275 968 343 956 332 968 m 347 -257 l 207 -257 l 207 -112 l 347 -112 m 479 1153 l 379 1153 l 278 1304 l 176 1153 l 76 1153 l 218 1383 l 339 1383 "},"ậ":{"ha":490,"x_min":0,"x_max":0,"o":"m 239 -14 b 50 147 83 -14 50 3 l 50 349 b 176 493 50 449 85 493 l 203 493 b 299 481 265 493 286 488 l 299 653 b 240 725 299 713 289 725 b 179 653 186 725 179 710 l 179 571 l 50 571 l 50 669 b 238 846 50 826 83 846 b 436 669 401 846 436 824 l 436 0 b 239 -14 403 -8 329 -14 m 247 103 b 299 106 272 103 293 104 l 299 378 b 246 386 286 385 267 386 b 179 313 183 386 179 374 l 179 182 b 247 103 179 113 183 103 m 317 -257 l 176 -257 l 176 -112 l 317 -112 m 447 888 l 347 888 l 246 1039 l 144 888 l 44 888 l 186 1118 l 307 1118 "},"Ắ":{"ha":554,"x_min":0,"x_max":0,"o":"m 343 0 l 343 244 l 208 244 l 208 0 l 53 0 l 53 881 b 272 1111 53 1082 94 1111 b 503 881 458 1111 503 1079 l 503 0 m 278 1144 b 74 1329 157 1144 74 1197 l 163 1329 b 278 1213 165 1233 213 1213 b 393 1329 344 1213 389 1233 l 482 1329 b 278 1144 482 1197 399 1144 m 299 1486 l 449 1486 l 319 1321 l 214 1321 m 275 968 b 208 881 218 968 208 956 l 208 375 l 343 375 l 343 881 b 275 968 343 956 332 968 "},"ắ":{"ha":490,"x_min":0,"x_max":0,"o":"m 239 -14 b 50 147 83 -14 50 3 l 50 349 b 176 493 50 449 85 493 l 203 493 b 299 481 265 493 286 488 l 299 653 b 240 725 299 713 289 725 b 179 653 186 725 179 710 l 179 571 l 50 571 l 50 669 b 238 846 50 826 83 846 b 436 669 401 846 436 824 l 436 0 b 239 -14 403 -8 329 -14 m 247 103 b 299 106 272 103 293 104 l 299 378 b 246 386 286 385 267 386 b 179 313 183 386 179 374 l 179 182 b 247 103 179 113 183 103 m 256 1383 l 408 1383 l 276 1153 l 168 1153 m 246 892 b 42 1118 125 892 42 957 l 131 1118 b 246 975 133 1000 181 975 b 361 1118 313 975 357 1000 l 450 1118 b 246 892 450 957 367 892 "},"Ằ":{"ha":554,"x_min":0,"x_max":0,"o":"m 343 0 l 343 244 l 208 244 l 208 0 l 53 0 l 53 881 b 272 1111 53 1082 94 1111 b 503 881 458 1111 503 1079 l 503 0 m 360 1319 l 254 1319 l 124 1486 l 274 1486 m 278 1144 b 74 1329 157 1144 74 1197 l 163 1329 b 278 1213 165 1233 213 1213 b 393 1329 344 1213 389 1233 l 482 1329 b 278 1144 482 1197 399 1144 m 275 968 b 208 881 218 968 208 956 l 208 375 l 343 375 l 343 881 b 275 968 343 956 332 968 "},"ằ":{"ha":490,"x_min":0,"x_max":0,"o":"m 239 -14 b 50 147 83 -14 50 3 l 50 349 b 176 493 50 449 85 493 l 203 493 b 299 481 265 493 286 488 l 299 653 b 240 725 299 713 289 725 b 179 653 186 725 179 710 l 179 571 l 50 571 l 50 669 b 238 846 50 826 83 846 b 436 669 401 846 436 824 l 436 0 b 239 -14 403 -8 329 -14 m 247 103 b 299 106 272 103 293 104 l 299 378 b 246 386 286 385 267 386 b 179 313 183 386 179 374 l 179 182 b 247 103 179 113 183 103 m 246 892 b 42 1118 125 892 42 957 l 131 1118 b 246 975 133 1000 181 975 b 361 1118 313 975 357 1000 l 450 1118 b 246 892 450 957 367 892 m 325 1153 l 218 1153 l 85 1383 l 238 1383 "},"Ẳ":{"ha":554,"x_min":0,"x_max":0,"o":"m 343 0 l 343 244 l 208 244 l 208 0 l 53 0 l 53 881 b 272 1111 53 1082 94 1111 b 503 881 458 1111 503 1079 l 503 0 m 232 1297 l 232 1319 b 267 1363 232 1342 238 1349 l 314 1388 b 325 1404 324 1392 325 1396 l 325 1422 b 269 1446 325 1439 317 1446 b 218 1419 229 1446 218 1440 l 218 1392 l 154 1392 l 154 1419 b 272 1486 154 1478 176 1486 b 392 1429 369 1486 392 1478 l 392 1406 b 350 1350 392 1375 381 1365 l 307 1328 b 294 1311 299 1322 294 1318 l 294 1297 m 278 1144 b 74 1329 157 1144 74 1197 l 163 1329 b 278 1213 165 1233 213 1213 b 393 1329 344 1213 389 1233 l 482 1329 b 278 1144 482 1197 399 1144 m 275 968 b 208 881 218 968 208 956 l 208 375 l 343 375 l 343 881 b 275 968 343 956 332 968 "},"ẳ":{"ha":490,"x_min":0,"x_max":0,"o":"m 239 -14 b 50 147 83 -14 50 3 l 50 349 b 176 493 50 449 85 493 l 203 493 b 299 481 265 493 286 488 l 299 653 b 240 725 299 713 289 725 b 179 653 186 725 179 710 l 179 571 l 50 571 l 50 669 b 238 846 50 826 83 846 b 436 669 401 846 436 824 l 436 0 b 239 -14 403 -8 329 -14 m 247 103 b 299 106 272 103 293 104 l 299 378 b 246 386 286 385 267 386 b 179 313 183 386 179 374 l 179 182 b 247 103 179 113 183 103 m 246 892 b 42 1118 125 892 42 957 l 131 1118 b 246 975 133 1000 181 975 b 361 1118 313 975 357 1000 l 450 1118 b 246 892 450 957 367 892 m 210 1136 l 210 1165 b 247 1222 210 1194 217 1204 l 299 1254 b 311 1276 308 1260 311 1265 l 311 1300 b 251 1331 311 1322 301 1331 b 196 1297 207 1331 196 1324 l 196 1261 l 126 1261 l 126 1297 b 254 1383 126 1374 150 1383 b 382 1310 358 1383 382 1374 l 382 1279 b 338 1206 382 1239 371 1226 l 292 1176 b 278 1154 282 1169 278 1164 l 278 1136 "},"Ẵ":{"ha":554,"x_min":0,"x_max":0,"o":"m 343 0 l 343 244 l 208 244 l 208 0 l 53 0 l 53 881 b 272 1111 53 1082 94 1111 b 503 881 458 1111 503 1079 l 503 0 m 278 1144 b 74 1329 157 1144 74 1197 l 163 1329 b 278 1213 165 1233 213 1213 b 393 1329 344 1213 389 1233 l 482 1329 b 278 1144 482 1197 399 1144 m 171 1399 b 75 1357 121 1399 94 1382 l 75 1443 b 172 1474 96 1460 129 1474 b 383 1438 243 1474 310 1438 b 481 1479 431 1438 460 1451 l 481 1394 b 382 1361 460 1375 426 1361 b 171 1399 307 1361 244 1399 m 275 968 b 208 881 218 968 208 956 l 208 375 l 343 375 l 343 881 b 275 968 343 956 332 968 "},"ẵ":{"ha":490,"x_min":0,"x_max":0,"o":"m 239 -14 b 50 147 83 -14 50 3 l 50 349 b 176 493 50 449 85 493 l 203 493 b 299 481 265 493 286 488 l 299 653 b 240 725 299 713 289 725 b 179 653 186 725 179 710 l 179 571 l 50 571 l 50 669 b 238 846 50 826 83 846 b 436 669 401 846 436 824 l 436 0 b 239 -14 403 -8 329 -14 m 247 103 b 299 106 272 103 293 104 l 299 378 b 246 386 286 385 267 386 b 179 313 183 386 179 374 l 179 182 b 247 103 179 113 183 103 m 246 892 b 42 1118 125 892 42 957 l 131 1118 b 246 975 133 1000 181 975 b 361 1118 313 975 357 1000 l 450 1118 b 246 892 450 957 367 892 m 140 1269 b 44 1219 90 1269 64 1249 l 44 1321 b 142 1357 65 1340 99 1357 b 353 1314 213 1357 279 1314 b 450 1364 400 1314 429 1332 l 450 1264 b 351 1224 429 1240 396 1224 b 140 1269 276 1224 214 1269 "},"Ặ":{"ha":554,"x_min":0,"x_max":0,"o":"m 343 0 l 343 244 l 208 244 l 208 0 l 53 0 l 53 881 b 272 1111 53 1082 94 1111 b 503 881 458 1111 503 1079 l 503 0 m 275 968 b 208 881 218 968 208 956 l 208 375 l 343 375 l 343 881 b 275 968 343 956 332 968 m 278 1157 b 74 1383 157 1157 74 1222 l 163 1383 b 278 1240 165 1265 213 1240 b 393 1383 344 1240 389 1265 l 482 1383 b 278 1157 482 1222 399 1157 m 347 -257 l 207 -257 l 207 -112 l 347 -112 "},"ặ":{"ha":490,"x_min":0,"x_max":0,"o":"m 239 -14 b 50 147 83 -14 50 3 l 50 349 b 176 493 50 449 85 493 l 203 493 b 299 481 265 493 286 488 l 299 653 b 240 725 299 713 289 725 b 179 653 186 725 179 710 l 179 571 l 50 571 l 50 669 b 238 846 50 826 83 846 b 436 669 401 846 436 824 l 436 0 b 239 -14 403 -8 329 -14 m 247 103 b 299 106 272 103 293 104 l 299 378 b 246 386 286 385 267 386 b 179 313 183 386 179 374 l 179 182 b 247 103 179 113 183 103 m 246 892 b 42 1118 125 892 42 957 l 131 1118 b 246 975 133 1000 181 975 b 361 1118 313 975 357 1000 l 450 1118 b 246 892 450 957 367 892 m 317 -257 l 176 -257 l 176 -112 l 317 -112 "},"Ẹ":{"ha":407,"x_min":0,"x_max":0,"o":"m 375 0 l 61 0 l 61 1097 l 374 1097 l 374 965 l 221 965 l 221 806 l 369 806 l 369 679 l 221 679 l 221 138 l 375 138 m 279 -257 l 139 -257 l 139 -112 l 279 -112 "},"ẹ":{"ha":485,"x_min":0,"x_max":0,"o":"m 189 367 l 189 171 b 249 107 189 118 197 107 b 308 171 299 107 308 118 l 308 283 l 436 283 l 436 163 b 247 -14 436 6 401 -14 b 50 163 83 -14 50 8 l 50 669 b 247 846 50 824 83 846 b 436 669 401 846 436 826 l 436 367 m 189 481 l 308 481 l 308 658 b 249 721 308 711 299 721 b 189 658 197 721 189 711 m 314 -257 l 174 -257 l 174 -112 l 314 -112 "},"Ẻ":{"ha":407,"x_min":0,"x_max":0,"o":"m 375 0 l 61 0 l 61 1097 l 374 1097 l 374 965 l 221 965 l 221 806 l 369 806 l 369 679 l 221 679 l 221 138 l 375 138 m 164 1136 l 164 1165 b 201 1222 164 1194 171 1204 l 253 1254 b 265 1276 263 1260 265 1265 l 265 1300 b 206 1331 265 1322 256 1331 b 150 1297 161 1331 150 1324 l 150 1261 l 81 1261 l 81 1297 b 208 1383 81 1374 104 1383 b 336 1310 313 1383 336 1374 l 336 1279 b 292 1206 336 1239 325 1226 l 246 1176 b 232 1154 236 1169 232 1164 l 232 1136 "},"ẻ":{"ha":485,"x_min":0,"x_max":0,"o":"m 189 367 l 189 171 b 249 107 189 118 197 107 b 308 171 299 107 308 118 l 308 283 l 436 283 l 436 163 b 247 -14 436 6 401 -14 b 50 163 83 -14 50 8 l 50 669 b 247 846 50 824 83 846 b 436 669 401 846 436 826 l 436 367 m 189 481 l 308 481 l 308 658 b 249 721 308 711 299 721 b 189 658 197 721 189 711 m 207 871 l 207 900 b 244 957 207 929 214 939 l 296 989 b 308 1011 306 994 308 1000 l 308 1035 b 249 1065 308 1057 299 1065 b 193 1032 204 1065 193 1058 l 193 996 l 124 996 l 124 1032 b 251 1118 124 1108 147 1118 b 379 1044 356 1118 379 1108 l 379 1014 b 335 940 379 974 368 961 l 289 911 b 275 889 279 904 275 899 l 275 871 "},"Ẽ":{"ha":407,"x_min":0,"x_max":0,"o":"m 375 0 l 61 0 l 61 1097 l 374 1097 l 374 965 l 221 965 l 221 806 l 369 806 l 369 679 l 221 679 l 221 138 l 375 138 m 103 1269 b 7 1219 53 1269 26 1249 l 7 1321 b 104 1357 28 1340 61 1357 b 315 1314 175 1357 242 1314 b 413 1364 363 1314 392 1332 l 413 1264 b 314 1224 392 1240 358 1224 b 103 1269 239 1224 176 1269 "},"ẽ":{"ha":485,"x_min":0,"x_max":0,"o":"m 189 367 l 189 171 b 249 107 189 118 197 107 b 308 171 299 107 308 118 l 308 283 l 436 283 l 436 163 b 247 -14 436 6 401 -14 b 50 163 83 -14 50 8 l 50 669 b 247 846 50 824 83 846 b 436 669 401 846 436 826 l 436 367 m 189 481 l 308 481 l 308 658 b 249 721 308 711 299 721 b 189 658 197 721 189 711 m 138 1004 b 42 954 88 1004 61 983 l 42 1056 b 139 1092 63 1075 96 1092 b 350 1049 210 1092 276 1049 b 447 1099 397 1049 426 1067 l 447 999 b 349 958 426 975 393 958 b 138 1004 274 958 211 1004 "},"Ế":{"ha":407,"x_min":0,"x_max":0,"o":"m 375 0 l 61 0 l 61 1097 l 374 1097 l 374 965 l 221 965 l 221 806 l 369 806 l 369 679 l 221 679 l 221 138 l 375 138 m 439 1133 l 333 1133 l 225 1256 l 117 1133 l 10 1133 l 161 1321 l 290 1321 m 385 1486 l 535 1486 l 404 1321 l 299 1321 "},"ế":{"ha":485,"x_min":0,"x_max":0,"o":"m 189 367 l 189 171 b 249 107 189 118 197 107 b 308 171 299 107 308 118 l 308 283 l 436 283 l 436 163 b 247 -14 436 6 401 -14 b 50 163 83 -14 50 8 l 50 669 b 247 846 50 824 83 846 b 436 669 401 846 436 826 l 436 367 m 189 481 l 308 481 l 308 658 b 249 721 308 711 299 721 b 189 658 197 721 189 711 m 253 1383 l 406 1383 l 274 1153 l 165 1153 m 444 888 l 344 888 l 243 1039 l 142 888 l 42 888 l 183 1118 l 304 1118 "},"Ề":{"ha":407,"x_min":0,"x_max":0,"o":"m 375 0 l 61 0 l 61 1097 l 374 1097 l 374 965 l 221 965 l 221 806 l 369 806 l 369 679 l 221 679 l 221 138 l 375 138 m 443 1133 l 338 1133 l 229 1256 l 121 1133 l 14 1133 l 165 1321 l 294 1321 m 482 1319 l 376 1319 l 246 1486 l 396 1486 "},"ề":{"ha":485,"x_min":0,"x_max":0,"o":"m 189 367 l 189 171 b 249 107 189 118 197 107 b 308 171 299 107 308 118 l 308 283 l 436 283 l 436 163 b 247 -14 436 6 401 -14 b 50 163 83 -14 50 8 l 50 669 b 247 846 50 824 83 846 b 436 669 401 846 436 826 l 436 367 m 189 481 l 308 481 l 308 658 b 249 721 308 711 299 721 b 189 658 197 721 189 711 m 321 1153 l 214 1153 l 81 1383 l 233 1383 m 444 888 l 344 888 l 243 1039 l 142 888 l 42 888 l 183 1118 l 304 1118 "},"Ể":{"ha":407,"x_min":0,"x_max":0,"o":"m 375 0 l 61 0 l 61 1097 l 374 1097 l 374 965 l 221 965 l 221 806 l 369 806 l 369 679 l 221 679 l 221 138 l 375 138 m 429 1133 l 324 1133 l 215 1256 l 107 1133 l 0 1133 l 151 1321 l 281 1321 m 365 1256 l 365 1283 b 403 1336 365 1310 372 1319 l 454 1365 b 467 1386 464 1371 467 1376 l 467 1408 b 407 1438 467 1429 457 1438 b 351 1406 363 1438 351 1431 l 351 1372 l 282 1372 l 282 1406 b 410 1486 282 1478 306 1486 b 538 1418 514 1486 538 1478 l 538 1389 b 493 1321 538 1351 526 1340 l 447 1293 b 433 1272 438 1286 433 1282 l 433 1256 "},"ể":{"ha":485,"x_min":0,"x_max":0,"o":"m 189 367 l 189 171 b 249 107 189 118 197 107 b 308 171 299 107 308 118 l 308 283 l 436 283 l 436 163 b 247 -14 436 6 401 -14 b 50 163 83 -14 50 8 l 50 669 b 247 846 50 824 83 846 b 436 669 401 846 436 826 l 436 367 m 189 481 l 308 481 l 308 658 b 249 721 308 711 299 721 b 189 658 197 721 189 711 m 444 888 l 344 888 l 243 1039 l 142 888 l 42 888 l 183 1118 l 304 1118 m 208 1136 l 208 1165 b 246 1222 208 1194 215 1204 l 297 1254 b 310 1276 307 1260 310 1265 l 310 1300 b 250 1331 310 1322 300 1331 b 194 1297 206 1331 194 1324 l 194 1261 l 125 1261 l 125 1297 b 253 1383 125 1374 149 1383 b 381 1310 357 1383 381 1374 l 381 1279 b 336 1206 381 1239 369 1226 l 290 1176 b 276 1154 281 1169 276 1164 l 276 1136 "},"Ễ":{"ha":407,"x_min":0,"x_max":0,"o":"m 375 0 l 61 0 l 61 1097 l 374 1097 l 374 965 l 221 965 l 221 806 l 369 806 l 369 679 l 221 679 l 221 138 l 375 138 m 113 1399 b 17 1357 63 1399 36 1382 l 17 1443 b 114 1474 38 1460 71 1474 b 325 1438 185 1474 251 1438 b 422 1479 372 1438 401 1451 l 422 1394 b 324 1361 401 1375 368 1361 b 113 1399 249 1361 186 1399 m 439 1133 l 333 1133 l 225 1256 l 117 1133 l 10 1133 l 161 1321 l 290 1321 "},"ễ":{"ha":485,"x_min":0,"x_max":0,"o":"m 189 367 l 189 171 b 249 107 189 118 197 107 b 308 171 299 107 308 118 l 308 283 l 436 283 l 436 163 b 247 -14 436 6 401 -14 b 50 163 83 -14 50 8 l 50 669 b 247 846 50 824 83 846 b 436 669 401 846 436 826 l 436 367 m 189 481 l 308 481 l 308 658 b 249 721 308 711 299 721 b 189 658 197 721 189 711 m 138 1269 b 42 1219 88 1269 61 1249 l 42 1321 b 139 1357 63 1340 96 1357 b 350 1314 210 1357 276 1314 b 447 1364 397 1314 426 1332 l 447 1264 b 349 1224 426 1240 393 1224 b 138 1269 274 1224 211 1269 m 444 888 l 344 888 l 243 1039 l 142 888 l 42 888 l 183 1118 l 304 1118 "},"Ệ":{"ha":407,"x_min":0,"x_max":0,"o":"m 375 0 l 61 0 l 61 1097 l 374 1097 l 374 965 l 221 965 l 221 806 l 369 806 l 369 679 l 221 679 l 221 138 l 375 138 m 279 -257 l 139 -257 l 139 -112 l 279 -112 m 425 1153 l 325 1153 l 224 1304 l 122 1153 l 22 1153 l 164 1383 l 285 1383 "},"ệ":{"ha":485,"x_min":0,"x_max":0,"o":"m 189 367 l 189 171 b 249 107 189 118 197 107 b 308 171 299 107 308 118 l 308 283 l 436 283 l 436 163 b 247 -14 436 6 401 -14 b 50 163 83 -14 50 8 l 50 669 b 247 846 50 824 83 846 b 436 669 401 846 436 826 l 436 367 m 189 481 l 308 481 l 308 658 b 249 721 308 711 299 721 b 189 658 197 721 189 711 m 314 -257 l 174 -257 l 174 -112 l 314 -112 m 444 888 l 344 888 l 243 1039 l 142 888 l 42 888 l 183 1118 l 304 1118 "},"Ỉ":{"ha":285,"x_min":0,"x_max":0,"o":"m 224 0 l 64 0 l 64 1097 l 224 1097 m 107 1136 l 107 1165 b 144 1222 107 1194 114 1204 l 196 1254 b 208 1276 206 1260 208 1265 l 208 1300 b 149 1331 208 1322 199 1331 b 93 1297 104 1331 93 1324 l 93 1261 l 24 1261 l 24 1297 b 151 1383 24 1374 47 1383 b 279 1310 256 1383 279 1374 l 279 1279 b 235 1206 279 1239 268 1226 l 189 1176 b 175 1154 179 1169 175 1164 l 175 1136 "},"ỉ":{"ha":275,"x_min":0,"x_max":0,"o":"m 208 0 l 68 0 l 68 832 l 208 832 m 103 871 l 103 900 b 140 957 103 929 110 939 l 192 989 b 204 1011 201 994 204 1000 l 204 1035 b 144 1065 204 1057 194 1065 b 89 1032 100 1065 89 1058 l 89 996 l 19 996 l 19 1032 b 147 1118 19 1108 43 1118 b 275 1044 251 1118 275 1108 l 275 1014 b 231 940 275 974 264 961 l 185 911 b 171 889 175 904 171 899 l 171 871 "},"Ị":{"ha":285,"x_min":0,"x_max":0,"o":"m 224 0 l 64 0 l 64 1097 l 224 1097 m 214 -257 l 74 -257 l 74 -112 l 214 -112 "},"ị":{"ha":267,"x_min":0,"x_max":0,"o":"m 204 953 l 64 953 l 64 1097 l 204 1097 m 204 0 l 64 0 l 64 832 l 204 832 m 204 -257 l 64 -257 l 64 -112 l 204 -112 "},"Ọ":{"ha":554,"x_min":0,"x_max":0,"o":"m 507 218 b 278 -14 507 14 467 -14 b 50 218 89 -14 50 14 l 50 881 b 278 1111 50 1083 89 1111 b 507 881 467 1111 507 1083 m 346 881 b 279 968 346 954 336 968 b 210 881 219 968 210 953 l 210 218 b 276 128 210 142 219 128 b 346 218 338 128 346 144 m 347 -257 l 207 -257 l 207 -112 l 347 -112 "},"ọ":{"ha":497,"x_min":0,"x_max":0,"o":"m 447 163 b 249 -14 447 7 411 -14 b 50 163 85 -14 50 7 l 50 669 b 249 846 50 825 85 846 b 447 669 411 846 447 825 m 310 654 b 251 713 310 703 300 713 b 188 654 199 713 188 701 l 188 176 b 249 117 188 129 197 117 b 310 176 301 117 310 131 m 318 -257 l 178 -257 l 178 -112 l 318 -112 "},"Ỏ":{"ha":554,"x_min":0,"x_max":0,"o":"m 507 218 b 278 -14 507 14 467 -14 b 50 218 89 -14 50 14 l 50 881 b 278 1111 50 1083 89 1111 b 507 881 467 1111 507 1083 m 346 881 b 279 968 346 954 336 968 b 210 881 219 968 210 953 l 210 218 b 276 128 210 142 219 128 b 346 218 338 128 346 144 m 243 1136 l 243 1165 b 281 1222 243 1194 250 1204 l 332 1254 b 344 1276 342 1260 344 1265 l 344 1300 b 285 1331 344 1322 335 1331 b 229 1297 240 1331 229 1324 l 229 1261 l 160 1261 l 160 1297 b 288 1383 160 1374 183 1383 b 415 1310 392 1383 415 1374 l 415 1279 b 371 1206 415 1239 404 1226 l 325 1176 b 311 1154 315 1169 311 1164 l 311 1136 "},"ỏ":{"ha":497,"x_min":0,"x_max":0,"o":"m 447 163 b 249 -14 447 7 411 -14 b 50 163 85 -14 50 7 l 50 669 b 249 846 50 825 85 846 b 447 669 411 846 447 825 m 310 654 b 251 713 310 703 300 713 b 188 654 199 713 188 701 l 188 176 b 249 117 188 129 197 117 b 310 176 301 117 310 131 m 214 871 l 214 900 b 251 957 214 929 221 939 l 303 989 b 315 1011 313 994 315 1000 l 315 1035 b 256 1065 315 1057 306 1065 b 200 1032 211 1065 200 1058 l 200 996 l 131 996 l 131 1032 b 258 1118 131 1108 154 1118 b 386 1044 363 1118 386 1108 l 386 1014 b 342 940 386 974 375 961 l 296 911 b 282 889 286 904 282 899 l 282 871 "},"Ố":{"ha":554,"x_min":0,"x_max":0,"o":"m 507 218 b 278 -14 507 14 467 -14 b 50 218 89 -14 50 14 l 50 881 b 278 1111 50 1083 89 1111 b 507 881 467 1111 507 1083 m 496 1133 l 390 1133 l 282 1256 l 174 1133 l 67 1133 l 218 1321 l 347 1321 m 442 1486 l 592 1486 l 461 1321 l 356 1321 m 346 881 b 279 968 346 954 336 968 b 210 881 219 968 210 953 l 210 218 b 276 128 210 142 219 128 b 346 218 338 128 346 144 "},"ố":{"ha":497,"x_min":0,"x_max":0,"o":"m 447 163 b 249 -14 447 7 411 -14 b 50 163 85 -14 50 7 l 50 669 b 249 846 50 825 85 846 b 447 669 411 846 447 825 m 310 654 b 251 713 310 703 300 713 b 188 654 199 713 188 701 l 188 176 b 249 117 188 129 197 117 b 310 176 301 117 310 131 m 260 1383 l 413 1383 l 281 1153 l 172 1153 m 450 888 l 350 888 l 249 1039 l 147 888 l 47 888 l 189 1118 l 310 1118 "},"Ồ":{"ha":554,"x_min":0,"x_max":0,"o":"m 507 218 b 278 -14 507 14 467 -14 b 50 218 89 -14 50 14 l 50 881 b 278 1111 50 1083 89 1111 b 507 881 467 1111 507 1083 m 496 1133 l 390 1133 l 282 1256 l 174 1133 l 67 1133 l 218 1321 l 347 1321 m 535 1319 l 429 1319 l 299 1486 l 449 1486 m 346 881 b 279 968 346 954 336 968 b 210 881 219 968 210 953 l 210 218 b 276 128 210 142 219 128 b 346 218 338 128 346 144 "},"ồ":{"ha":497,"x_min":0,"x_max":0,"o":"m 447 163 b 249 -14 447 7 411 -14 b 50 163 85 -14 50 7 l 50 669 b 249 846 50 825 85 846 b 447 669 411 846 447 825 m 310 654 b 251 713 310 703 300 713 b 188 654 199 713 188 701 l 188 176 b 249 117 188 129 197 117 b 310 176 301 117 310 131 m 329 1153 l 222 1153 l 89 1383 l 242 1383 m 450 888 l 350 888 l 249 1039 l 147 888 l 47 888 l 189 1118 l 310 1118 "},"Ổ":{"ha":554,"x_min":0,"x_max":0,"o":"m 507 218 b 278 -14 507 14 467 -14 b 50 218 89 -14 50 14 l 50 881 b 278 1111 50 1083 89 1111 b 507 881 467 1111 507 1083 m 496 1133 l 390 1133 l 282 1256 l 174 1133 l 67 1133 l 218 1321 l 347 1321 m 432 1256 l 432 1283 b 469 1336 432 1310 439 1319 l 521 1365 b 533 1386 531 1371 533 1376 l 533 1408 b 474 1438 533 1429 524 1438 b 418 1406 429 1438 418 1431 l 418 1372 l 349 1372 l 349 1406 b 476 1486 349 1478 372 1486 b 604 1418 581 1486 604 1478 l 604 1389 b 560 1321 604 1351 593 1340 l 514 1293 b 500 1272 504 1286 500 1282 l 500 1256 m 346 881 b 279 968 346 954 336 968 b 210 881 219 968 210 953 l 210 218 b 276 128 210 142 219 128 b 346 218 338 128 346 144 "},"ổ":{"ha":497,"x_min":0,"x_max":0,"o":"m 447 163 b 249 -14 447 7 411 -14 b 50 163 85 -14 50 7 l 50 669 b 249 846 50 825 85 846 b 447 669 411 846 447 825 m 310 654 b 251 713 310 703 300 713 b 188 654 199 713 188 701 l 188 176 b 249 117 188 129 197 117 b 310 176 301 117 310 131 m 450 888 l 350 888 l 249 1039 l 147 888 l 47 888 l 189 1118 l 310 1118 m 215 1136 l 215 1165 b 253 1222 215 1194 222 1204 l 304 1254 b 317 1276 314 1260 317 1265 l 317 1300 b 257 1331 317 1322 307 1331 b 201 1297 213 1331 201 1324 l 201 1261 l 132 1261 l 132 1297 b 260 1383 132 1374 156 1383 b 388 1310 364 1383 388 1374 l 388 1279 b 343 1206 388 1239 376 1226 l 297 1176 b 283 1154 288 1169 283 1164 l 283 1136 "},"Ỗ":{"ha":554,"x_min":0,"x_max":0,"o":"m 507 218 b 278 -14 507 14 467 -14 b 50 218 89 -14 50 14 l 50 881 b 278 1111 50 1083 89 1111 b 507 881 467 1111 507 1083 m 171 1399 b 75 1357 121 1399 94 1382 l 75 1443 b 172 1474 96 1460 129 1474 b 383 1438 243 1474 310 1438 b 481 1479 431 1438 460 1451 l 481 1394 b 382 1361 460 1375 426 1361 b 171 1399 307 1361 244 1399 m 496 1133 l 390 1133 l 282 1256 l 174 1133 l 67 1133 l 218 1321 l 347 1321 m 346 881 b 279 968 346 954 336 968 b 210 881 219 968 210 953 l 210 218 b 276 128 210 142 219 128 b 346 218 338 128 346 144 "},"ỗ":{"ha":497,"x_min":0,"x_max":0,"o":"m 447 163 b 249 -14 447 7 411 -14 b 50 163 85 -14 50 7 l 50 669 b 249 846 50 825 85 846 b 447 669 411 846 447 825 m 310 654 b 251 713 310 703 300 713 b 188 654 199 713 188 701 l 188 176 b 249 117 188 129 197 117 b 310 176 301 117 310 131 m 142 1269 b 46 1219 92 1269 65 1249 l 46 1321 b 143 1357 67 1340 100 1357 b 354 1314 214 1357 281 1314 b 451 1364 401 1314 431 1332 l 451 1264 b 353 1224 431 1240 397 1224 b 142 1269 278 1224 215 1269 m 450 888 l 350 888 l 249 1039 l 147 888 l 47 888 l 189 1118 l 310 1118 "},"Ộ":{"ha":554,"x_min":0,"x_max":0,"o":"m 507 218 b 278 -14 507 14 467 -14 b 50 218 89 -14 50 14 l 50 881 b 278 1111 50 1083 89 1111 b 507 881 467 1111 507 1083 m 346 881 b 279 968 346 954 336 968 b 210 881 219 968 210 953 l 210 218 b 276 128 210 142 219 128 b 346 218 338 128 346 144 m 347 -257 l 207 -257 l 207 -112 l 347 -112 m 479 1153 l 379 1153 l 278 1304 l 176 1153 l 76 1153 l 218 1383 l 339 1383 "},"ộ":{"ha":497,"x_min":0,"x_max":0,"o":"m 447 163 b 249 -14 447 7 411 -14 b 50 163 85 -14 50 7 l 50 669 b 249 846 50 825 85 846 b 447 669 411 846 447 825 m 310 654 b 251 713 310 703 300 713 b 188 654 199 713 188 701 l 188 176 b 249 117 188 129 197 117 b 310 176 301 117 310 131 m 318 -257 l 178 -257 l 178 -112 l 318 -112 m 450 888 l 350 888 l 249 1039 l 147 888 l 47 888 l 189 1118 l 310 1118 "},"Ớ":{"ha":585,"x_min":0,"x_max":0,"o":"m 289 1383 l 442 1383 l 310 1153 l 201 1153 m 507 1225 l 611 1225 l 611 1146 b 492 1008 611 1058 575 1017 b 504 881 500 974 504 940 l 504 218 b 276 -14 504 14 464 -14 b 50 218 90 -14 50 14 l 50 881 b 260 1111 50 1072 90 1111 b 447 1097 361 1111 388 1097 b 507 1146 493 1097 507 1106 m 349 881 b 279 972 349 958 338 972 b 204 881 215 972 204 956 l 204 218 b 275 124 204 138 215 124 b 349 218 339 124 349 140 "},"ớ":{"ha":561,"x_min":0,"x_max":0,"o":"m 256 1118 l 408 1118 l 276 888 l 168 888 m 483 960 l 589 960 l 589 881 b 429 744 589 785 549 744 b 444 651 439 728 444 704 l 444 163 b 247 -14 444 7 408 -14 b 50 163 86 -14 50 7 l 50 669 b 246 846 50 817 86 846 b 415 832 356 846 356 832 b 483 881 469 832 483 843 m 311 643 b 247 717 311 706 301 717 b 183 643 193 717 183 706 l 183 188 b 246 113 183 124 194 113 b 311 188 303 113 311 126 "},"Ờ":{"ha":585,"x_min":0,"x_max":0,"o":"m 357 1153 l 250 1153 l 117 1383 l 269 1383 m 507 1225 l 611 1225 l 611 1146 b 492 1008 611 1058 575 1017 b 504 881 500 974 504 940 l 504 218 b 276 -14 504 14 464 -14 b 50 218 90 -14 50 14 l 50 881 b 260 1111 50 1072 90 1111 b 447 1097 361 1111 388 1097 b 507 1146 493 1097 507 1106 m 349 881 b 279 972 349 958 338 972 b 204 881 215 972 204 956 l 204 218 b 275 124 204 138 215 124 b 349 218 339 124 349 140 "},"ờ":{"ha":561,"x_min":0,"x_max":0,"o":"m 326 888 l 219 888 l 86 1118 l 239 1118 m 483 960 l 589 960 l 589 881 b 429 744 589 785 549 744 b 444 651 439 728 444 704 l 444 163 b 247 -14 444 7 408 -14 b 50 163 86 -14 50 7 l 50 669 b 246 846 50 817 86 846 b 415 832 356 846 356 832 b 483 881 469 832 483 843 m 311 643 b 247 717 311 706 301 717 b 183 643 193 717 183 706 l 183 188 b 246 113 183 124 194 113 b 311 188 303 113 311 126 "},"Ở":{"ha":585,"x_min":0,"x_max":0,"o":"m 507 1225 l 611 1225 l 611 1146 b 492 1008 611 1058 575 1017 b 504 881 500 974 504 940 l 504 218 b 276 -14 504 14 464 -14 b 50 218 90 -14 50 14 l 50 881 b 260 1111 50 1072 90 1111 b 447 1097 361 1111 388 1097 b 507 1146 493 1097 507 1106 m 349 881 b 279 972 349 958 338 972 b 204 881 215 972 204 956 l 204 218 b 275 124 204 138 215 124 b 349 218 339 124 349 140 m 244 1136 l 244 1165 b 282 1222 244 1194 251 1204 l 333 1254 b 346 1276 343 1260 346 1265 l 346 1300 b 286 1331 346 1322 336 1331 b 231 1297 242 1331 231 1324 l 231 1261 l 161 1261 l 161 1297 b 289 1383 161 1374 185 1383 b 417 1310 393 1383 417 1374 l 417 1279 b 372 1206 417 1239 406 1226 l 326 1176 b 313 1154 317 1169 313 1164 l 313 1136 "},"ở":{"ha":561,"x_min":0,"x_max":0,"o":"m 483 960 l 589 960 l 589 881 b 429 744 589 785 549 744 b 444 651 439 728 444 704 l 444 163 b 247 -14 444 7 408 -14 b 50 163 86 -14 50 7 l 50 669 b 246 846 50 817 86 846 b 415 832 356 846 356 832 b 483 881 469 832 483 843 m 311 643 b 247 717 311 706 301 717 b 183 643 193 717 183 706 l 183 188 b 246 113 183 124 194 113 b 311 188 303 113 311 126 m 213 871 l 213 900 b 250 957 213 929 219 939 l 301 989 b 314 1011 311 994 314 1000 l 314 1035 b 254 1065 314 1057 304 1065 b 199 1032 210 1065 199 1058 l 199 996 l 129 996 l 129 1032 b 257 1118 129 1108 153 1118 b 385 1044 361 1118 385 1108 l 385 1014 b 340 940 385 974 374 961 l 294 911 b 281 889 285 904 281 899 l 281 871 "},"Ỡ":{"ha":585,"x_min":0,"x_max":0,"o":"m 167 1269 b 71 1219 117 1269 90 1249 l 71 1321 b 168 1357 92 1340 125 1357 b 379 1314 239 1357 306 1314 b 476 1364 426 1314 456 1332 l 476 1264 b 378 1224 456 1240 422 1224 b 167 1269 303 1224 240 1269 m 507 1225 l 611 1225 l 611 1146 b 492 1008 611 1058 575 1017 b 504 881 500 974 504 940 l 504 218 b 276 -14 504 14 464 -14 b 50 218 90 -14 50 14 l 50 881 b 260 1111 50 1072 90 1111 b 447 1097 361 1111 388 1097 b 507 1146 493 1097 507 1106 m 349 881 b 279 972 349 958 338 972 b 204 881 215 972 204 956 l 204 218 b 275 124 204 138 215 124 b 349 218 339 124 349 140 "},"ỡ":{"ha":561,"x_min":0,"x_max":0,"o":"m 132 1004 b 36 954 82 1004 56 983 l 36 1056 b 133 1092 57 1075 90 1092 b 344 1049 204 1092 271 1049 b 442 1099 392 1049 421 1067 l 442 999 b 343 958 421 975 388 958 b 132 1004 268 958 206 1004 m 483 960 l 589 960 l 589 881 b 429 744 589 785 549 744 b 444 651 439 728 444 704 l 444 163 b 247 -14 444 7 408 -14 b 50 163 86 -14 50 7 l 50 669 b 246 846 50 817 86 846 b 415 832 356 846 356 832 b 483 881 469 832 483 843 m 311 643 b 247 717 311 706 301 717 b 183 643 193 717 183 706 l 183 188 b 246 113 183 124 194 113 b 311 188 303 113 311 126 "},"Ợ":{"ha":585,"x_min":0,"x_max":0,"o":"m 507 1225 l 611 1225 l 611 1146 b 492 1008 611 1058 575 1017 b 504 881 500 974 504 940 l 504 218 b 276 -14 504 14 464 -14 b 50 218 90 -14 50 14 l 50 881 b 260 1111 50 1072 90 1111 b 447 1097 361 1111 388 1097 b 507 1146 493 1097 507 1106 m 349 881 b 279 972 349 958 338 972 b 204 881 215 972 204 956 l 204 218 b 275 124 204 138 215 124 b 349 218 339 124 349 140 m 350 -257 l 210 -257 l 210 -112 l 350 -112 "},"ợ":{"ha":561,"x_min":0,"x_max":0,"o":"m 483 960 l 589 960 l 589 881 b 429 744 589 785 549 744 b 444 651 439 728 444 704 l 444 163 b 247 -14 444 7 408 -14 b 50 163 86 -14 50 7 l 50 669 b 246 846 50 817 86 846 b 415 832 356 846 356 832 b 483 881 469 832 483 843 m 311 643 b 247 717 311 706 301 717 b 183 643 193 717 183 706 l 183 188 b 246 113 183 124 194 113 b 311 188 303 113 311 126 m 319 -257 l 179 -257 l 179 -112 l 319 -112 "},"Ụ":{"ha":560,"x_min":0,"x_max":0,"o":"m 282 -14 b 56 218 99 -14 56 14 l 56 1097 l 215 1097 l 215 218 b 283 129 215 142 226 129 b 351 218 340 129 351 142 l 351 1097 l 507 1097 l 507 218 b 282 -14 507 14 465 -14 m 350 -257 l 210 -257 l 210 -112 l 350 -112 "},"ụ":{"ha":522,"x_min":0,"x_max":0,"o":"m 319 832 l 463 832 l 463 0 l 329 0 l 329 54 b 196 -7 307 13 271 -7 b 56 163 89 -7 56 33 l 56 832 l 197 832 l 197 176 b 251 119 197 138 208 119 b 319 163 293 119 308 136 m 332 -257 l 192 -257 l 192 -112 l 332 -112 "},"Ủ":{"ha":560,"x_min":0,"x_max":0,"o":"m 282 -14 b 56 218 99 -14 56 14 l 56 1097 l 215 1097 l 215 218 b 283 129 215 142 226 129 b 351 218 340 129 351 142 l 351 1097 l 507 1097 l 507 218 b 282 -14 507 14 465 -14 m 246 1136 l 246 1165 b 283 1222 246 1194 253 1204 l 335 1254 b 347 1276 344 1260 347 1265 l 347 1300 b 288 1331 347 1322 338 1331 b 232 1297 243 1331 232 1324 l 232 1261 l 163 1261 l 163 1297 b 290 1383 163 1374 186 1383 b 418 1310 394 1383 418 1374 l 418 1279 b 374 1206 418 1239 407 1226 l 328 1176 b 314 1154 318 1169 314 1164 l 314 1136 "},"ủ":{"ha":522,"x_min":0,"x_max":0,"o":"m 319 832 l 463 832 l 463 0 l 329 0 l 329 54 b 196 -7 307 13 271 -7 b 56 163 89 -7 56 33 l 56 832 l 197 832 l 197 176 b 251 119 197 138 208 119 b 319 163 293 119 308 136 m 226 871 l 226 900 b 264 957 226 929 233 939 l 315 989 b 328 1011 325 994 328 1000 l 328 1035 b 268 1065 328 1057 318 1065 b 213 1032 224 1065 213 1058 l 213 996 l 143 996 l 143 1032 b 271 1118 143 1108 167 1118 b 399 1044 375 1118 399 1108 l 399 1014 b 354 940 399 974 388 961 l 308 911 b 294 889 299 904 294 899 l 294 871 "},"Ứ":{"ha":650,"x_min":0,"x_max":0,"o":"m 290 1383 l 443 1383 l 311 1153 l 203 1153 m 571 1225 l 676 1225 l 676 1146 b 533 1010 676 1050 636 1010 l 504 1010 l 504 218 b 281 -14 504 14 461 -14 b 56 218 99 -14 56 14 l 56 1097 l 210 1097 l 210 218 b 281 124 210 139 222 124 b 353 218 342 124 353 140 l 353 1097 l 518 1097 b 571 1146 558 1097 571 1107 "},"ứ":{"ha":606,"x_min":0,"x_max":0,"o":"m 268 1118 l 421 1118 l 289 888 l 181 888 m 526 960 l 632 960 l 632 881 b 489 744 632 785 592 744 l 463 744 l 463 0 l 329 0 l 329 54 b 196 -7 307 13 271 -7 b 56 163 89 -7 56 33 l 56 832 l 197 832 l 197 176 b 251 119 197 138 208 119 b 319 163 293 119 308 136 l 319 832 l 474 832 b 526 881 514 832 526 842 "},"Ừ":{"ha":650,"x_min":0,"x_max":0,"o":"m 361 1153 l 254 1153 l 121 1383 l 274 1383 m 571 1225 l 676 1225 l 676 1146 b 533 1010 676 1050 636 1010 l 504 1010 l 504 218 b 281 -14 504 14 461 -14 b 56 218 99 -14 56 14 l 56 1097 l 210 1097 l 210 218 b 281 124 210 139 222 124 b 353 218 342 124 353 140 l 353 1097 l 518 1097 b 571 1146 558 1097 571 1107 "},"ừ":{"ha":606,"x_min":0,"x_max":0,"o":"m 339 888 l 232 888 l 99 1118 l 251 1118 m 526 960 l 632 960 l 632 881 b 489 744 632 785 592 744 l 463 744 l 463 0 l 329 0 l 329 54 b 196 -7 307 13 271 -7 b 56 163 89 -7 56 33 l 56 832 l 197 832 l 197 176 b 251 119 197 138 208 119 b 319 163 293 119 308 136 l 319 832 l 474 832 b 526 881 514 832 526 842 "}}}
